<svg width="346" height="381" viewBox="0 0 346 381" fill="none" xmlns="http://www.w3.org/2000/svg">
<g clip-path="url(#clip0_427_4359)">
<path d="M333.579 100.772C340.185 89.33 336.247 74.6894 324.783 68.0711C313.32 61.4527 298.672 65.3628 292.066 76.8045C285.46 88.2462 289.398 102.887 300.861 109.505C312.325 116.123 326.973 112.213 333.579 100.772Z" fill="url(#paint0_linear_427_4359)"/>
<path d="M330.32 100.571C336.926 89.1297 332.988 74.4891 321.525 67.8707C310.062 61.2524 295.414 65.1625 288.808 76.6042C282.202 88.0459 286.14 102.686 297.603 109.305C309.066 115.923 323.714 112.013 330.32 100.571Z" fill="url(#paint1_linear_427_4359)"/>
<path d="M327.115 100.402C333.721 88.96 329.783 74.3194 318.32 67.701C306.856 61.0827 292.208 64.9927 285.602 76.4344C278.996 87.8762 282.934 102.517 294.398 109.135C305.861 115.753 320.509 111.843 327.115 100.402Z" fill="url(#paint2_linear_427_4359)"/>
<path d="M323.956 100.264C330.561 88.8227 326.624 74.1821 315.16 67.5637C303.697 60.9454 289.049 64.8555 282.443 76.2972C275.837 87.7389 279.775 102.379 291.238 108.998C302.702 115.616 317.35 111.706 323.956 100.264Z" fill="url(#paint3_linear_427_4359)"/>
<path d="M320.845 100.155C327.451 88.7135 323.513 74.0729 312.05 67.4545C300.586 60.8362 285.938 64.7462 279.332 76.1879C272.726 87.6296 276.664 102.27 288.128 108.889C299.591 115.507 314.239 111.597 320.845 100.155Z" fill="url(#paint4_linear_427_4359)"/>
<path d="M317.784 100.081C324.39 88.6393 320.453 73.9987 308.989 67.3803C297.526 60.7619 282.878 64.672 276.272 76.1137C269.666 87.5554 273.604 102.196 285.067 108.814C296.531 115.433 311.179 111.523 317.784 100.081Z" fill="url(#paint5_linear_427_4359)"/>
<path d="M314.773 100.035C321.379 88.593 317.441 73.9525 305.978 67.3341C294.514 60.7157 279.866 64.6258 273.261 76.0675C266.655 87.5092 270.592 102.15 282.056 108.768C293.519 115.387 308.167 111.476 314.773 100.035Z" fill="url(#paint6_linear_427_4359)"/>
<path d="M311.803 100.018C318.409 88.5768 314.471 73.9362 303.008 67.3178C291.544 60.6995 276.896 64.6096 270.29 76.0513C263.684 87.493 267.622 102.134 279.086 108.752C290.549 115.37 305.197 111.46 311.803 100.018Z" fill="url(#paint7_linear_427_4359)"/>
<path d="M308.886 100.033C315.492 88.5911 311.554 73.9505 300.091 67.3322C288.627 60.7138 273.979 64.6239 267.373 76.0656C260.767 87.5073 264.705 102.148 276.169 108.766C287.632 115.385 302.28 111.475 308.886 100.033Z" fill="url(#paint8_linear_427_4359)"/>
<path d="M306.013 100.073C312.619 88.631 308.681 73.9904 297.218 67.372C285.754 60.7536 271.106 64.6637 264.5 76.1054C257.894 87.5471 261.832 102.188 273.296 108.806C284.759 115.424 299.407 111.514 306.013 100.073Z" fill="url(#paint9_linear_427_4359)"/>
<path d="M303.189 100.141C309.794 88.6988 305.857 74.0582 294.393 67.4399C282.93 60.8215 268.282 64.7316 261.676 76.1733C255.07 87.615 259.008 102.256 270.471 108.874C281.935 115.492 296.583 111.582 303.189 100.141Z" fill="url(#paint10_linear_427_4359)"/>
<path d="M300.41 100.241C307.016 88.7991 303.078 74.1585 291.615 67.5402C280.152 60.9218 265.504 64.8319 258.898 76.2736C252.292 87.7153 256.23 102.356 267.693 108.974C279.156 115.593 293.804 111.682 300.41 100.241Z" fill="url(#paint11_linear_427_4359)"/>
<path d="M297.676 100.367C304.282 88.9249 300.344 74.2844 288.881 67.666C277.417 61.0476 262.769 64.9577 256.164 76.3994C249.558 87.8411 253.496 102.482 264.959 109.1C276.422 115.718 291.07 111.808 297.676 100.367Z" fill="url(#paint12_linear_427_4359)"/>
<path d="M294.986 100.518C301.592 89.0763 297.654 74.4357 286.191 67.8173C274.728 61.1989 260.08 65.109 253.474 76.5507C246.868 87.9924 250.806 102.633 262.269 109.251C273.732 115.87 288.38 111.96 294.986 100.518Z" fill="url(#paint13_linear_427_4359)"/>
<path d="M292.34 100.695C298.946 89.2531 295.008 74.6125 283.545 67.9941C272.082 61.3757 257.434 65.2858 250.828 76.7275C244.222 88.1692 248.16 102.81 259.623 109.428C271.086 116.047 285.734 112.136 292.34 100.695Z" fill="url(#paint14_linear_427_4359)"/>
<path d="M289.743 100.9C296.349 89.4579 292.411 74.8174 280.948 68.199C269.484 61.5806 254.836 65.4907 248.231 76.9324C241.625 88.3741 245.562 103.015 257.026 109.633C268.489 116.251 283.137 112.341 289.743 100.9Z" fill="url(#paint15_linear_427_4359)"/>
<path d="M287.183 101.132C293.789 89.6901 289.851 75.0496 278.388 68.4312C266.924 61.8128 252.276 65.7229 245.67 77.1646C239.065 88.6063 243.002 103.247 254.466 109.865C265.929 116.484 280.577 112.574 287.183 101.132Z" fill="url(#paint16_linear_427_4359)"/>
<path d="M284.669 101.385C291.275 89.9435 287.338 75.3029 275.874 68.6845C264.411 62.0661 249.763 65.9762 243.157 77.4179C236.551 88.8596 240.489 103.5 251.952 110.119C263.416 116.737 278.064 112.827 284.669 101.385Z" fill="url(#paint17_linear_427_4359)"/>
<path d="M282.2 101.664C288.806 90.2222 284.869 75.5816 273.405 68.9633C261.942 62.3449 247.294 66.255 240.688 77.6967C234.082 89.1384 238.02 103.779 249.483 110.397C260.947 117.016 275.595 113.106 282.2 101.664Z" fill="url(#paint18_linear_427_4359)"/>
<path d="M279.775 101.968C286.381 90.5265 282.444 75.886 270.98 69.2676C259.517 62.6492 244.869 66.5593 238.263 78.001C231.657 89.4427 235.595 104.083 247.058 110.702C258.522 117.32 273.17 113.41 279.775 101.968Z" fill="url(#paint19_linear_427_4359)"/>
<path d="M277.386 102.293C283.992 90.8512 280.054 76.2106 268.591 69.5923C257.127 62.9739 242.479 66.884 235.873 78.3257C229.267 89.7674 233.205 104.408 244.669 111.026C256.132 117.645 270.78 113.735 277.386 102.293Z" fill="url(#paint20_linear_427_4359)"/>
<path d="M275.047 102.641C281.653 91.1996 277.715 76.559 266.252 69.9406C254.789 63.3223 240.141 67.2324 233.535 78.6741C226.929 90.1158 230.867 104.756 242.33 111.375C253.793 117.993 268.441 114.083 275.047 102.641Z" fill="url(#paint21_linear_427_4359)"/>
<path d="M272.744 103.01C279.35 91.5683 275.412 76.9277 263.949 70.3094C252.485 63.691 237.837 67.6011 231.231 79.0428C224.626 90.4845 228.563 105.125 240.027 111.743C251.49 118.362 266.138 114.452 272.744 103.01Z" fill="url(#paint22_linear_427_4359)"/>
<path d="M270.485 103.404C277.091 91.9625 273.153 77.322 261.69 70.7036C250.226 64.0852 235.578 67.9953 228.972 79.437C222.367 90.8787 226.304 105.519 237.768 112.138C249.231 118.756 263.879 114.846 270.485 103.404Z" fill="url(#paint23_linear_427_4359)"/>
<path d="M268.261 103.819C274.867 92.3772 270.929 77.7366 259.466 71.1182C248.002 64.4998 233.354 68.4099 226.749 79.8516C220.143 91.2933 224.08 105.934 235.544 112.552C247.007 119.171 261.655 115.261 268.261 103.819Z" fill="url(#paint24_linear_427_4359)"/>
<path d="M266.08 104.252C272.685 92.8103 268.748 78.1697 257.284 71.5514C245.821 64.933 231.173 68.8431 224.567 80.2848C217.961 91.7265 221.899 106.367 233.362 112.985C244.826 119.604 259.474 115.694 266.08 104.252Z" fill="url(#paint25_linear_427_4359)"/>
<path d="M263.942 104.711C270.548 93.269 266.611 78.6284 255.147 72.01C243.684 65.3917 229.036 69.3018 222.43 80.7435C215.824 92.1852 219.762 106.826 231.225 113.444C242.689 120.062 257.337 116.152 263.942 104.711Z" fill="url(#paint26_linear_427_4359)"/>
<path d="M261.836 105.187C268.442 93.7455 264.504 79.1049 253.041 72.4865C241.577 65.8682 226.929 69.7783 220.324 81.22C213.718 92.6617 217.655 107.302 229.119 113.921C240.582 120.539 255.23 116.629 261.836 105.187Z" fill="url(#paint27_linear_427_4359)"/>
<path d="M259.772 105.682C266.378 94.2405 262.44 79.6 250.977 72.9816C239.513 66.3632 224.865 70.2733 218.26 81.715C211.654 93.1567 215.591 107.797 227.055 114.416C238.518 121.034 253.166 117.124 259.772 105.682Z" fill="url(#paint28_linear_427_4359)"/>
<path d="M257.75 106.196C264.356 94.7541 260.418 80.1135 248.955 73.4952C237.491 66.8768 222.843 70.7869 216.238 82.2286C209.632 93.6703 213.569 108.311 225.033 114.929C236.496 121.548 251.144 117.638 257.75 106.196Z" fill="url(#paint29_linear_427_4359)"/>
<path d="M255.764 106.73C262.37 95.2881 258.432 80.6476 246.968 74.0292C235.505 67.4108 220.857 71.3209 214.251 82.7626C207.645 94.2043 211.583 108.845 223.047 115.463C234.51 122.082 249.158 118.172 255.764 106.73Z" fill="url(#paint30_linear_427_4359)"/>
<path d="M253.815 107.28C260.421 95.8381 256.483 81.1975 245.02 74.5792C233.556 67.9608 218.908 71.8709 212.303 83.3126C205.697 94.7543 209.634 109.395 221.098 116.013C232.561 122.632 247.209 118.722 253.815 107.28Z" fill="url(#paint31_linear_427_4359)"/>
<path d="M251.904 107.846C258.51 96.4041 254.572 81.7635 243.109 75.1451C231.646 68.5267 216.998 72.4368 210.392 83.8785C203.786 95.3203 207.724 109.961 219.187 116.579C230.65 123.198 245.298 119.287 251.904 107.846Z" fill="url(#paint32_linear_427_4359)"/>
<path d="M250.029 108.432C256.635 96.9904 252.697 82.3498 241.234 75.7315C229.771 69.1131 215.123 73.0232 208.517 84.4649C201.911 95.9066 205.849 110.547 217.312 117.166C228.775 123.784 243.423 119.874 250.029 108.432Z" fill="url(#paint33_linear_427_4359)"/>
<path d="M248.191 109.034C254.797 97.5928 250.86 82.9522 239.396 76.3338C227.933 69.7155 213.285 73.6256 206.679 85.0673C200.073 96.509 204.011 111.15 215.474 117.768C226.938 124.386 241.586 120.476 248.191 109.034Z" fill="url(#paint34_linear_427_4359)"/>
<path d="M246.387 109.65C252.993 98.2086 249.056 83.568 237.592 76.9497C226.129 70.3313 211.481 74.2414 204.875 85.6831C198.269 97.1248 202.207 111.765 213.67 118.384C225.134 125.002 239.782 121.092 246.387 109.65Z" fill="url(#paint35_linear_427_4359)"/>
<path d="M244.621 110.282C251.227 98.8404 247.289 84.1998 235.826 77.5814C224.363 70.9631 209.715 74.8732 203.109 86.3149C196.503 97.7566 200.441 112.397 211.904 119.016C223.367 125.634 238.015 121.724 244.621 110.282Z" fill="url(#paint36_linear_427_4359)"/>
<path d="M242.886 110.932C249.492 99.49 245.554 84.8494 234.091 78.2311C222.627 71.6127 207.979 75.5228 201.374 86.9645C194.768 98.4062 198.705 113.047 210.169 119.665C221.632 126.283 236.28 122.373 242.886 110.932Z" fill="url(#paint37_linear_427_4359)"/>
<path d="M241.191 111.593C247.797 100.151 243.859 85.5106 232.396 78.8923C220.933 72.2739 206.285 76.184 199.679 87.6257C193.073 99.0674 197.011 113.708 208.474 120.326C219.937 126.945 234.585 123.035 241.191 111.593Z" fill="url(#paint38_linear_427_4359)"/>
<path d="M239.527 112.272C246.133 100.83 242.195 86.1897 230.732 79.5713C219.269 72.953 204.621 76.8631 198.015 88.3048C191.409 99.7465 195.347 114.387 206.81 121.005C218.273 127.624 232.921 123.714 239.527 112.272Z" fill="url(#paint39_linear_427_4359)"/>
<path d="M237.899 112.96C244.505 101.518 240.567 86.8778 229.104 80.2594C217.641 73.6411 202.993 77.5512 196.387 88.9929C189.781 100.435 193.719 115.075 205.182 121.694C216.645 128.312 231.293 124.402 237.899 112.96Z" fill="url(#paint40_linear_427_4359)"/>
<path d="M236.305 113.662C242.911 102.22 238.973 87.5794 227.509 80.961C216.046 74.3426 201.398 78.2527 194.792 89.6944C188.186 101.136 192.124 115.777 203.588 122.395C215.051 129.013 229.699 125.103 236.305 113.662Z" fill="url(#paint41_linear_427_4359)"/>
<path d="M234.741 114.381C241.347 102.939 237.409 88.2987 225.946 81.6803C214.483 75.062 199.835 78.9721 193.229 90.4138C186.623 101.855 190.561 116.496 202.024 123.114C213.487 129.733 228.135 125.823 234.741 114.381Z" fill="url(#paint42_linear_427_4359)"/>
<path d="M233.209 115.107C239.815 103.665 235.877 89.0246 224.414 82.4062C212.951 75.7878 198.303 79.6979 191.697 91.1396C185.091 102.581 189.029 117.222 200.492 123.84C211.955 130.459 226.603 126.549 233.209 115.107Z" fill="url(#paint43_linear_427_4359)"/>
<path d="M231.715 115.849C238.321 104.407 234.383 89.7664 222.92 83.1481C211.457 76.5297 196.809 80.4398 190.203 91.8815C183.597 103.323 187.535 117.964 198.998 124.582C210.461 131.201 225.109 127.29 231.715 115.849Z" fill="url(#paint44_linear_427_4359)"/>
<path d="M230.248 116.595C236.854 105.153 232.916 90.5122 221.453 83.8939C209.99 77.2755 195.342 81.1856 188.736 92.6273C182.13 104.069 186.068 118.71 197.531 125.328C208.994 131.946 223.642 128.036 230.248 116.595Z" fill="url(#paint45_linear_427_4359)"/>
<path d="M228.812 117.358C235.418 105.916 231.48 91.2759 220.017 84.6575C208.554 78.0391 193.906 81.9492 187.3 93.3909C180.694 104.833 184.632 119.473 196.095 126.092C207.558 132.71 222.206 128.8 228.812 117.358Z" fill="url(#paint46_linear_427_4359)"/>
<path d="M227.408 118.128C234.014 106.687 230.076 92.046 218.613 85.4276C207.149 78.8093 192.501 82.7194 185.896 94.1611C179.29 105.603 183.227 120.243 194.691 126.862C206.154 133.48 220.802 129.57 227.408 118.128Z" fill="url(#paint47_linear_427_4359)"/>
<path d="M226.039 118.907C232.645 107.466 228.707 92.8251 217.244 86.2067C205.781 79.5884 191.133 83.4985 184.527 94.9402C177.921 106.382 181.859 121.022 193.322 127.641C204.785 134.259 219.433 130.349 226.039 118.907Z" fill="url(#paint48_linear_427_4359)"/>
<path d="M224.693 119.699C231.299 108.258 227.361 93.617 215.898 86.9987C204.435 80.3803 189.787 84.2904 183.181 95.7321C176.575 107.174 180.513 121.814 191.976 128.433C203.439 135.051 218.087 131.141 224.693 119.699Z" fill="url(#paint49_linear_427_4359)"/>
<path d="M223.378 120.498C229.984 109.056 226.047 94.4154 214.583 87.797C203.12 81.1787 188.472 85.0888 181.866 96.5305C175.26 107.972 179.198 122.613 190.661 129.231C202.125 135.849 216.773 131.939 223.378 120.498Z" fill="url(#paint50_linear_427_4359)"/>
<path d="M222.1 121.305C228.706 109.863 224.768 95.2228 213.304 88.6044C201.841 81.9861 187.193 85.8962 180.587 97.3379C173.981 108.78 177.919 123.42 189.382 130.039C200.846 136.657 215.494 132.747 222.1 121.305Z" fill="url(#paint51_linear_427_4359)"/>
<path d="M220.841 122.118C227.447 110.677 223.509 96.036 212.046 89.4177C200.583 82.7993 185.935 86.7094 179.329 98.1511C172.723 109.593 176.661 124.233 188.124 130.852C199.587 137.47 214.235 133.56 220.841 122.118Z" fill="url(#paint52_linear_427_4359)"/>
<path d="M219.614 122.938C226.22 111.496 222.282 96.8557 210.819 90.2373C199.355 83.619 184.707 87.5291 178.102 98.9708C171.496 110.412 175.434 125.053 186.897 131.671C198.36 138.29 213.008 134.38 219.614 122.938Z" fill="url(#paint53_linear_427_4359)"/>
<path d="M218.419 123.764C225.025 112.322 221.087 97.6819 209.624 91.0635C198.16 84.4451 183.512 88.3552 176.906 99.7969C170.3 111.239 174.238 125.879 185.702 132.498C197.165 139.116 211.813 135.206 218.419 123.764Z" fill="url(#paint54_linear_427_4359)"/>
<path d="M217.248 124.599C223.854 113.157 219.916 98.5164 208.453 91.898C196.99 85.2797 182.342 89.1897 175.736 100.631C169.13 112.073 173.068 126.714 184.531 133.332C195.994 139.95 210.642 136.04 217.248 124.599Z" fill="url(#paint55_linear_427_4359)"/>
<path d="M216.105 125.437C222.71 113.995 218.773 99.3548 207.309 92.7365C195.846 86.1181 181.198 90.0282 174.592 101.47C167.986 112.912 171.924 127.552 183.387 134.171C194.851 140.789 209.499 136.879 216.105 125.437Z" fill="url(#paint56_linear_427_4359)"/>
<path d="M214.99 126.286C221.596 114.845 217.658 100.204 206.195 93.5858C194.731 86.9674 180.083 90.8775 173.478 102.319C166.872 113.761 170.809 128.401 182.273 135.02C193.736 141.638 208.384 137.728 214.99 126.286Z" fill="url(#paint57_linear_427_4359)"/>
<path d="M213.898 127.137C220.504 115.695 216.566 101.055 205.103 94.4365C193.64 87.8181 178.992 91.7282 172.386 103.17C165.78 114.612 169.718 129.252 181.181 135.871C192.644 142.489 207.292 138.579 213.898 127.137Z" fill="url(#paint58_linear_427_4359)"/>
<path d="M212.836 127.987C219.442 116.546 215.504 101.905 204.041 95.2868C192.578 88.6684 177.93 92.5785 171.324 104.02C164.718 115.462 168.656 130.102 180.119 136.721C191.582 143.339 206.23 139.429 212.836 127.987Z" fill="url(#paint59_linear_427_4359)"/>
<path d="M211.794 128.843C218.4 117.402 214.462 102.761 202.999 96.1428C191.536 89.5244 176.888 93.4345 170.282 104.876C163.676 116.318 167.614 130.958 179.077 137.577C190.54 144.195 205.188 140.285 211.794 128.843Z" fill="url(#paint60_linear_427_4359)"/>
<path d="M210.784 129.706C217.39 118.264 213.452 103.624 201.989 97.0053C190.525 90.3869 175.877 94.297 169.272 105.739C162.666 117.18 166.603 131.821 178.067 138.439C189.53 145.058 204.178 141.148 210.784 129.706Z" fill="url(#paint61_linear_427_4359)"/>
<path d="M209.792 130.567C216.398 119.126 212.46 104.485 200.997 97.8667C189.533 91.2483 174.885 95.1584 168.28 106.6C161.674 118.042 165.611 132.682 177.075 139.301C188.538 145.919 203.186 142.009 209.792 130.567Z" fill="url(#paint62_linear_427_4359)"/>
<path d="M208.832 131.435C215.438 119.993 211.5 105.353 200.037 98.7345C188.573 92.1161 173.925 96.0262 167.319 107.468C160.714 118.91 164.651 133.55 176.115 140.169C187.578 146.787 202.226 142.877 208.832 131.435Z" fill="url(#paint63_linear_427_4359)"/>
<path d="M207.89 132.302C214.496 120.86 210.558 106.22 199.095 99.6011C187.631 92.9828 172.983 96.8929 166.377 108.335C159.772 119.776 163.709 134.417 175.173 141.035C186.636 147.654 201.284 143.743 207.89 132.302Z" fill="url(#paint64_linear_427_4359)"/>
<path d="M206.971 133.17C213.576 121.728 209.639 107.088 198.175 100.469C186.712 93.8508 172.064 97.7609 165.458 109.203C158.852 120.644 162.79 135.285 174.253 141.903C185.717 148.522 200.365 144.612 206.971 133.17Z" fill="url(#paint65_linear_427_4359)"/>
<path d="M206.078 134.042C212.684 122.6 208.747 107.96 197.283 101.341C185.82 94.7228 171.172 98.6329 164.566 110.075C157.96 121.516 161.898 136.157 173.361 142.775C184.825 149.394 199.473 145.484 206.078 134.042Z" fill="url(#paint66_linear_427_4359)"/>
<path d="M205.207 134.908C211.813 123.467 207.875 108.826 196.412 102.208C184.949 95.5892 170.301 99.4993 163.695 110.941C157.089 122.383 161.027 137.023 172.49 143.642C183.953 150.26 198.601 146.35 205.207 134.908Z" fill="url(#paint67_linear_427_4359)"/>
<path d="M204.196 135.946C210.802 124.505 206.864 109.864 195.401 103.246C183.937 96.6273 169.289 100.537 162.683 111.979C156.078 123.421 160.015 138.061 171.479 144.68C182.942 151.298 197.59 147.388 204.196 135.946Z" fill="url(#paint68_linear_427_4359)"/>
<path d="M202.667 137.585C209.273 126.143 205.335 111.503 193.872 104.884C182.408 98.2659 167.76 102.176 161.154 113.618C154.548 125.059 158.486 139.7 169.95 146.318C181.413 152.937 196.061 149.027 202.667 137.585Z" fill="url(#paint69_linear_427_4359)"/>
<path d="M201.19 139.236C207.796 127.794 203.858 113.153 192.395 106.535C180.931 99.9167 166.283 103.827 159.677 115.268C153.071 126.71 157.009 141.351 168.473 147.969C179.936 154.588 194.584 150.677 201.19 139.236Z" fill="url(#paint70_linear_427_4359)"/>
<path d="M199.766 140.906C206.372 129.464 202.434 114.823 190.971 108.205C179.508 101.587 164.86 105.497 158.254 116.939C151.648 128.38 155.586 143.021 167.049 149.639C178.512 156.258 193.16 152.347 199.766 140.906Z" fill="url(#paint71_linear_427_4359)"/>
<path d="M198.401 142.586C205.007 131.145 201.07 116.504 189.606 109.886C178.143 103.267 163.495 107.177 156.889 118.619C150.283 130.061 154.221 144.701 165.684 151.32C177.148 157.938 191.796 154.028 198.401 142.586Z" fill="url(#paint72_linear_427_4359)"/>
<path d="M197.082 144.281C203.687 132.839 199.75 118.199 188.286 111.58C176.823 104.962 162.175 108.872 155.569 120.314C148.963 131.755 152.901 146.396 164.364 153.014C175.828 159.633 190.476 155.723 197.082 144.281Z" fill="url(#paint73_linear_427_4359)"/>
<path d="M195.818 145.99C202.424 134.549 198.486 119.908 187.023 113.29C175.559 106.671 160.911 110.581 154.305 122.023C147.7 133.465 151.637 148.105 163.101 154.724C174.564 161.342 189.212 157.432 195.818 145.99Z" fill="url(#paint74_linear_427_4359)"/>
<path d="M194.602 147.709C201.207 136.268 197.27 121.627 185.806 115.009C174.343 108.39 159.695 112.301 153.089 123.742C146.483 135.184 150.421 149.825 161.884 156.443C173.348 163.061 187.996 159.151 194.602 147.709Z" fill="url(#paint75_linear_427_4359)"/>
<path d="M193.43 149.443C200.036 138.001 196.098 123.36 184.635 116.742C173.171 110.124 158.523 114.034 151.918 125.476C145.312 136.917 149.249 151.558 160.713 158.176C172.176 164.795 186.824 160.884 193.43 149.443Z" fill="url(#paint76_linear_427_4359)"/>
<path d="M192.306 151.186C198.912 139.744 194.974 125.103 183.511 118.485C172.047 111.867 157.399 115.777 150.794 127.219C144.188 138.66 148.125 153.301 159.589 159.919C171.052 166.538 185.7 162.627 192.306 151.186Z" fill="url(#paint77_linear_427_4359)"/>
<path d="M191.22 152.945C197.826 141.503 193.888 126.862 182.425 120.244C170.961 113.626 156.313 117.536 149.707 128.978C143.101 140.419 147.039 155.06 158.503 161.678C169.966 168.297 184.614 164.386 191.22 152.945Z" fill="url(#paint78_linear_427_4359)"/>
<path d="M190.181 154.713C196.787 143.272 192.849 128.631 181.386 122.013C169.922 115.394 155.274 119.305 148.669 130.746C142.063 142.188 146 156.829 157.464 163.447C168.927 170.065 183.575 166.155 190.181 154.713Z" fill="url(#paint79_linear_427_4359)"/>
<path d="M189.181 156.487C195.787 145.045 191.849 130.405 180.385 123.786C168.922 117.168 154.274 121.078 147.668 132.52C141.062 143.961 145 158.602 156.463 165.22C167.927 171.839 182.575 167.929 189.181 156.487Z" fill="url(#paint80_linear_427_4359)"/>
<path d="M188.214 158.274C194.82 146.832 190.882 132.191 179.418 125.573C167.955 118.955 153.307 122.865 146.701 134.306C140.095 145.748 144.033 160.389 155.496 167.007C166.96 173.625 181.608 169.715 188.214 158.274Z" fill="url(#paint81_linear_427_4359)"/>
<path d="M187.283 160.069C193.889 148.628 189.951 133.987 178.488 127.369C167.024 120.75 152.376 124.661 145.771 136.102C139.165 147.544 143.102 162.185 154.566 168.803C166.029 175.421 180.677 171.511 187.283 160.069Z" fill="url(#paint82_linear_427_4359)"/>
<path d="M186.391 161.87C192.997 150.428 189.059 135.788 177.595 129.169C166.132 122.551 151.484 126.461 144.878 137.903C138.272 149.344 142.21 163.985 153.673 170.603C165.137 177.222 179.785 173.312 186.391 161.87Z" fill="url(#paint83_linear_427_4359)"/>
<path d="M185.527 163.681C192.133 152.24 188.196 137.599 176.732 130.981C165.269 124.362 150.621 128.272 144.015 139.714C137.409 151.156 141.347 165.796 152.81 172.415C164.274 179.033 178.922 175.123 185.527 163.681Z" fill="url(#paint84_linear_427_4359)"/>
<path d="M184.693 165.503C191.299 154.062 187.361 139.421 175.898 132.803C164.435 126.184 149.787 130.095 143.181 141.536C136.575 152.978 140.513 167.619 151.976 174.237C163.439 180.855 178.087 176.945 184.693 165.503Z" fill="url(#paint85_linear_427_4359)"/>
<path d="M183.893 167.328C190.499 155.886 186.561 141.245 175.098 134.627C163.635 128.009 148.987 131.919 142.381 143.361C135.775 154.802 139.713 169.443 151.176 176.061C162.639 182.68 177.287 178.769 183.893 167.328Z" fill="url(#paint86_linear_427_4359)"/>
<path d="M183.118 169.16C189.724 157.719 185.786 143.078 174.322 136.46C162.859 129.841 148.211 133.751 141.605 145.193C134.999 156.635 138.937 171.275 150.401 177.894C161.864 184.512 176.512 180.602 183.118 169.16Z" fill="url(#paint87_linear_427_4359)"/>
<path d="M182.367 171.001C188.973 159.56 185.035 144.919 173.572 138.301C162.108 131.682 147.46 135.592 140.855 147.034C134.249 158.476 138.186 173.116 149.65 179.735C161.113 186.353 175.761 182.443 182.367 171.001Z" fill="url(#paint88_linear_427_4359)"/>
<path d="M181.639 172.844C188.245 161.402 184.307 146.762 172.844 140.143C161.38 133.525 146.732 137.435 140.127 148.877C133.521 160.318 137.458 174.959 148.922 181.577C160.385 188.196 175.033 184.285 181.639 172.844Z" fill="url(#paint89_linear_427_4359)"/>
<path d="M180.935 174.694C187.541 163.253 183.603 148.612 172.14 141.994C160.677 135.375 146.029 139.286 139.423 150.727C132.817 162.169 136.755 176.81 148.218 183.428C159.681 190.046 174.329 186.136 180.935 174.694Z" fill="url(#paint90_linear_427_4359)"/>
<path d="M180.248 176.548C186.854 165.107 182.916 150.466 171.453 143.848C159.989 137.229 145.341 141.139 138.735 152.581C132.13 164.023 136.067 178.663 147.531 185.282C158.994 191.9 173.642 187.99 180.248 176.548Z" fill="url(#paint91_linear_427_4359)"/>
<path d="M179.58 178.408C186.186 166.966 182.248 152.326 170.785 145.708C159.322 139.089 144.674 142.999 138.068 154.441C131.462 165.883 135.4 180.523 146.863 187.142C158.327 193.76 172.974 189.85 179.58 178.408Z" fill="url(#paint92_linear_427_4359)"/>
<path d="M178.929 180.271C185.535 168.829 181.597 154.189 170.134 147.571C158.67 140.952 144.022 144.862 137.416 156.304C130.81 167.746 134.748 182.386 146.212 189.005C157.675 195.623 172.323 191.713 178.929 180.271Z" fill="url(#paint93_linear_427_4359)"/>
<path d="M178.291 182.13C184.897 170.689 180.959 156.048 169.496 149.43C158.032 142.811 143.384 146.721 136.779 158.163C130.173 169.605 134.111 184.245 145.574 190.864C157.037 197.482 171.685 193.572 178.291 182.13Z" fill="url(#paint94_linear_427_4359)"/>
<path d="M177.667 183.997C184.272 172.556 180.335 157.915 168.871 151.297C157.408 144.678 142.76 148.588 136.154 160.03C129.548 171.472 133.486 186.112 144.949 192.731C156.413 199.349 171.061 195.439 177.667 183.997Z" fill="url(#paint95_linear_427_4359)"/>
<path d="M177.054 185.865C183.659 174.423 179.722 159.783 168.258 153.164C156.795 146.546 142.147 150.456 135.541 161.898C128.935 173.339 132.873 187.98 144.336 194.598C155.8 201.217 170.448 197.307 177.054 185.865Z" fill="url(#paint96_linear_427_4359)"/>
<path d="M176.449 187.738C183.055 176.296 179.117 161.655 167.654 155.037C156.191 148.419 141.543 152.329 134.937 163.77C128.331 175.212 132.269 189.853 143.732 196.471C155.195 203.089 169.843 199.179 176.449 187.738Z" fill="url(#paint97_linear_427_4359)"/>
<path d="M175.852 189.608C182.458 178.167 178.52 163.526 167.057 156.908C155.593 150.289 140.945 154.2 134.339 165.641C127.734 177.083 131.671 191.724 143.135 198.342C154.598 204.96 169.246 201.05 175.852 189.608Z" fill="url(#paint98_linear_427_4359)"/>
<path d="M175.262 191.477C181.867 180.036 177.93 165.395 166.466 158.777C155.003 152.158 140.355 156.069 133.749 167.51C127.143 178.952 131.081 193.593 142.544 200.211C154.008 206.829 168.656 202.919 175.262 191.477Z" fill="url(#paint99_linear_427_4359)"/>
<path d="M174.676 193.349C181.281 181.907 177.344 167.267 165.88 160.648C154.417 154.03 139.769 157.94 133.163 169.382C126.557 180.823 130.495 195.464 141.958 202.082C153.422 208.701 168.07 204.791 174.676 193.349Z" fill="url(#paint100_linear_427_4359)"/>
<path d="M174.09 195.221C180.696 183.779 176.758 169.138 165.294 162.52C153.831 155.902 139.183 159.812 132.577 171.253C125.971 182.695 129.909 197.336 141.372 203.954C152.836 210.572 167.484 206.662 174.09 195.221Z" fill="url(#paint101_linear_427_4359)"/>
<path d="M173.504 197.092C180.11 185.65 176.172 171.01 164.708 164.391C153.245 157.773 138.597 161.683 131.991 173.125C125.385 184.567 129.323 199.207 140.786 205.825C152.25 212.444 166.898 208.534 173.504 197.092Z" fill="url(#paint102_linear_427_4359)"/>
<path d="M172.92 198.959C179.526 187.517 175.589 172.877 164.125 166.259C152.662 159.64 138.014 163.55 131.408 174.992C124.802 186.434 128.74 201.074 140.203 207.693C151.667 214.311 166.315 210.401 172.92 198.959Z" fill="url(#paint103_linear_427_4359)"/>
<path d="M172.328 200.821C178.934 189.38 174.996 174.739 163.533 168.121C152.07 161.502 137.422 165.412 130.816 176.854C124.21 188.296 128.148 202.936 139.611 209.555C151.074 216.173 165.722 212.263 172.328 200.821Z" fill="url(#paint104_linear_427_4359)"/>
<path d="M171.733 202.688C178.339 191.246 174.402 176.605 162.938 169.987C151.475 163.369 136.827 167.279 130.221 178.72C123.615 190.162 127.553 204.803 139.016 211.421C150.48 218.039 165.128 214.129 171.733 202.688Z" fill="url(#paint105_linear_427_4359)"/>
<path d="M171.132 204.545C177.738 193.103 173.8 178.462 162.337 171.844C150.874 165.226 136.226 169.136 129.62 180.577C123.014 192.019 126.952 206.66 138.415 213.278C149.879 219.896 164.527 215.986 171.132 204.545Z" fill="url(#paint106_linear_427_4359)"/>
<path d="M170.524 206.403C177.13 194.962 173.193 180.321 161.729 173.703C150.266 167.084 135.618 170.994 129.012 182.436C122.406 193.878 126.344 208.518 137.807 215.137C149.271 221.755 163.919 217.845 170.524 206.403Z" fill="url(#paint107_linear_427_4359)"/>
<path d="M169.903 208.255C176.509 196.813 172.571 182.172 161.108 175.554C149.645 168.936 134.997 172.846 128.391 184.287C121.785 195.729 125.723 210.37 137.186 216.988C148.649 223.606 163.297 219.696 169.903 208.255Z" fill="url(#paint108_linear_427_4359)"/>
<path d="M169.273 210.101C175.879 198.659 171.941 184.018 160.478 177.4C149.015 170.782 134.367 174.692 127.761 186.133C121.155 197.575 125.093 212.216 136.556 218.834C148.019 225.452 162.667 221.542 169.273 210.101Z" fill="url(#paint109_linear_427_4359)"/>
<path d="M168.623 211.941C175.229 200.499 171.291 185.859 159.828 179.24C148.364 172.622 133.716 176.532 127.11 187.974C120.505 199.415 124.442 214.056 135.906 220.674C147.369 227.293 162.017 223.383 168.623 211.941Z" fill="url(#paint110_linear_427_4359)"/>
<path d="M167.961 213.78C174.567 202.339 170.629 187.698 159.166 181.08C147.703 174.461 133.055 178.371 126.449 189.813C119.843 201.255 123.781 215.895 135.244 222.514C146.707 229.132 161.355 225.222 167.961 213.78Z" fill="url(#paint111_linear_427_4359)"/>
<path d="M167.282 215.61C173.888 204.168 169.95 189.527 158.487 182.909C147.023 176.291 132.375 180.201 125.769 191.643C119.163 203.084 123.101 217.725 134.565 224.343C146.028 230.962 160.676 227.051 167.282 215.61Z" fill="url(#paint112_linear_427_4359)"/>
<path d="M166.582 217.433C173.188 205.992 169.25 191.351 157.787 184.733C146.324 178.114 131.676 182.024 125.07 193.466C118.464 204.908 122.402 219.548 133.865 226.167C145.328 232.785 159.976 228.875 166.582 217.433Z" fill="url(#paint113_linear_427_4359)"/>
<path d="M165.865 219.247C172.471 207.805 168.533 193.164 157.07 186.546C145.606 179.928 130.958 183.838 124.353 195.279C117.747 206.721 121.684 221.362 133.148 227.98C144.611 234.598 159.259 230.688 165.865 219.247Z" fill="url(#paint114_linear_427_4359)"/>
<path d="M165.121 221.056C171.727 209.614 167.789 194.974 156.325 188.355C144.862 181.737 130.214 185.647 123.608 197.089C117.002 208.531 120.94 223.171 132.403 229.79C143.867 236.408 158.515 232.498 165.121 221.056Z" fill="url(#paint115_linear_427_4359)"/>
<path d="M164.352 222.857C170.958 211.416 167.02 196.775 155.557 190.157C144.093 183.538 129.445 187.448 122.839 198.89C116.234 210.332 120.171 224.972 131.635 231.591C143.098 238.209 157.746 234.299 164.352 222.857Z" fill="url(#paint116_linear_427_4359)"/>
<path d="M163.556 224.643C170.162 213.201 166.224 198.561 154.761 191.942C143.298 185.324 128.65 189.234 122.044 200.676C115.438 212.117 119.376 226.758 130.839 233.376C142.302 239.995 156.95 236.085 163.556 224.643Z" fill="url(#paint117_linear_427_4359)"/>
<path d="M162.733 226.425C169.339 214.983 165.402 200.343 153.938 193.724C142.475 187.106 127.827 191.016 121.221 202.458C114.615 213.899 118.553 228.54 130.016 235.158C141.48 241.777 156.128 237.867 162.733 226.425Z" fill="url(#paint118_linear_427_4359)"/>
<path d="M161.882 228.196C168.488 216.754 164.55 202.114 153.087 195.495C141.623 188.877 126.975 192.787 120.369 204.229C113.764 215.67 117.701 230.311 129.165 236.929C140.628 243.548 155.276 239.638 161.882 228.196Z" fill="url(#paint119_linear_427_4359)"/>
<path d="M160.999 229.96C167.604 218.519 163.667 203.878 152.203 197.26C140.74 190.641 126.092 194.551 119.486 205.993C112.88 217.435 116.818 232.075 128.281 238.694C139.745 245.312 154.393 241.402 160.999 229.96Z" fill="url(#paint120_linear_427_4359)"/>
<path d="M160.082 231.711C166.688 220.27 162.75 205.629 151.287 199.011C139.823 192.392 125.175 196.302 118.569 207.744C111.964 219.186 115.901 233.826 127.365 240.445C138.828 247.063 153.476 243.153 160.082 231.711Z" fill="url(#paint121_linear_427_4359)"/>
<path d="M159.127 233.446C165.733 222.005 161.795 207.364 150.332 200.746C138.869 194.127 124.221 198.038 117.615 209.479C111.009 220.921 114.947 235.562 126.41 242.18C137.873 248.798 152.521 244.888 159.127 233.446Z" fill="url(#paint122_linear_427_4359)"/>
<path d="M158.141 235.175C164.747 223.733 160.809 209.093 149.346 202.474C137.882 195.856 123.234 199.766 116.628 211.208C110.023 222.65 113.96 237.29 125.424 243.908C136.887 250.527 151.535 246.617 158.141 235.175Z" fill="url(#paint123_linear_427_4359)"/>
<path d="M157.11 236.889C163.716 225.448 159.778 210.807 148.315 204.189C136.851 197.57 122.203 201.481 115.597 212.922C108.992 224.364 112.929 239.005 124.393 245.623C135.856 252.241 150.504 248.331 157.11 236.889Z" fill="url(#paint124_linear_427_4359)"/>
<path d="M156.038 238.592C162.644 227.151 158.706 212.51 147.243 205.892C135.78 199.273 121.132 203.183 114.526 214.625C107.92 226.067 111.858 240.707 123.321 247.326C134.785 253.944 149.433 250.034 156.038 238.592Z" fill="url(#paint125_linear_427_4359)"/>
<path d="M154.929 240.279C161.535 228.838 157.597 214.197 146.134 207.579C134.67 200.96 120.022 204.87 113.417 216.312C106.811 227.754 110.748 242.394 122.212 249.013C133.675 255.631 148.323 251.721 154.929 240.279Z" fill="url(#paint126_linear_427_4359)"/>
<path d="M153.772 241.956C160.378 230.515 156.44 215.874 144.977 209.256C133.514 202.637 118.866 206.547 112.26 217.989C105.654 229.431 109.592 244.071 121.055 250.69C132.518 257.308 147.166 253.398 153.772 241.956Z" fill="url(#paint127_linear_427_4359)"/>
<path d="M152.569 243.612C159.175 232.171 155.237 217.53 143.774 210.912C132.31 204.293 117.662 208.204 111.056 219.645C104.451 231.087 108.388 245.728 119.852 252.346C131.315 258.964 145.963 255.054 152.569 243.612Z" fill="url(#paint128_linear_427_4359)"/>
<path d="M151.318 245.259C157.924 233.817 153.986 219.177 142.523 212.558C131.06 205.94 116.412 209.85 109.806 221.292C103.2 232.733 107.138 247.374 118.601 253.992C130.064 260.611 144.712 256.7 151.318 245.259Z" fill="url(#paint129_linear_427_4359)"/>
<path d="M150.023 246.891C156.628 235.449 152.691 220.809 141.227 214.19C129.764 207.572 115.116 211.482 108.51 222.924C101.904 234.366 105.842 249.006 117.305 255.624C128.769 262.243 143.417 258.333 150.023 246.891Z" fill="url(#paint130_linear_427_4359)"/>
<path d="M148.669 248.501C155.275 237.06 151.337 222.419 139.874 215.801C128.41 209.182 113.762 213.093 107.156 224.534C100.55 235.976 104.488 250.616 115.952 257.235C127.415 263.853 142.063 259.943 148.669 248.501Z" fill="url(#paint131_linear_427_4359)"/>
<path d="M147.268 250.102C153.873 238.66 149.936 224.02 138.472 217.401C127.009 210.783 112.361 214.693 105.755 226.135C99.1493 237.577 103.087 252.217 114.55 258.836C126.014 265.454 140.662 261.544 147.268 250.102Z" fill="url(#paint132_linear_427_4359)"/>
<path d="M145.808 251.681C152.414 240.239 148.477 225.599 137.013 218.98C125.55 212.362 110.902 216.272 104.296 227.714C97.6901 239.156 101.628 253.796 113.091 260.414C124.555 267.033 139.203 263.123 145.808 251.681Z" fill="url(#paint133_linear_427_4359)"/>
<path d="M144.293 253.245C150.899 241.803 146.961 227.163 135.498 220.545C124.034 213.926 109.386 217.836 102.781 229.278C96.1747 240.72 100.112 255.36 111.576 261.979C123.039 268.597 137.687 264.687 144.293 253.245Z" fill="url(#paint134_linear_427_4359)"/>
<path d="M142.72 254.788C149.325 243.346 145.388 228.705 133.924 222.087C122.461 215.468 107.813 219.379 101.207 230.82C94.6012 242.262 98.539 256.903 110.002 263.521C121.466 270.139 136.114 266.229 142.72 254.788Z" fill="url(#paint135_linear_427_4359)"/>
<path d="M141.085 256.312C147.691 244.871 143.753 230.23 132.29 223.612C120.827 216.993 106.179 220.904 99.5728 232.345C92.9669 243.787 96.9047 258.428 108.368 265.046C119.831 271.664 134.479 267.754 141.085 256.312Z" fill="url(#paint136_linear_427_4359)"/>
<path d="M139.391 257.82C145.997 246.378 142.059 231.738 130.595 225.119C119.132 218.501 104.484 222.411 97.8782 233.853C91.2724 245.294 95.2101 259.935 106.673 266.553C118.137 273.172 132.785 269.262 139.391 257.82Z" fill="url(#paint137_linear_427_4359)"/>
<path d="M137.631 259.308C144.237 247.866 140.299 233.225 128.835 226.607C117.372 219.989 102.724 223.899 96.1182 235.34C89.5123 246.782 93.4501 261.423 104.913 268.041C116.377 274.659 131.025 270.749 137.631 259.308Z" fill="url(#paint138_linear_427_4359)"/>
<path d="M135.799 260.777C142.405 249.336 138.467 234.695 127.004 228.077C115.54 221.458 100.892 225.368 94.2864 236.81C87.6806 248.252 91.6183 262.892 103.082 269.511C114.545 276.129 129.193 272.219 135.799 260.777Z" fill="url(#paint139_linear_427_4359)"/>
<path d="M133.94 262.202C140.546 250.76 136.608 236.12 125.145 229.501C113.681 222.883 99.0334 226.793 92.4275 238.235C85.8217 249.676 89.7594 264.317 101.223 270.935C112.686 277.554 127.334 273.644 133.94 262.202Z" fill="url(#paint140_linear_427_4359)"/>
<path d="M132.057 263.566C138.663 252.124 134.726 237.483 123.262 230.865C111.799 224.247 97.1508 228.157 90.545 239.598C83.9391 251.04 87.8769 265.681 99.3402 272.299C110.804 278.917 125.452 275.007 132.057 263.566Z" fill="url(#paint141_linear_427_4359)"/>
<path d="M130.16 264.874C136.766 253.432 132.828 238.792 121.365 232.173C109.901 225.555 95.2534 229.465 88.6475 240.907C82.0416 252.348 85.9794 266.989 97.4427 273.607C108.906 280.226 123.554 276.316 130.16 264.874Z" fill="url(#paint142_linear_427_4359)"/>
<path d="M128.245 266.131C134.851 254.689 130.913 240.049 119.449 233.43C107.986 226.812 93.3381 230.722 86.7322 242.164C80.1264 253.605 84.0641 268.246 95.5275 274.864C106.991 281.483 121.639 277.573 128.245 266.131Z" fill="url(#paint143_linear_427_4359)"/>
<path d="M126.315 267.332C132.921 255.89 128.983 241.25 117.52 234.631C106.056 228.013 91.4082 231.923 84.8023 243.365C78.1964 254.807 82.1342 269.447 93.5975 276.065C105.061 282.684 119.709 278.774 126.315 267.332Z" fill="url(#paint144_linear_427_4359)"/>
<path d="M124.367 268.482C130.973 257.04 127.035 242.4 115.572 235.781C104.108 229.163 89.4604 233.073 82.8545 244.515C76.2487 255.957 80.1864 270.597 91.6498 277.216C103.113 283.834 117.761 279.924 124.367 268.482Z" fill="url(#paint145_linear_427_4359)"/>
<path d="M122.413 269.582C129.019 258.14 125.081 243.499 113.618 236.881C102.155 230.263 87.5068 234.173 80.9009 245.614C74.2951 257.056 78.2328 271.697 89.6962 278.315C101.16 284.933 115.808 281.023 122.413 269.582Z" fill="url(#paint146_linear_427_4359)"/>
<path d="M120.442 270.63C127.048 259.188 123.11 244.547 111.647 237.929C100.183 231.311 85.5354 235.221 78.9295 246.663C72.3236 258.104 76.2614 272.745 87.7247 279.363C99.1881 285.982 113.836 282.071 120.442 270.63Z" fill="url(#paint147_linear_427_4359)"/>
<path d="M118.46 271.625C125.066 260.183 121.128 245.543 109.665 238.924C98.2017 232.306 83.5537 236.216 76.9478 247.658C70.3419 259.099 74.2797 273.74 85.743 280.358C97.2064 286.977 111.854 283.067 118.46 271.625Z" fill="url(#paint148_linear_427_4359)"/>
<path d="M116.471 272.581C123.077 261.139 119.14 246.498 107.676 239.88C96.2129 233.262 81.5649 237.172 74.959 248.613C68.3532 260.055 72.2909 274.696 83.7543 281.314C95.2176 287.933 109.866 284.022 116.471 272.581Z" fill="url(#paint149_linear_427_4359)"/>
<path d="M114.472 273.483C121.078 262.042 117.141 247.401 105.677 240.783C94.2139 234.164 79.5659 238.075 72.96 249.516C66.3541 260.958 70.2919 275.599 81.7553 282.217C93.2186 288.835 107.867 284.925 114.472 273.483Z" fill="url(#paint150_linear_427_4359)"/>
<path d="M112.469 274.343C119.075 262.901 115.137 248.26 103.674 241.642C92.2105 235.024 77.5625 238.934 70.9566 250.375C64.3507 261.817 68.2885 276.458 79.7518 283.076C91.2152 289.694 105.863 285.784 112.469 274.343Z" fill="url(#paint151_linear_427_4359)"/>
<path d="M110.457 275.156C117.063 263.714 113.125 249.073 101.662 242.455C90.1982 235.837 75.5503 239.747 68.9444 251.188C62.3385 262.63 66.2763 277.271 77.7396 283.889C89.203 290.507 103.851 286.597 110.457 275.156Z" fill="url(#paint152_linear_427_4359)"/>
<path d="M108.44 275.925C115.046 264.483 111.109 249.843 99.6452 243.224C88.1819 236.606 73.5339 240.516 66.928 251.958C60.3222 263.4 64.2599 278.04 75.7233 284.659C87.1866 291.277 101.835 287.367 108.44 275.925Z" fill="url(#paint153_linear_427_4359)"/>
<path d="M106.42 276.651C113.026 265.209 109.088 250.569 97.6245 243.95C86.1611 237.332 71.5131 241.242 64.9073 252.684C58.3014 264.125 62.2392 278.766 73.7025 285.384C85.1659 292.003 99.8139 288.093 106.42 276.651Z" fill="url(#paint154_linear_427_4359)"/>
<path d="M104.399 277.336C111.005 265.894 107.067 251.253 95.604 244.635C84.1406 238.017 69.4926 241.927 62.8868 253.368C56.2809 264.81 60.2187 279.451 71.682 286.069C83.1454 292.687 97.7933 288.777 104.399 277.336Z" fill="url(#paint155_linear_427_4359)"/>
<path d="M102.379 277.979C108.985 266.538 105.047 251.897 93.5837 245.279C82.1204 238.66 67.4724 242.57 60.8665 254.012C54.2606 265.454 58.1984 280.094 69.6617 286.713C81.1251 293.331 95.7731 289.421 102.379 277.979Z" fill="url(#paint156_linear_427_4359)"/>
<path d="M100.356 278.586C106.962 267.145 103.024 252.504 91.5608 245.886C80.0974 239.267 65.4494 243.178 58.8436 254.619C52.2377 266.061 56.1754 280.702 67.6388 287.32C79.1021 293.938 93.7501 290.028 100.356 278.586Z" fill="url(#paint157_linear_427_4359)"/>
<path d="M98.3379 279.155C104.944 267.713 101.006 253.073 89.5427 246.454C78.0794 239.836 63.4314 243.746 56.8255 255.188C50.2196 266.63 54.1574 281.27 65.6207 287.888C77.0841 294.507 91.7321 290.597 98.3379 279.155Z" fill="url(#paint158_linear_427_4359)"/>
<path d="M96.3199 279.683C102.926 268.241 98.988 253.6 87.5246 246.982C76.0613 240.364 61.4133 244.274 54.8074 255.715C48.2016 267.157 52.1393 281.798 63.6027 288.416C75.066 295.034 89.714 291.124 96.3199 279.683Z" fill="url(#paint159_linear_427_4359)"/>
<path d="M94.3038 280.176C100.91 268.734 96.9719 254.094 85.5085 247.475C74.0452 240.857 59.3972 244.767 52.7913 256.209C46.1854 267.65 50.1232 282.291 61.5865 288.909C73.0499 295.528 87.6979 291.618 94.3038 280.176Z" fill="url(#paint160_linear_427_4359)"/>
<path d="M92.2967 280.633C98.9026 269.192 94.9648 254.551 83.5014 247.933C72.0381 241.314 57.3901 245.224 50.7842 256.666C44.1784 268.108 48.1161 282.748 59.5795 289.367C71.0428 295.985 85.6908 292.075 92.2967 280.633Z" fill="url(#paint161_linear_427_4359)"/>
<path d="M90.2962 281.059C96.9021 269.618 92.9643 254.977 81.501 248.359C70.0376 241.74 55.3896 245.65 48.7837 257.092C42.1779 268.534 46.1156 283.174 57.579 289.793C69.0423 296.411 83.6903 292.501 90.2962 281.059Z" fill="url(#paint162_linear_427_4359)"/>
<path d="M88.2977 281.451C94.9035 270.009 90.9658 255.369 79.5024 248.75C68.0391 242.132 53.3911 246.042 46.7852 257.484C40.1793 268.926 44.1171 283.566 55.5804 290.185C67.0438 296.803 81.6918 292.893 88.2977 281.451Z" fill="url(#paint163_linear_427_4359)"/>
<path d="M86.3123 281.81C92.9182 270.368 88.9804 255.727 77.5171 249.109C66.0537 242.491 51.4057 246.401 44.7999 257.842C38.194 269.284 42.1317 283.925 53.5951 290.543C65.0584 297.161 79.7064 293.251 86.3123 281.81Z" fill="url(#paint164_linear_427_4359)"/>
<path d="M84.3382 282.139C90.9441 270.697 87.0063 256.057 75.5429 249.438C64.0796 242.82 49.4316 246.73 42.8257 258.172C36.2199 269.613 40.1576 284.254 51.621 290.872C63.0843 297.491 77.7323 293.581 84.3382 282.139Z" fill="url(#paint165_linear_427_4359)"/>
<path d="M82.3746 282.439C88.9804 270.998 85.0427 256.357 73.5793 249.739C62.116 243.12 47.468 247.03 40.8621 258.472C34.2562 269.914 38.194 284.554 49.6573 291.173C61.1207 297.791 75.7687 293.881 82.3746 282.439Z" fill="url(#paint166_linear_427_4359)"/>
<path d="M80.4246 282.706C87.0305 271.265 83.0927 256.624 71.6294 250.006C60.166 243.387 45.518 247.297 38.9122 258.739C32.3063 270.181 36.2441 284.821 47.7074 291.44C59.1707 298.058 73.8187 294.148 80.4246 282.706Z" fill="url(#paint167_linear_427_4359)"/>
<path d="M78.4827 282.949C85.0886 271.507 81.1508 256.867 69.6875 250.248C58.2241 243.63 43.5761 247.54 36.9703 258.982C30.3644 270.423 34.3022 285.064 45.7655 291.682C57.2288 298.301 71.8768 294.39 78.4827 282.949Z" fill="url(#paint168_linear_427_4359)"/>
<path d="M76.5606 283.167C83.1665 271.726 79.2287 257.085 67.7654 250.467C56.302 243.848 41.654 247.758 35.0481 259.2C28.4423 270.642 32.38 285.282 43.8434 291.901C55.3067 298.519 69.9547 294.609 76.5606 283.167Z" fill="url(#paint169_linear_427_4359)"/>
<path d="M74.6563 283.355C81.2622 271.913 77.3244 257.273 65.8611 250.654C54.3977 244.036 39.7497 247.946 33.1438 259.388C26.538 270.829 30.4757 285.47 41.9391 292.088C53.4024 298.707 68.0504 294.797 74.6563 283.355Z" fill="url(#paint170_linear_427_4359)"/>
<path d="M72.7647 283.521C79.3706 272.079 75.4328 257.438 63.9695 250.82C52.5061 244.202 37.8581 248.112 31.2522 259.553C24.6464 270.995 28.5841 285.636 40.0475 292.254C51.5108 298.872 66.1588 294.962 72.7647 283.521Z" fill="url(#paint171_linear_427_4359)"/>
<path d="M70.8929 283.662C77.4987 272.221 73.561 257.58 62.0976 250.962C50.6343 244.343 35.9863 248.253 29.3804 259.695C22.7745 271.137 26.7123 285.777 38.1757 292.396C49.639 299.014 64.287 295.104 70.8929 283.662Z" fill="url(#paint172_linear_427_4359)"/>
<path d="M69.0425 283.787C75.6484 272.345 71.7106 257.705 60.2473 251.086C48.7839 244.468 34.1359 248.378 27.5301 259.82C20.9242 271.262 24.862 285.902 36.3253 292.521C47.7887 299.139 62.4367 295.229 69.0425 283.787Z" fill="url(#paint173_linear_427_4359)"/>
<path d="M67.2146 283.884C73.8205 272.442 69.8828 257.801 58.4194 251.183C46.9561 244.565 32.3081 248.475 25.7022 259.916C19.0963 271.358 23.0341 285.999 34.4974 292.617C45.9608 299.235 60.6088 295.325 67.2146 283.884Z" fill="url(#paint174_linear_427_4359)"/>
<path d="M65.4036 283.961C72.0095 272.519 68.0717 257.878 56.6084 251.26C45.145 244.642 30.497 248.552 23.8912 259.993C17.2853 271.435 21.2231 286.076 32.6864 292.694C44.1497 299.312 58.7977 295.402 65.4036 283.961Z" fill="url(#paint175_linear_427_4359)"/>
<path d="M63.6187 284.023C70.2246 272.581 66.2868 257.941 54.8235 251.323C43.3601 244.704 28.7121 248.614 22.1062 260.056C15.5004 271.498 19.4381 286.138 30.9015 292.757C42.3648 299.375 57.0128 295.465 63.6187 284.023Z" fill="url(#paint176_linear_427_4359)"/>
<path d="M61.8577 284.064C68.4636 272.623 64.5258 257.982 53.0625 251.364C41.5991 244.745 26.9511 248.656 20.3453 260.097C13.7394 271.539 17.6772 286.18 29.1405 292.798C40.6038 299.416 55.2518 295.506 61.8577 284.064Z" fill="url(#paint177_linear_427_4359)"/>
<path d="M60.1255 284.087C66.7314 272.645 62.7936 258.005 51.3303 251.386C39.8669 244.768 25.219 248.678 18.6131 260.12C12.0072 271.561 15.945 286.202 27.4083 292.82C38.8717 299.439 53.5197 295.529 60.1255 284.087Z" fill="url(#paint178_linear_427_4359)"/>
<path d="M58.4165 284.099C65.0224 272.658 61.0847 258.017 49.6213 251.399C38.158 244.78 23.51 248.69 16.9041 260.132C10.2982 271.574 14.236 286.214 25.6993 292.833C37.1627 299.451 51.8107 295.541 58.4165 284.099Z" fill="url(#paint179_linear_427_4359)"/>
<path d="M56.7405 284.096C63.3464 272.654 59.4086 258.013 47.9453 251.395C36.4819 244.777 21.8339 248.687 15.2281 260.128C8.6222 271.57 12.56 286.211 24.0233 292.829C35.4867 299.447 50.1347 295.537 56.7405 284.096Z" fill="url(#paint180_linear_427_4359)"/>
<path d="M55.0931 284.073C61.6989 272.631 57.7612 257.991 46.2978 251.372C34.8345 244.754 20.1865 248.664 13.5806 260.106C6.97474 271.548 10.9125 286.188 22.3759 292.806C33.8392 299.425 48.4872 295.515 55.0931 284.073Z" fill="url(#paint181_linear_427_4359)"/>
<path d="M53.4734 284.043C60.0793 272.601 56.1415 257.961 44.6782 251.342C33.2149 244.724 18.5669 248.634 11.961 260.076C5.35512 271.518 9.29288 286.158 20.7562 292.776C32.2196 299.395 46.8676 295.485 53.4734 284.043Z" fill="url(#paint182_linear_427_4359)"/>
</g>
<defs>
<linearGradient id="paint0_linear_427_4359" x1="292.066" y1="76.8045" x2="333.579" y2="100.772" gradientUnits="userSpaceOnUse">
<stop stop-color="#96E072"/>
<stop offset="1" stop-color="#3DA35D"/>
</linearGradient>
<linearGradient id="paint1_linear_427_4359" x1="288.808" y1="76.6042" x2="330.32" y2="100.571" gradientUnits="userSpaceOnUse">
<stop stop-color="#96E072"/>
<stop offset="1" stop-color="#3DA35D"/>
</linearGradient>
<linearGradient id="paint2_linear_427_4359" x1="285.602" y1="76.4344" x2="327.115" y2="100.402" gradientUnits="userSpaceOnUse">
<stop stop-color="#96E072"/>
<stop offset="1" stop-color="#3DA35D"/>
</linearGradient>
<linearGradient id="paint3_linear_427_4359" x1="282.443" y1="76.2972" x2="323.956" y2="100.264" gradientUnits="userSpaceOnUse">
<stop stop-color="#96E072"/>
<stop offset="1" stop-color="#3DA35D"/>
</linearGradient>
<linearGradient id="paint4_linear_427_4359" x1="279.332" y1="76.1879" x2="320.845" y2="100.155" gradientUnits="userSpaceOnUse">
<stop stop-color="#96E072"/>
<stop offset="1" stop-color="#3DA35D"/>
</linearGradient>
<linearGradient id="paint5_linear_427_4359" x1="276.272" y1="76.1137" x2="317.784" y2="100.081" gradientUnits="userSpaceOnUse">
<stop stop-color="#96E072"/>
<stop offset="1" stop-color="#3DA35D"/>
</linearGradient>
<linearGradient id="paint6_linear_427_4359" x1="273.261" y1="76.0675" x2="314.773" y2="100.035" gradientUnits="userSpaceOnUse">
<stop stop-color="#96E072"/>
<stop offset="1" stop-color="#3DA35D"/>
</linearGradient>
<linearGradient id="paint7_linear_427_4359" x1="270.29" y1="76.0513" x2="311.803" y2="100.018" gradientUnits="userSpaceOnUse">
<stop stop-color="#96E072"/>
<stop offset="1" stop-color="#3DA35D"/>
</linearGradient>
<linearGradient id="paint8_linear_427_4359" x1="267.373" y1="76.0656" x2="308.886" y2="100.033" gradientUnits="userSpaceOnUse">
<stop stop-color="#96E072"/>
<stop offset="1" stop-color="#3DA35D"/>
</linearGradient>
<linearGradient id="paint9_linear_427_4359" x1="264.5" y1="76.1054" x2="306.013" y2="100.073" gradientUnits="userSpaceOnUse">
<stop stop-color="#96E072"/>
<stop offset="1" stop-color="#3DA35D"/>
</linearGradient>
<linearGradient id="paint10_linear_427_4359" x1="261.676" y1="76.1733" x2="303.189" y2="100.141" gradientUnits="userSpaceOnUse">
<stop stop-color="#96E072"/>
<stop offset="1" stop-color="#3DA35D"/>
</linearGradient>
<linearGradient id="paint11_linear_427_4359" x1="258.898" y1="76.2736" x2="300.41" y2="100.241" gradientUnits="userSpaceOnUse">
<stop stop-color="#96E072"/>
<stop offset="1" stop-color="#3DA35D"/>
</linearGradient>
<linearGradient id="paint12_linear_427_4359" x1="256.164" y1="76.3994" x2="297.676" y2="100.367" gradientUnits="userSpaceOnUse">
<stop stop-color="#96E072"/>
<stop offset="1" stop-color="#3DA35D"/>
</linearGradient>
<linearGradient id="paint13_linear_427_4359" x1="253.474" y1="76.5507" x2="294.986" y2="100.518" gradientUnits="userSpaceOnUse">
<stop stop-color="#96E072"/>
<stop offset="1" stop-color="#3DA35D"/>
</linearGradient>
<linearGradient id="paint14_linear_427_4359" x1="250.828" y1="76.7275" x2="292.34" y2="100.695" gradientUnits="userSpaceOnUse">
<stop stop-color="#96E072"/>
<stop offset="1" stop-color="#3DA35D"/>
</linearGradient>
<linearGradient id="paint15_linear_427_4359" x1="248.231" y1="76.9324" x2="289.743" y2="100.9" gradientUnits="userSpaceOnUse">
<stop stop-color="#96E072"/>
<stop offset="1" stop-color="#3DA35D"/>
</linearGradient>
<linearGradient id="paint16_linear_427_4359" x1="245.67" y1="77.1646" x2="287.183" y2="101.132" gradientUnits="userSpaceOnUse">
<stop stop-color="#96E072"/>
<stop offset="1" stop-color="#3DA35D"/>
</linearGradient>
<linearGradient id="paint17_linear_427_4359" x1="243.157" y1="77.4179" x2="284.669" y2="101.385" gradientUnits="userSpaceOnUse">
<stop stop-color="#96E072"/>
<stop offset="1" stop-color="#3DA35D"/>
</linearGradient>
<linearGradient id="paint18_linear_427_4359" x1="240.688" y1="77.6967" x2="282.2" y2="101.664" gradientUnits="userSpaceOnUse">
<stop stop-color="#96E072"/>
<stop offset="1" stop-color="#3DA35D"/>
</linearGradient>
<linearGradient id="paint19_linear_427_4359" x1="238.263" y1="78.001" x2="279.775" y2="101.968" gradientUnits="userSpaceOnUse">
<stop stop-color="#96E072"/>
<stop offset="1" stop-color="#3DA35D"/>
</linearGradient>
<linearGradient id="paint20_linear_427_4359" x1="235.873" y1="78.3257" x2="277.386" y2="102.293" gradientUnits="userSpaceOnUse">
<stop stop-color="#96E072"/>
<stop offset="1" stop-color="#3DA35D"/>
</linearGradient>
<linearGradient id="paint21_linear_427_4359" x1="233.535" y1="78.6741" x2="275.047" y2="102.641" gradientUnits="userSpaceOnUse">
<stop stop-color="#96E072"/>
<stop offset="1" stop-color="#3DA35D"/>
</linearGradient>
<linearGradient id="paint22_linear_427_4359" x1="231.231" y1="79.0428" x2="272.744" y2="103.01" gradientUnits="userSpaceOnUse">
<stop stop-color="#96E072"/>
<stop offset="1" stop-color="#3DA35D"/>
</linearGradient>
<linearGradient id="paint23_linear_427_4359" x1="228.972" y1="79.437" x2="270.485" y2="103.404" gradientUnits="userSpaceOnUse">
<stop stop-color="#96E072"/>
<stop offset="1" stop-color="#3DA35D"/>
</linearGradient>
<linearGradient id="paint24_linear_427_4359" x1="226.749" y1="79.8516" x2="268.261" y2="103.819" gradientUnits="userSpaceOnUse">
<stop stop-color="#96E072"/>
<stop offset="1" stop-color="#3DA35D"/>
</linearGradient>
<linearGradient id="paint25_linear_427_4359" x1="224.567" y1="80.2848" x2="266.08" y2="104.252" gradientUnits="userSpaceOnUse">
<stop stop-color="#96E072"/>
<stop offset="1" stop-color="#3DA35D"/>
</linearGradient>
<linearGradient id="paint26_linear_427_4359" x1="222.43" y1="80.7435" x2="263.942" y2="104.711" gradientUnits="userSpaceOnUse">
<stop stop-color="#96E072"/>
<stop offset="1" stop-color="#3DA35D"/>
</linearGradient>
<linearGradient id="paint27_linear_427_4359" x1="220.324" y1="81.22" x2="261.836" y2="105.187" gradientUnits="userSpaceOnUse">
<stop stop-color="#96E072"/>
<stop offset="1" stop-color="#3DA35D"/>
</linearGradient>
<linearGradient id="paint28_linear_427_4359" x1="218.26" y1="81.715" x2="259.772" y2="105.682" gradientUnits="userSpaceOnUse">
<stop stop-color="#96E072"/>
<stop offset="1" stop-color="#3DA35D"/>
</linearGradient>
<linearGradient id="paint29_linear_427_4359" x1="216.238" y1="82.2286" x2="257.75" y2="106.196" gradientUnits="userSpaceOnUse">
<stop stop-color="#96E072"/>
<stop offset="1" stop-color="#3DA35D"/>
</linearGradient>
<linearGradient id="paint30_linear_427_4359" x1="214.251" y1="82.7626" x2="255.764" y2="106.73" gradientUnits="userSpaceOnUse">
<stop stop-color="#96E072"/>
<stop offset="1" stop-color="#3DA35D"/>
</linearGradient>
<linearGradient id="paint31_linear_427_4359" x1="212.303" y1="83.3126" x2="253.815" y2="107.28" gradientUnits="userSpaceOnUse">
<stop stop-color="#96E072"/>
<stop offset="1" stop-color="#3DA35D"/>
</linearGradient>
<linearGradient id="paint32_linear_427_4359" x1="210.392" y1="83.8785" x2="251.904" y2="107.846" gradientUnits="userSpaceOnUse">
<stop stop-color="#96E072"/>
<stop offset="1" stop-color="#3DA35D"/>
</linearGradient>
<linearGradient id="paint33_linear_427_4359" x1="208.517" y1="84.4649" x2="250.029" y2="108.432" gradientUnits="userSpaceOnUse">
<stop stop-color="#96E072"/>
<stop offset="1" stop-color="#3DA35D"/>
</linearGradient>
<linearGradient id="paint34_linear_427_4359" x1="206.679" y1="85.0673" x2="248.191" y2="109.034" gradientUnits="userSpaceOnUse">
<stop stop-color="#96E072"/>
<stop offset="1" stop-color="#3DA35D"/>
</linearGradient>
<linearGradient id="paint35_linear_427_4359" x1="204.875" y1="85.6831" x2="246.387" y2="109.65" gradientUnits="userSpaceOnUse">
<stop stop-color="#96E072"/>
<stop offset="1" stop-color="#3DA35D"/>
</linearGradient>
<linearGradient id="paint36_linear_427_4359" x1="203.109" y1="86.3149" x2="244.621" y2="110.282" gradientUnits="userSpaceOnUse">
<stop stop-color="#96E072"/>
<stop offset="1" stop-color="#3DA35D"/>
</linearGradient>
<linearGradient id="paint37_linear_427_4359" x1="201.374" y1="86.9645" x2="242.886" y2="110.932" gradientUnits="userSpaceOnUse">
<stop stop-color="#96E072"/>
<stop offset="1" stop-color="#3DA35D"/>
</linearGradient>
<linearGradient id="paint38_linear_427_4359" x1="199.679" y1="87.6257" x2="241.191" y2="111.593" gradientUnits="userSpaceOnUse">
<stop stop-color="#96E072"/>
<stop offset="1" stop-color="#3DA35D"/>
</linearGradient>
<linearGradient id="paint39_linear_427_4359" x1="198.015" y1="88.3048" x2="239.527" y2="112.272" gradientUnits="userSpaceOnUse">
<stop stop-color="#96E072"/>
<stop offset="1" stop-color="#3DA35D"/>
</linearGradient>
<linearGradient id="paint40_linear_427_4359" x1="196.387" y1="88.9929" x2="237.899" y2="112.96" gradientUnits="userSpaceOnUse">
<stop stop-color="#96E072"/>
<stop offset="1" stop-color="#3DA35D"/>
</linearGradient>
<linearGradient id="paint41_linear_427_4359" x1="194.792" y1="89.6944" x2="236.305" y2="113.662" gradientUnits="userSpaceOnUse">
<stop stop-color="#96E072"/>
<stop offset="1" stop-color="#3DA35D"/>
</linearGradient>
<linearGradient id="paint42_linear_427_4359" x1="193.229" y1="90.4138" x2="234.741" y2="114.381" gradientUnits="userSpaceOnUse">
<stop stop-color="#96E072"/>
<stop offset="1" stop-color="#3DA35D"/>
</linearGradient>
<linearGradient id="paint43_linear_427_4359" x1="191.697" y1="91.1396" x2="233.209" y2="115.107" gradientUnits="userSpaceOnUse">
<stop stop-color="#96E072"/>
<stop offset="1" stop-color="#3DA35D"/>
</linearGradient>
<linearGradient id="paint44_linear_427_4359" x1="190.203" y1="91.8815" x2="231.715" y2="115.849" gradientUnits="userSpaceOnUse">
<stop stop-color="#96E072"/>
<stop offset="1" stop-color="#3DA35D"/>
</linearGradient>
<linearGradient id="paint45_linear_427_4359" x1="188.736" y1="92.6273" x2="230.248" y2="116.595" gradientUnits="userSpaceOnUse">
<stop stop-color="#96E072"/>
<stop offset="1" stop-color="#3DA35D"/>
</linearGradient>
<linearGradient id="paint46_linear_427_4359" x1="187.3" y1="93.3909" x2="228.812" y2="117.358" gradientUnits="userSpaceOnUse">
<stop stop-color="#96E072"/>
<stop offset="1" stop-color="#3DA35D"/>
</linearGradient>
<linearGradient id="paint47_linear_427_4359" x1="185.896" y1="94.1611" x2="227.408" y2="118.128" gradientUnits="userSpaceOnUse">
<stop stop-color="#96E072"/>
<stop offset="1" stop-color="#3DA35D"/>
</linearGradient>
<linearGradient id="paint48_linear_427_4359" x1="184.527" y1="94.9402" x2="226.039" y2="118.907" gradientUnits="userSpaceOnUse">
<stop stop-color="#96E072"/>
<stop offset="1" stop-color="#3DA35D"/>
</linearGradient>
<linearGradient id="paint49_linear_427_4359" x1="183.181" y1="95.7321" x2="224.693" y2="119.699" gradientUnits="userSpaceOnUse">
<stop stop-color="#96E072"/>
<stop offset="1" stop-color="#3DA35D"/>
</linearGradient>
<linearGradient id="paint50_linear_427_4359" x1="181.866" y1="96.5305" x2="223.378" y2="120.498" gradientUnits="userSpaceOnUse">
<stop stop-color="#96E072"/>
<stop offset="1" stop-color="#3DA35D"/>
</linearGradient>
<linearGradient id="paint51_linear_427_4359" x1="180.587" y1="97.3379" x2="222.1" y2="121.305" gradientUnits="userSpaceOnUse">
<stop stop-color="#96E072"/>
<stop offset="1" stop-color="#3DA35D"/>
</linearGradient>
<linearGradient id="paint52_linear_427_4359" x1="179.329" y1="98.1511" x2="220.841" y2="122.118" gradientUnits="userSpaceOnUse">
<stop stop-color="#96E072"/>
<stop offset="1" stop-color="#3DA35D"/>
</linearGradient>
<linearGradient id="paint53_linear_427_4359" x1="178.102" y1="98.9708" x2="219.614" y2="122.938" gradientUnits="userSpaceOnUse">
<stop stop-color="#96E072"/>
<stop offset="1" stop-color="#3DA35D"/>
</linearGradient>
<linearGradient id="paint54_linear_427_4359" x1="176.906" y1="99.7969" x2="218.419" y2="123.764" gradientUnits="userSpaceOnUse">
<stop stop-color="#96E072"/>
<stop offset="1" stop-color="#3DA35D"/>
</linearGradient>
<linearGradient id="paint55_linear_427_4359" x1="175.736" y1="100.631" x2="217.248" y2="124.599" gradientUnits="userSpaceOnUse">
<stop stop-color="#96E072"/>
<stop offset="1" stop-color="#3DA35D"/>
</linearGradient>
<linearGradient id="paint56_linear_427_4359" x1="174.592" y1="101.47" x2="216.105" y2="125.437" gradientUnits="userSpaceOnUse">
<stop stop-color="#96E072"/>
<stop offset="1" stop-color="#3DA35D"/>
</linearGradient>
<linearGradient id="paint57_linear_427_4359" x1="173.478" y1="102.319" x2="214.99" y2="126.286" gradientUnits="userSpaceOnUse">
<stop stop-color="#96E072"/>
<stop offset="1" stop-color="#3DA35D"/>
</linearGradient>
<linearGradient id="paint58_linear_427_4359" x1="172.386" y1="103.17" x2="213.898" y2="127.137" gradientUnits="userSpaceOnUse">
<stop stop-color="#96E072"/>
<stop offset="1" stop-color="#3DA35D"/>
</linearGradient>
<linearGradient id="paint59_linear_427_4359" x1="171.324" y1="104.02" x2="212.836" y2="127.987" gradientUnits="userSpaceOnUse">
<stop stop-color="#96E072"/>
<stop offset="1" stop-color="#3DA35D"/>
</linearGradient>
<linearGradient id="paint60_linear_427_4359" x1="170.282" y1="104.876" x2="211.794" y2="128.843" gradientUnits="userSpaceOnUse">
<stop stop-color="#96E072"/>
<stop offset="1" stop-color="#3DA35D"/>
</linearGradient>
<linearGradient id="paint61_linear_427_4359" x1="169.272" y1="105.739" x2="210.784" y2="129.706" gradientUnits="userSpaceOnUse">
<stop stop-color="#96E072"/>
<stop offset="1" stop-color="#3DA35D"/>
</linearGradient>
<linearGradient id="paint62_linear_427_4359" x1="168.28" y1="106.6" x2="209.792" y2="130.567" gradientUnits="userSpaceOnUse">
<stop stop-color="#96E072"/>
<stop offset="1" stop-color="#3DA35D"/>
</linearGradient>
<linearGradient id="paint63_linear_427_4359" x1="167.319" y1="107.468" x2="208.832" y2="131.435" gradientUnits="userSpaceOnUse">
<stop stop-color="#96E072"/>
<stop offset="1" stop-color="#3DA35D"/>
</linearGradient>
<linearGradient id="paint64_linear_427_4359" x1="166.377" y1="108.335" x2="207.89" y2="132.302" gradientUnits="userSpaceOnUse">
<stop stop-color="#96E072"/>
<stop offset="1" stop-color="#3DA35D"/>
</linearGradient>
<linearGradient id="paint65_linear_427_4359" x1="165.458" y1="109.203" x2="206.971" y2="133.17" gradientUnits="userSpaceOnUse">
<stop stop-color="#96E072"/>
<stop offset="1" stop-color="#3DA35D"/>
</linearGradient>
<linearGradient id="paint66_linear_427_4359" x1="164.566" y1="110.075" x2="206.078" y2="134.042" gradientUnits="userSpaceOnUse">
<stop stop-color="#96E072"/>
<stop offset="1" stop-color="#3DA35D"/>
</linearGradient>
<linearGradient id="paint67_linear_427_4359" x1="163.695" y1="110.941" x2="205.207" y2="134.908" gradientUnits="userSpaceOnUse">
<stop stop-color="#96E072"/>
<stop offset="1" stop-color="#3DA35D"/>
</linearGradient>
<linearGradient id="paint68_linear_427_4359" x1="162.683" y1="111.979" x2="204.196" y2="135.946" gradientUnits="userSpaceOnUse">
<stop stop-color="#96E072"/>
<stop offset="1" stop-color="#3DA35D"/>
</linearGradient>
<linearGradient id="paint69_linear_427_4359" x1="161.154" y1="113.618" x2="202.667" y2="137.585" gradientUnits="userSpaceOnUse">
<stop stop-color="#96E072"/>
<stop offset="1" stop-color="#3DA35D"/>
</linearGradient>
<linearGradient id="paint70_linear_427_4359" x1="159.677" y1="115.268" x2="201.19" y2="139.236" gradientUnits="userSpaceOnUse">
<stop stop-color="#96E072"/>
<stop offset="1" stop-color="#3DA35D"/>
</linearGradient>
<linearGradient id="paint71_linear_427_4359" x1="158.254" y1="116.939" x2="199.766" y2="140.906" gradientUnits="userSpaceOnUse">
<stop stop-color="#96E072"/>
<stop offset="1" stop-color="#3DA35D"/>
</linearGradient>
<linearGradient id="paint72_linear_427_4359" x1="156.889" y1="118.619" x2="198.401" y2="142.586" gradientUnits="userSpaceOnUse">
<stop stop-color="#96E072"/>
<stop offset="1" stop-color="#3DA35D"/>
</linearGradient>
<linearGradient id="paint73_linear_427_4359" x1="155.569" y1="120.314" x2="197.082" y2="144.281" gradientUnits="userSpaceOnUse">
<stop stop-color="#96E072"/>
<stop offset="1" stop-color="#3DA35D"/>
</linearGradient>
<linearGradient id="paint74_linear_427_4359" x1="154.305" y1="122.023" x2="195.818" y2="145.99" gradientUnits="userSpaceOnUse">
<stop stop-color="#96E072"/>
<stop offset="1" stop-color="#3DA35D"/>
</linearGradient>
<linearGradient id="paint75_linear_427_4359" x1="153.089" y1="123.742" x2="194.602" y2="147.709" gradientUnits="userSpaceOnUse">
<stop stop-color="#96E072"/>
<stop offset="1" stop-color="#3DA35D"/>
</linearGradient>
<linearGradient id="paint76_linear_427_4359" x1="151.918" y1="125.476" x2="193.43" y2="149.443" gradientUnits="userSpaceOnUse">
<stop stop-color="#96E072"/>
<stop offset="1" stop-color="#3DA35D"/>
</linearGradient>
<linearGradient id="paint77_linear_427_4359" x1="150.794" y1="127.219" x2="192.306" y2="151.186" gradientUnits="userSpaceOnUse">
<stop stop-color="#96E072"/>
<stop offset="1" stop-color="#3DA35D"/>
</linearGradient>
<linearGradient id="paint78_linear_427_4359" x1="149.707" y1="128.978" x2="191.22" y2="152.945" gradientUnits="userSpaceOnUse">
<stop stop-color="#96E072"/>
<stop offset="1" stop-color="#3DA35D"/>
</linearGradient>
<linearGradient id="paint79_linear_427_4359" x1="148.669" y1="130.746" x2="190.181" y2="154.713" gradientUnits="userSpaceOnUse">
<stop stop-color="#96E072"/>
<stop offset="1" stop-color="#3DA35D"/>
</linearGradient>
<linearGradient id="paint80_linear_427_4359" x1="147.668" y1="132.52" x2="189.181" y2="156.487" gradientUnits="userSpaceOnUse">
<stop stop-color="#96E072"/>
<stop offset="1" stop-color="#3DA35D"/>
</linearGradient>
<linearGradient id="paint81_linear_427_4359" x1="146.701" y1="134.306" x2="188.214" y2="158.274" gradientUnits="userSpaceOnUse">
<stop stop-color="#96E072"/>
<stop offset="1" stop-color="#3DA35D"/>
</linearGradient>
<linearGradient id="paint82_linear_427_4359" x1="145.771" y1="136.102" x2="187.283" y2="160.069" gradientUnits="userSpaceOnUse">
<stop stop-color="#96E072"/>
<stop offset="1" stop-color="#3DA35D"/>
</linearGradient>
<linearGradient id="paint83_linear_427_4359" x1="144.878" y1="137.903" x2="186.391" y2="161.87" gradientUnits="userSpaceOnUse">
<stop stop-color="#96E072"/>
<stop offset="1" stop-color="#3DA35D"/>
</linearGradient>
<linearGradient id="paint84_linear_427_4359" x1="144.015" y1="139.714" x2="185.527" y2="163.681" gradientUnits="userSpaceOnUse">
<stop stop-color="#96E072"/>
<stop offset="1" stop-color="#3DA35D"/>
</linearGradient>
<linearGradient id="paint85_linear_427_4359" x1="143.181" y1="141.536" x2="184.693" y2="165.503" gradientUnits="userSpaceOnUse">
<stop stop-color="#96E072"/>
<stop offset="1" stop-color="#3DA35D"/>
</linearGradient>
<linearGradient id="paint86_linear_427_4359" x1="142.381" y1="143.361" x2="183.893" y2="167.328" gradientUnits="userSpaceOnUse">
<stop stop-color="#96E072"/>
<stop offset="1" stop-color="#3DA35D"/>
</linearGradient>
<linearGradient id="paint87_linear_427_4359" x1="141.605" y1="145.193" x2="183.118" y2="169.16" gradientUnits="userSpaceOnUse">
<stop stop-color="#96E072"/>
<stop offset="1" stop-color="#3DA35D"/>
</linearGradient>
<linearGradient id="paint88_linear_427_4359" x1="140.855" y1="147.034" x2="182.367" y2="171.001" gradientUnits="userSpaceOnUse">
<stop stop-color="#96E072"/>
<stop offset="1" stop-color="#3DA35D"/>
</linearGradient>
<linearGradient id="paint89_linear_427_4359" x1="140.127" y1="148.877" x2="181.639" y2="172.844" gradientUnits="userSpaceOnUse">
<stop stop-color="#96E072"/>
<stop offset="1" stop-color="#3DA35D"/>
</linearGradient>
<linearGradient id="paint90_linear_427_4359" x1="139.423" y1="150.727" x2="180.935" y2="174.694" gradientUnits="userSpaceOnUse">
<stop stop-color="#96E072"/>
<stop offset="1" stop-color="#3DA35D"/>
</linearGradient>
<linearGradient id="paint91_linear_427_4359" x1="138.735" y1="152.581" x2="180.248" y2="176.548" gradientUnits="userSpaceOnUse">
<stop stop-color="#96E072"/>
<stop offset="1" stop-color="#3DA35D"/>
</linearGradient>
<linearGradient id="paint92_linear_427_4359" x1="138.068" y1="154.441" x2="179.58" y2="178.408" gradientUnits="userSpaceOnUse">
<stop stop-color="#96E072"/>
<stop offset="1" stop-color="#3DA35D"/>
</linearGradient>
<linearGradient id="paint93_linear_427_4359" x1="137.416" y1="156.304" x2="178.929" y2="180.271" gradientUnits="userSpaceOnUse">
<stop stop-color="#96E072"/>
<stop offset="1" stop-color="#3DA35D"/>
</linearGradient>
<linearGradient id="paint94_linear_427_4359" x1="136.779" y1="158.163" x2="178.291" y2="182.13" gradientUnits="userSpaceOnUse">
<stop stop-color="#96E072"/>
<stop offset="1" stop-color="#3DA35D"/>
</linearGradient>
<linearGradient id="paint95_linear_427_4359" x1="136.154" y1="160.03" x2="177.667" y2="183.997" gradientUnits="userSpaceOnUse">
<stop stop-color="#96E072"/>
<stop offset="1" stop-color="#3DA35D"/>
</linearGradient>
<linearGradient id="paint96_linear_427_4359" x1="135.541" y1="161.898" x2="177.054" y2="185.865" gradientUnits="userSpaceOnUse">
<stop stop-color="#96E072"/>
<stop offset="1" stop-color="#3DA35D"/>
</linearGradient>
<linearGradient id="paint97_linear_427_4359" x1="134.937" y1="163.77" x2="176.449" y2="187.738" gradientUnits="userSpaceOnUse">
<stop stop-color="#96E072"/>
<stop offset="1" stop-color="#3DA35D"/>
</linearGradient>
<linearGradient id="paint98_linear_427_4359" x1="134.339" y1="165.641" x2="175.852" y2="189.608" gradientUnits="userSpaceOnUse">
<stop stop-color="#96E072"/>
<stop offset="1" stop-color="#3DA35D"/>
</linearGradient>
<linearGradient id="paint99_linear_427_4359" x1="133.749" y1="167.51" x2="175.262" y2="191.477" gradientUnits="userSpaceOnUse">
<stop stop-color="#96E072"/>
<stop offset="1" stop-color="#3DA35D"/>
</linearGradient>
<linearGradient id="paint100_linear_427_4359" x1="133.163" y1="169.382" x2="174.676" y2="193.349" gradientUnits="userSpaceOnUse">
<stop stop-color="#96E072"/>
<stop offset="1" stop-color="#3DA35D"/>
</linearGradient>
<linearGradient id="paint101_linear_427_4359" x1="132.577" y1="171.253" x2="174.09" y2="195.221" gradientUnits="userSpaceOnUse">
<stop stop-color="#96E072"/>
<stop offset="1" stop-color="#3DA35D"/>
</linearGradient>
<linearGradient id="paint102_linear_427_4359" x1="131.991" y1="173.125" x2="173.504" y2="197.092" gradientUnits="userSpaceOnUse">
<stop stop-color="#96E072"/>
<stop offset="1" stop-color="#3DA35D"/>
</linearGradient>
<linearGradient id="paint103_linear_427_4359" x1="131.408" y1="174.992" x2="172.92" y2="198.959" gradientUnits="userSpaceOnUse">
<stop stop-color="#96E072"/>
<stop offset="1" stop-color="#3DA35D"/>
</linearGradient>
<linearGradient id="paint104_linear_427_4359" x1="130.816" y1="176.854" x2="172.328" y2="200.821" gradientUnits="userSpaceOnUse">
<stop stop-color="#96E072"/>
<stop offset="1" stop-color="#3DA35D"/>
</linearGradient>
<linearGradient id="paint105_linear_427_4359" x1="130.221" y1="178.72" x2="171.733" y2="202.688" gradientUnits="userSpaceOnUse">
<stop stop-color="#96E072"/>
<stop offset="1" stop-color="#3DA35D"/>
</linearGradient>
<linearGradient id="paint106_linear_427_4359" x1="129.62" y1="180.577" x2="171.132" y2="204.545" gradientUnits="userSpaceOnUse">
<stop stop-color="#96E072"/>
<stop offset="1" stop-color="#3DA35D"/>
</linearGradient>
<linearGradient id="paint107_linear_427_4359" x1="129.012" y1="182.436" x2="170.524" y2="206.403" gradientUnits="userSpaceOnUse">
<stop stop-color="#96E072"/>
<stop offset="1" stop-color="#3DA35D"/>
</linearGradient>
<linearGradient id="paint108_linear_427_4359" x1="128.391" y1="184.287" x2="169.903" y2="208.255" gradientUnits="userSpaceOnUse">
<stop stop-color="#96E072"/>
<stop offset="1" stop-color="#3DA35D"/>
</linearGradient>
<linearGradient id="paint109_linear_427_4359" x1="127.761" y1="186.133" x2="169.273" y2="210.101" gradientUnits="userSpaceOnUse">
<stop stop-color="#96E072"/>
<stop offset="1" stop-color="#3DA35D"/>
</linearGradient>
<linearGradient id="paint110_linear_427_4359" x1="127.11" y1="187.974" x2="168.623" y2="211.941" gradientUnits="userSpaceOnUse">
<stop stop-color="#96E072"/>
<stop offset="1" stop-color="#3DA35D"/>
</linearGradient>
<linearGradient id="paint111_linear_427_4359" x1="126.449" y1="189.813" x2="167.961" y2="213.78" gradientUnits="userSpaceOnUse">
<stop stop-color="#96E072"/>
<stop offset="1" stop-color="#3DA35D"/>
</linearGradient>
<linearGradient id="paint112_linear_427_4359" x1="125.769" y1="191.643" x2="167.282" y2="215.61" gradientUnits="userSpaceOnUse">
<stop stop-color="#96E072"/>
<stop offset="1" stop-color="#3DA35D"/>
</linearGradient>
<linearGradient id="paint113_linear_427_4359" x1="125.07" y1="193.466" x2="166.582" y2="217.433" gradientUnits="userSpaceOnUse">
<stop stop-color="#96E072"/>
<stop offset="1" stop-color="#3DA35D"/>
</linearGradient>
<linearGradient id="paint114_linear_427_4359" x1="124.353" y1="195.279" x2="165.865" y2="219.247" gradientUnits="userSpaceOnUse">
<stop stop-color="#96E072"/>
<stop offset="1" stop-color="#3DA35D"/>
</linearGradient>
<linearGradient id="paint115_linear_427_4359" x1="123.608" y1="197.089" x2="165.121" y2="221.056" gradientUnits="userSpaceOnUse">
<stop stop-color="#96E072"/>
<stop offset="1" stop-color="#3DA35D"/>
</linearGradient>
<linearGradient id="paint116_linear_427_4359" x1="122.839" y1="198.89" x2="164.352" y2="222.857" gradientUnits="userSpaceOnUse">
<stop stop-color="#96E072"/>
<stop offset="1" stop-color="#3DA35D"/>
</linearGradient>
<linearGradient id="paint117_linear_427_4359" x1="122.044" y1="200.676" x2="163.556" y2="224.643" gradientUnits="userSpaceOnUse">
<stop stop-color="#96E072"/>
<stop offset="1" stop-color="#3DA35D"/>
</linearGradient>
<linearGradient id="paint118_linear_427_4359" x1="121.221" y1="202.458" x2="162.733" y2="226.425" gradientUnits="userSpaceOnUse">
<stop stop-color="#96E072"/>
<stop offset="1" stop-color="#3DA35D"/>
</linearGradient>
<linearGradient id="paint119_linear_427_4359" x1="120.369" y1="204.229" x2="161.882" y2="228.196" gradientUnits="userSpaceOnUse">
<stop stop-color="#96E072"/>
<stop offset="1" stop-color="#3DA35D"/>
</linearGradient>
<linearGradient id="paint120_linear_427_4359" x1="119.486" y1="205.993" x2="160.999" y2="229.96" gradientUnits="userSpaceOnUse">
<stop stop-color="#96E072"/>
<stop offset="1" stop-color="#3DA35D"/>
</linearGradient>
<linearGradient id="paint121_linear_427_4359" x1="118.569" y1="207.744" x2="160.082" y2="231.711" gradientUnits="userSpaceOnUse">
<stop stop-color="#96E072"/>
<stop offset="1" stop-color="#3DA35D"/>
</linearGradient>
<linearGradient id="paint122_linear_427_4359" x1="117.615" y1="209.479" x2="159.127" y2="233.446" gradientUnits="userSpaceOnUse">
<stop stop-color="#96E072"/>
<stop offset="1" stop-color="#3DA35D"/>
</linearGradient>
<linearGradient id="paint123_linear_427_4359" x1="116.628" y1="211.208" x2="158.141" y2="235.175" gradientUnits="userSpaceOnUse">
<stop stop-color="#96E072"/>
<stop offset="1" stop-color="#3DA35D"/>
</linearGradient>
<linearGradient id="paint124_linear_427_4359" x1="115.597" y1="212.922" x2="157.11" y2="236.889" gradientUnits="userSpaceOnUse">
<stop stop-color="#96E072"/>
<stop offset="1" stop-color="#3DA35D"/>
</linearGradient>
<linearGradient id="paint125_linear_427_4359" x1="114.526" y1="214.625" x2="156.038" y2="238.592" gradientUnits="userSpaceOnUse">
<stop stop-color="#96E072"/>
<stop offset="1" stop-color="#3DA35D"/>
</linearGradient>
<linearGradient id="paint126_linear_427_4359" x1="113.417" y1="216.312" x2="154.929" y2="240.279" gradientUnits="userSpaceOnUse">
<stop stop-color="#96E072"/>
<stop offset="1" stop-color="#3DA35D"/>
</linearGradient>
<linearGradient id="paint127_linear_427_4359" x1="112.26" y1="217.989" x2="153.772" y2="241.956" gradientUnits="userSpaceOnUse">
<stop stop-color="#96E072"/>
<stop offset="1" stop-color="#3DA35D"/>
</linearGradient>
<linearGradient id="paint128_linear_427_4359" x1="111.056" y1="219.645" x2="152.569" y2="243.612" gradientUnits="userSpaceOnUse">
<stop stop-color="#96E072"/>
<stop offset="1" stop-color="#3DA35D"/>
</linearGradient>
<linearGradient id="paint129_linear_427_4359" x1="109.806" y1="221.292" x2="151.318" y2="245.259" gradientUnits="userSpaceOnUse">
<stop stop-color="#96E072"/>
<stop offset="1" stop-color="#3DA35D"/>
</linearGradient>
<linearGradient id="paint130_linear_427_4359" x1="108.51" y1="222.924" x2="150.022" y2="246.891" gradientUnits="userSpaceOnUse">
<stop stop-color="#96E072"/>
<stop offset="1" stop-color="#3DA35D"/>
</linearGradient>
<linearGradient id="paint131_linear_427_4359" x1="107.156" y1="224.534" x2="148.669" y2="248.501" gradientUnits="userSpaceOnUse">
<stop stop-color="#96E072"/>
<stop offset="1" stop-color="#3DA35D"/>
</linearGradient>
<linearGradient id="paint132_linear_427_4359" x1="105.755" y1="226.135" x2="147.268" y2="250.102" gradientUnits="userSpaceOnUse">
<stop stop-color="#96E072"/>
<stop offset="1" stop-color="#3DA35D"/>
</linearGradient>
<linearGradient id="paint133_linear_427_4359" x1="104.296" y1="227.714" x2="145.808" y2="251.681" gradientUnits="userSpaceOnUse">
<stop stop-color="#96E072"/>
<stop offset="1" stop-color="#3DA35D"/>
</linearGradient>
<linearGradient id="paint134_linear_427_4359" x1="102.781" y1="229.278" x2="144.293" y2="253.245" gradientUnits="userSpaceOnUse">
<stop stop-color="#96E072"/>
<stop offset="1" stop-color="#3DA35D"/>
</linearGradient>
<linearGradient id="paint135_linear_427_4359" x1="101.207" y1="230.82" x2="142.72" y2="254.788" gradientUnits="userSpaceOnUse">
<stop stop-color="#96E072"/>
<stop offset="1" stop-color="#3DA35D"/>
</linearGradient>
<linearGradient id="paint136_linear_427_4359" x1="99.5728" y1="232.345" x2="141.085" y2="256.312" gradientUnits="userSpaceOnUse">
<stop stop-color="#96E072"/>
<stop offset="1" stop-color="#3DA35D"/>
</linearGradient>
<linearGradient id="paint137_linear_427_4359" x1="97.8782" y1="233.853" x2="139.391" y2="257.82" gradientUnits="userSpaceOnUse">
<stop stop-color="#96E072"/>
<stop offset="1" stop-color="#3DA35D"/>
</linearGradient>
<linearGradient id="paint138_linear_427_4359" x1="96.1182" y1="235.34" x2="137.631" y2="259.308" gradientUnits="userSpaceOnUse">
<stop stop-color="#96E072"/>
<stop offset="1" stop-color="#3DA35D"/>
</linearGradient>
<linearGradient id="paint139_linear_427_4359" x1="94.2864" y1="236.81" x2="135.799" y2="260.777" gradientUnits="userSpaceOnUse">
<stop stop-color="#96E072"/>
<stop offset="1" stop-color="#3DA35D"/>
</linearGradient>
<linearGradient id="paint140_linear_427_4359" x1="92.4275" y1="238.235" x2="133.94" y2="262.202" gradientUnits="userSpaceOnUse">
<stop stop-color="#96E072"/>
<stop offset="1" stop-color="#3DA35D"/>
</linearGradient>
<linearGradient id="paint141_linear_427_4359" x1="90.545" y1="239.598" x2="132.057" y2="263.566" gradientUnits="userSpaceOnUse">
<stop stop-color="#96E072"/>
<stop offset="1" stop-color="#3DA35D"/>
</linearGradient>
<linearGradient id="paint142_linear_427_4359" x1="88.6475" y1="240.907" x2="130.16" y2="264.874" gradientUnits="userSpaceOnUse">
<stop stop-color="#96E072"/>
<stop offset="1" stop-color="#3DA35D"/>
</linearGradient>
<linearGradient id="paint143_linear_427_4359" x1="86.7322" y1="242.164" x2="128.245" y2="266.131" gradientUnits="userSpaceOnUse">
<stop stop-color="#96E072"/>
<stop offset="1" stop-color="#3DA35D"/>
</linearGradient>
<linearGradient id="paint144_linear_427_4359" x1="84.8023" y1="243.365" x2="126.315" y2="267.332" gradientUnits="userSpaceOnUse">
<stop stop-color="#96E072"/>
<stop offset="1" stop-color="#3DA35D"/>
</linearGradient>
<linearGradient id="paint145_linear_427_4359" x1="82.8545" y1="244.515" x2="124.367" y2="268.482" gradientUnits="userSpaceOnUse">
<stop stop-color="#96E072"/>
<stop offset="1" stop-color="#3DA35D"/>
</linearGradient>
<linearGradient id="paint146_linear_427_4359" x1="80.9009" y1="245.614" x2="122.413" y2="269.582" gradientUnits="userSpaceOnUse">
<stop stop-color="#96E072"/>
<stop offset="1" stop-color="#3DA35D"/>
</linearGradient>
<linearGradient id="paint147_linear_427_4359" x1="78.9295" y1="246.663" x2="120.442" y2="270.63" gradientUnits="userSpaceOnUse">
<stop stop-color="#96E072"/>
<stop offset="1" stop-color="#3DA35D"/>
</linearGradient>
<linearGradient id="paint148_linear_427_4359" x1="76.9478" y1="247.658" x2="118.46" y2="271.625" gradientUnits="userSpaceOnUse">
<stop stop-color="#96E072"/>
<stop offset="1" stop-color="#3DA35D"/>
</linearGradient>
<linearGradient id="paint149_linear_427_4359" x1="74.959" y1="248.613" x2="116.471" y2="272.581" gradientUnits="userSpaceOnUse">
<stop stop-color="#96E072"/>
<stop offset="1" stop-color="#3DA35D"/>
</linearGradient>
<linearGradient id="paint150_linear_427_4359" x1="72.96" y1="249.516" x2="114.472" y2="273.483" gradientUnits="userSpaceOnUse">
<stop stop-color="#96E072"/>
<stop offset="1" stop-color="#3DA35D"/>
</linearGradient>
<linearGradient id="paint151_linear_427_4359" x1="70.9566" y1="250.375" x2="112.469" y2="274.343" gradientUnits="userSpaceOnUse">
<stop stop-color="#96E072"/>
<stop offset="1" stop-color="#3DA35D"/>
</linearGradient>
<linearGradient id="paint152_linear_427_4359" x1="68.9444" y1="251.188" x2="110.457" y2="275.156" gradientUnits="userSpaceOnUse">
<stop stop-color="#96E072"/>
<stop offset="1" stop-color="#3DA35D"/>
</linearGradient>
<linearGradient id="paint153_linear_427_4359" x1="66.928" y1="251.958" x2="108.44" y2="275.925" gradientUnits="userSpaceOnUse">
<stop stop-color="#96E072"/>
<stop offset="1" stop-color="#3DA35D"/>
</linearGradient>
<linearGradient id="paint154_linear_427_4359" x1="64.9073" y1="252.684" x2="106.42" y2="276.651" gradientUnits="userSpaceOnUse">
<stop stop-color="#96E072"/>
<stop offset="1" stop-color="#3DA35D"/>
</linearGradient>
<linearGradient id="paint155_linear_427_4359" x1="62.8868" y1="253.368" x2="104.399" y2="277.336" gradientUnits="userSpaceOnUse">
<stop stop-color="#96E072"/>
<stop offset="1" stop-color="#3DA35D"/>
</linearGradient>
<linearGradient id="paint156_linear_427_4359" x1="60.8665" y1="254.012" x2="102.379" y2="277.979" gradientUnits="userSpaceOnUse">
<stop stop-color="#96E072"/>
<stop offset="1" stop-color="#3DA35D"/>
</linearGradient>
<linearGradient id="paint157_linear_427_4359" x1="58.8436" y1="254.619" x2="100.356" y2="278.586" gradientUnits="userSpaceOnUse">
<stop stop-color="#96E072"/>
<stop offset="1" stop-color="#3DA35D"/>
</linearGradient>
<linearGradient id="paint158_linear_427_4359" x1="56.8255" y1="255.188" x2="98.3379" y2="279.155" gradientUnits="userSpaceOnUse">
<stop stop-color="#96E072"/>
<stop offset="1" stop-color="#3DA35D"/>
</linearGradient>
<linearGradient id="paint159_linear_427_4359" x1="54.8074" y1="255.715" x2="96.3199" y2="279.683" gradientUnits="userSpaceOnUse">
<stop stop-color="#96E072"/>
<stop offset="1" stop-color="#3DA35D"/>
</linearGradient>
<linearGradient id="paint160_linear_427_4359" x1="52.7913" y1="256.209" x2="94.3038" y2="280.176" gradientUnits="userSpaceOnUse">
<stop stop-color="#96E072"/>
<stop offset="1" stop-color="#3DA35D"/>
</linearGradient>
<linearGradient id="paint161_linear_427_4359" x1="50.7842" y1="256.666" x2="92.2967" y2="280.633" gradientUnits="userSpaceOnUse">
<stop stop-color="#96E072"/>
<stop offset="1" stop-color="#3DA35D"/>
</linearGradient>
<linearGradient id="paint162_linear_427_4359" x1="48.7837" y1="257.092" x2="90.2962" y2="281.059" gradientUnits="userSpaceOnUse">
<stop stop-color="#96E072"/>
<stop offset="1" stop-color="#3DA35D"/>
</linearGradient>
<linearGradient id="paint163_linear_427_4359" x1="46.7852" y1="257.484" x2="88.2977" y2="281.451" gradientUnits="userSpaceOnUse">
<stop stop-color="#96E072"/>
<stop offset="1" stop-color="#3DA35D"/>
</linearGradient>
<linearGradient id="paint164_linear_427_4359" x1="44.7999" y1="257.842" x2="86.3123" y2="281.81" gradientUnits="userSpaceOnUse">
<stop stop-color="#96E072"/>
<stop offset="1" stop-color="#3DA35D"/>
</linearGradient>
<linearGradient id="paint165_linear_427_4359" x1="42.8257" y1="258.172" x2="84.3382" y2="282.139" gradientUnits="userSpaceOnUse">
<stop stop-color="#96E072"/>
<stop offset="1" stop-color="#3DA35D"/>
</linearGradient>
<linearGradient id="paint166_linear_427_4359" x1="40.8621" y1="258.472" x2="82.3746" y2="282.439" gradientUnits="userSpaceOnUse">
<stop stop-color="#96E072"/>
<stop offset="1" stop-color="#3DA35D"/>
</linearGradient>
<linearGradient id="paint167_linear_427_4359" x1="38.9122" y1="258.739" x2="80.4246" y2="282.706" gradientUnits="userSpaceOnUse">
<stop stop-color="#96E072"/>
<stop offset="1" stop-color="#3DA35D"/>
</linearGradient>
<linearGradient id="paint168_linear_427_4359" x1="36.9703" y1="258.982" x2="78.4827" y2="282.949" gradientUnits="userSpaceOnUse">
<stop stop-color="#96E072"/>
<stop offset="1" stop-color="#3DA35D"/>
</linearGradient>
<linearGradient id="paint169_linear_427_4359" x1="35.0481" y1="259.2" x2="76.5606" y2="283.167" gradientUnits="userSpaceOnUse">
<stop stop-color="#96E072"/>
<stop offset="1" stop-color="#3DA35D"/>
</linearGradient>
<linearGradient id="paint170_linear_427_4359" x1="33.1438" y1="259.388" x2="74.6563" y2="283.355" gradientUnits="userSpaceOnUse">
<stop stop-color="#96E072"/>
<stop offset="1" stop-color="#3DA35D"/>
</linearGradient>
<linearGradient id="paint171_linear_427_4359" x1="31.2522" y1="259.553" x2="72.7647" y2="283.521" gradientUnits="userSpaceOnUse">
<stop stop-color="#96E072"/>
<stop offset="1" stop-color="#3DA35D"/>
</linearGradient>
<linearGradient id="paint172_linear_427_4359" x1="29.3804" y1="259.695" x2="70.8929" y2="283.662" gradientUnits="userSpaceOnUse">
<stop stop-color="#96E072"/>
<stop offset="1" stop-color="#3DA35D"/>
</linearGradient>
<linearGradient id="paint173_linear_427_4359" x1="27.5301" y1="259.82" x2="69.0425" y2="283.787" gradientUnits="userSpaceOnUse">
<stop stop-color="#96E072"/>
<stop offset="1" stop-color="#3DA35D"/>
</linearGradient>
<linearGradient id="paint174_linear_427_4359" x1="25.7022" y1="259.916" x2="67.2146" y2="283.884" gradientUnits="userSpaceOnUse">
<stop stop-color="#96E072"/>
<stop offset="1" stop-color="#3DA35D"/>
</linearGradient>
<linearGradient id="paint175_linear_427_4359" x1="23.8912" y1="259.993" x2="65.4036" y2="283.961" gradientUnits="userSpaceOnUse">
<stop stop-color="#96E072"/>
<stop offset="1" stop-color="#3DA35D"/>
</linearGradient>
<linearGradient id="paint176_linear_427_4359" x1="22.1062" y1="260.056" x2="63.6187" y2="284.023" gradientUnits="userSpaceOnUse">
<stop stop-color="#96E072"/>
<stop offset="1" stop-color="#3DA35D"/>
</linearGradient>
<linearGradient id="paint177_linear_427_4359" x1="20.3453" y1="260.097" x2="61.8577" y2="284.064" gradientUnits="userSpaceOnUse">
<stop stop-color="#96E072"/>
<stop offset="1" stop-color="#3DA35D"/>
</linearGradient>
<linearGradient id="paint178_linear_427_4359" x1="18.6131" y1="260.12" x2="60.1255" y2="284.087" gradientUnits="userSpaceOnUse">
<stop stop-color="#96E072"/>
<stop offset="1" stop-color="#3DA35D"/>
</linearGradient>
<linearGradient id="paint179_linear_427_4359" x1="16.9041" y1="260.132" x2="58.4165" y2="284.099" gradientUnits="userSpaceOnUse">
<stop stop-color="#96E072"/>
<stop offset="1" stop-color="#3DA35D"/>
</linearGradient>
<linearGradient id="paint180_linear_427_4359" x1="15.2281" y1="260.128" x2="56.7405" y2="284.096" gradientUnits="userSpaceOnUse">
<stop stop-color="#96E072"/>
<stop offset="1" stop-color="#3DA35D"/>
</linearGradient>
<linearGradient id="paint181_linear_427_4359" x1="13.5806" y1="260.106" x2="55.0931" y2="284.073" gradientUnits="userSpaceOnUse">
<stop stop-color="#96E072"/>
<stop offset="1" stop-color="#3DA35D"/>
</linearGradient>
<linearGradient id="paint182_linear_427_4359" x1="11.961" y1="260.076" x2="53.4734" y2="284.043" gradientUnits="userSpaceOnUse">
<stop stop-color="#96E072"/>
<stop offset="1" stop-color="#3DA35D"/>
</linearGradient>
<clipPath id="clip0_427_4359">
<rect width="346.614" height="198.877" fill="white" transform="translate(0 280.793) rotate(-60)"/>
</clipPath>
</defs>
</svg>
