<svg width="338" height="304" viewBox="0 0 338 304" fill="none" xmlns="http://www.w3.org/2000/svg">
<g clip-path="url(#clip0_427_3492)">
<path d="M154.86 62.393C172.084 62.393 186.047 48.4259 186.047 31.1965C186.047 13.9672 172.084 0 154.86 0C137.636 0 123.673 13.9672 123.673 31.1965C123.673 48.4259 137.636 62.393 154.86 62.393Z" fill="url(#paint0_linear_427_3492)"/>
<path d="M154.462 64.9551C171.686 64.9551 185.649 50.988 185.649 33.7586C185.649 16.5293 171.686 2.5621 154.462 2.5621C137.238 2.5621 123.275 16.5293 123.275 33.7586C123.275 50.988 137.238 64.9551 154.462 64.9551Z" fill="url(#paint1_linear_427_3492)"/>
<path d="M154.063 67.5305C171.287 67.5305 185.25 53.5633 185.25 36.334C185.25 19.1046 171.287 5.13747 154.063 5.13747C136.839 5.13747 122.876 19.1046 122.876 36.334C122.876 53.5633 136.839 67.5305 154.063 67.5305Z" fill="url(#paint2_linear_427_3492)"/>
<path d="M153.659 70.1125C170.883 70.1125 184.846 56.1453 184.846 38.916C184.846 21.6866 170.883 7.71948 153.659 7.71948C136.435 7.71948 122.472 21.6866 122.472 38.916C122.472 56.1453 136.435 70.1125 153.659 70.1125Z" fill="url(#paint3_linear_427_3492)"/>
<path d="M153.254 72.7078C170.478 72.7078 184.441 58.7406 184.441 41.5113C184.441 24.2819 170.478 10.3148 153.254 10.3148C136.03 10.3148 122.067 24.2819 122.067 41.5113C122.067 58.7406 136.03 72.7078 153.254 72.7078Z" fill="url(#paint4_linear_427_3492)"/>
<path d="M152.842 75.3097C170.067 75.3097 184.029 61.3425 184.029 44.1132C184.029 26.8838 170.067 12.9167 152.842 12.9167C135.618 12.9167 121.656 26.8838 121.656 44.1132C121.656 61.3425 135.618 75.3097 152.842 75.3097Z" fill="url(#paint5_linear_427_3492)"/>
<path d="M152.424 77.9183C169.649 77.9183 183.611 63.9511 183.611 46.7217C183.611 29.4924 169.649 15.5252 152.424 15.5252C135.2 15.5252 121.238 29.4924 121.238 46.7217C121.238 63.9511 135.2 77.9183 152.424 77.9183Z" fill="url(#paint6_linear_427_3492)"/>
<path d="M152.007 80.5335C169.231 80.5335 183.193 66.5663 183.193 49.3369C183.193 32.1076 169.231 18.1404 152.007 18.1404C134.782 18.1404 120.82 32.1076 120.82 49.3369C120.82 66.5663 134.782 80.5335 152.007 80.5335Z" fill="url(#paint7_linear_427_3492)"/>
<path d="M151.575 83.1553C168.799 83.1553 182.762 69.1881 182.762 51.9588C182.762 34.7294 168.799 20.7623 151.575 20.7623C134.351 20.7623 120.388 34.7294 120.388 51.9588C120.388 69.1881 134.351 83.1553 151.575 83.1553Z" fill="url(#paint8_linear_427_3492)"/>
<path d="M151.131 85.7838C168.355 85.7838 182.317 71.8166 182.317 54.5873C182.317 37.3579 168.355 23.3907 151.131 23.3907C133.906 23.3907 119.944 37.3579 119.944 54.5873C119.944 71.8166 133.906 85.7838 151.131 85.7838Z" fill="url(#paint9_linear_427_3492)"/>
<path d="M150.686 88.4122C167.91 88.4122 181.873 74.4451 181.873 57.2157C181.873 39.9864 167.91 26.0192 150.686 26.0192C133.462 26.0192 119.499 39.9864 119.499 57.2157C119.499 74.4451 133.462 88.4122 150.686 88.4122Z" fill="url(#paint10_linear_427_3492)"/>
<path d="M150.228 91.0473C167.452 91.0473 181.415 77.0802 181.415 59.8508C181.415 42.6215 167.452 28.6543 150.228 28.6543C133.004 28.6543 119.041 42.6215 119.041 59.8508C119.041 77.0802 133.004 91.0473 150.228 91.0473Z" fill="url(#paint11_linear_427_3492)"/>
<path d="M149.757 93.6891C166.981 93.6891 180.944 79.7219 180.944 62.4926C180.944 45.2632 166.981 31.2961 149.757 31.2961C132.533 31.2961 118.57 45.2632 118.57 62.4926C118.57 79.7219 132.533 93.6891 149.757 93.6891Z" fill="url(#paint12_linear_427_3492)"/>
<path d="M149.273 96.3242C166.497 96.3242 180.46 82.357 180.46 65.1277C180.46 47.8983 166.497 33.9312 149.273 33.9312C132.049 33.9312 118.086 47.8983 118.086 65.1277C118.086 82.357 132.049 96.3242 149.273 96.3242Z" fill="url(#paint13_linear_427_3492)"/>
<path d="M148.782 98.966C166.006 98.966 179.969 84.9988 179.969 67.7694C179.969 50.5401 166.006 36.5729 148.782 36.5729C131.558 36.5729 117.595 50.5401 117.595 67.7694C117.595 84.9988 131.558 98.966 148.782 98.966Z" fill="url(#paint14_linear_427_3492)"/>
<path d="M148.271 101.608C165.495 101.608 179.458 87.6405 179.458 70.4112C179.458 53.1818 165.495 39.2147 148.271 39.2147C131.047 39.2147 117.084 53.1818 117.084 70.4112C117.084 87.6405 131.047 101.608 148.271 101.608Z" fill="url(#paint15_linear_427_3492)"/>
<path d="M147.747 104.249C164.971 104.249 178.933 90.2823 178.933 73.0529C178.933 55.8236 164.971 41.8564 147.747 41.8564C130.522 41.8564 116.56 55.8236 116.56 73.0529C116.56 90.2823 130.522 104.249 147.747 104.249Z" fill="url(#paint16_linear_427_3492)"/>
<path d="M147.209 106.885C164.433 106.885 178.396 92.9174 178.396 75.688C178.396 58.4587 164.433 44.4915 147.209 44.4915C129.985 44.4915 116.022 58.4587 116.022 75.688C116.022 92.9174 129.985 106.885 147.209 106.885Z" fill="url(#paint17_linear_427_3492)"/>
<path d="M146.652 109.52C163.876 109.52 177.838 95.5525 177.838 78.3232C177.838 61.0938 163.876 47.1266 146.652 47.1266C129.427 47.1266 115.465 61.0938 115.465 78.3232C115.465 95.5525 129.427 109.52 146.652 109.52Z" fill="url(#paint18_linear_427_3492)"/>
<path d="M146.074 112.155C163.298 112.155 177.261 98.1876 177.261 80.9583C177.261 63.7289 163.298 49.7617 146.074 49.7617C128.85 49.7617 114.887 63.7289 114.887 80.9583C114.887 98.1876 128.85 112.155 146.074 112.155Z" fill="url(#paint19_linear_427_3492)"/>
<path d="M145.477 114.783C162.701 114.783 176.664 100.816 176.664 83.5867C176.664 66.3574 162.701 52.3902 145.477 52.3902C128.253 52.3902 114.29 66.3574 114.29 83.5867C114.29 100.816 128.253 114.783 145.477 114.783Z" fill="url(#paint20_linear_427_3492)"/>
<path d="M144.867 117.405C162.091 117.405 176.054 103.438 176.054 86.2086C176.054 68.9792 162.091 55.0121 144.867 55.0121C127.643 55.0121 113.68 68.9792 113.68 86.2086C113.68 103.438 127.643 117.405 144.867 117.405Z" fill="url(#paint21_linear_427_3492)"/>
<path d="M144.23 120.02C161.454 120.02 175.417 106.053 175.417 88.8238C175.417 71.5944 161.454 57.6273 144.23 57.6273C127.006 57.6273 113.043 71.5944 113.043 88.8238C113.043 106.053 127.006 120.02 144.23 120.02Z" fill="url(#paint22_linear_427_3492)"/>
<path d="M143.579 122.635C160.803 122.635 174.766 108.668 174.766 91.4389C174.766 74.2096 160.803 60.2424 143.579 60.2424C126.355 60.2424 112.392 74.2096 112.392 91.4389C112.392 108.668 126.355 122.635 143.579 122.635Z" fill="url(#paint23_linear_427_3492)"/>
<path d="M142.903 125.237C160.127 125.237 174.089 111.27 174.089 94.0409C174.089 76.8115 160.127 62.8444 142.903 62.8444C125.678 62.8444 111.716 76.8115 111.716 94.0409C111.716 111.27 125.678 125.237 142.903 125.237Z" fill="url(#paint24_linear_427_3492)"/>
<path d="M142.199 127.833C159.423 127.833 173.386 113.865 173.386 96.6361C173.386 79.4068 159.423 65.4396 142.199 65.4396C124.975 65.4396 111.012 79.4068 111.012 96.6361C111.012 113.865 124.975 127.833 142.199 127.833Z" fill="url(#paint25_linear_427_3492)"/>
<path d="M141.469 130.415C158.693 130.415 172.656 116.448 172.656 99.2182C172.656 81.9888 158.693 68.0217 141.469 68.0217C124.245 68.0217 110.282 81.9888 110.282 99.2182C110.282 116.448 124.245 130.415 141.469 130.415Z" fill="url(#paint26_linear_427_3492)"/>
<path d="M140.719 132.99C157.943 132.99 171.906 119.023 171.906 101.794C171.906 84.5642 157.943 70.597 140.719 70.597C123.495 70.597 109.532 84.5642 109.532 101.794C109.532 119.023 123.495 132.99 140.719 132.99Z" fill="url(#paint27_linear_427_3492)"/>
<path d="M139.943 135.559C157.167 135.559 171.13 121.592 171.13 104.362C171.13 87.1329 157.167 73.1658 139.943 73.1658C122.719 73.1658 108.756 87.1329 108.756 104.362C108.756 121.592 122.719 135.559 139.943 135.559Z" fill="url(#paint28_linear_427_3492)"/>
<path d="M139.14 138.108C156.364 138.108 170.327 124.14 170.327 106.911C170.327 89.6818 156.364 75.7146 139.14 75.7146C121.916 75.7146 107.953 89.6818 107.953 106.911C107.953 124.14 121.916 138.108 139.14 138.108Z" fill="url(#paint29_linear_427_3492)"/>
<path d="M138.304 140.65C155.528 140.65 169.491 126.683 169.491 109.453C169.491 92.2239 155.528 78.2568 138.304 78.2568C121.08 78.2568 107.117 92.2239 107.117 109.453C107.117 126.683 121.08 140.65 138.304 140.65Z" fill="url(#paint30_linear_427_3492)"/>
<path d="M137.448 143.179C154.672 143.179 168.635 129.212 168.635 111.982C168.635 94.7528 154.672 80.7857 137.448 80.7857C120.224 80.7857 106.261 94.7528 106.261 111.982C106.261 129.212 120.224 143.179 137.448 143.179Z" fill="url(#paint31_linear_427_3492)"/>
<path d="M136.552 145.688C153.776 145.688 167.739 131.721 167.739 114.491C167.739 97.2618 153.776 83.2947 136.552 83.2947C119.328 83.2947 105.365 97.2618 105.365 114.491C105.365 131.721 119.328 145.688 136.552 145.688Z" fill="url(#paint32_linear_427_3492)"/>
<path d="M135.63 148.183C152.854 148.183 166.817 134.216 166.817 116.987C166.817 99.7576 152.854 85.7904 135.63 85.7904C118.406 85.7904 104.443 99.7576 104.443 116.987C104.443 134.216 118.406 148.183 135.63 148.183Z" fill="url(#paint33_linear_427_3492)"/>
<path d="M134.681 150.666C151.905 150.666 165.868 136.699 165.868 119.469C165.868 102.24 151.905 88.2728 134.681 88.2728C117.457 88.2728 103.494 102.24 103.494 119.469C103.494 136.699 117.457 150.666 134.681 150.666Z" fill="url(#paint34_linear_427_3492)"/>
<path d="M133.692 153.128C150.916 153.128 164.879 139.161 164.879 121.932C164.879 104.703 150.916 90.7354 133.692 90.7354C116.468 90.7354 102.505 104.703 102.505 121.932C102.505 139.161 116.468 153.128 133.692 153.128Z" fill="url(#paint35_linear_427_3492)"/>
<path d="M132.671 155.578C149.895 155.578 163.858 141.61 163.858 124.381C163.858 107.152 149.895 93.1846 132.671 93.1846C115.447 93.1846 101.484 107.152 101.484 124.381C101.484 141.61 115.447 155.578 132.671 155.578Z" fill="url(#paint36_linear_427_3492)"/>
<path d="M131.615 158.007C148.839 158.007 162.802 144.04 162.802 126.81C162.802 109.581 148.839 95.614 131.615 95.614C114.391 95.614 100.428 109.581 100.428 126.81C100.428 144.04 114.391 158.007 131.615 158.007Z" fill="url(#paint37_linear_427_3492)"/>
<path d="M130.527 160.416C147.751 160.416 161.714 146.449 161.714 129.22C161.714 111.991 147.751 98.0234 130.527 98.0234C113.303 98.0234 99.3403 111.991 99.3403 129.22C99.3403 146.449 113.303 160.416 130.527 160.416Z" fill="url(#paint38_linear_427_3492)"/>
<path d="M129.399 162.806C146.623 162.806 160.586 148.839 160.586 131.609C160.586 114.38 146.623 100.413 129.399 100.413C112.175 100.413 98.2124 114.38 98.2124 131.609C98.2124 148.839 112.175 162.806 129.399 162.806Z" fill="url(#paint39_linear_427_3492)"/>
<path d="M128.231 165.169C145.455 165.169 159.418 151.202 159.418 133.972C159.418 116.743 145.455 102.776 128.231 102.776C111.007 102.776 97.0444 116.743 97.0444 133.972C97.0444 151.202 111.007 165.169 128.231 165.169Z" fill="url(#paint40_linear_427_3492)"/>
<path d="M127.03 167.519C144.255 167.519 158.217 153.551 158.217 136.322C158.217 119.093 144.255 105.126 127.03 105.126C109.806 105.126 95.8435 119.093 95.8435 136.322C95.8435 153.551 109.806 167.519 127.03 167.519Z" fill="url(#paint41_linear_427_3492)"/>
<path d="M125.789 169.842C143.014 169.842 156.976 155.875 156.976 138.645C156.976 121.416 143.014 107.449 125.789 107.449C108.565 107.449 94.6025 121.416 94.6025 138.645C94.6025 155.875 108.565 169.842 125.789 169.842Z" fill="url(#paint42_linear_427_3492)"/>
<path d="M124.502 172.138C141.726 172.138 155.689 158.171 155.689 140.942C155.689 123.712 141.726 109.745 124.502 109.745C107.278 109.745 93.3152 123.712 93.3152 140.942C93.3152 158.171 107.278 172.138 124.502 172.138Z" fill="url(#paint43_linear_427_3492)"/>
<path d="M123.182 174.415C140.406 174.415 154.369 160.448 154.369 143.219C154.369 125.989 140.406 112.022 123.182 112.022C105.958 112.022 91.9949 125.989 91.9949 143.219C91.9949 160.448 105.958 174.415 123.182 174.415Z" fill="url(#paint44_linear_427_3492)"/>
<path d="M121.815 176.665C139.039 176.665 153.002 162.698 153.002 145.469C153.002 128.239 139.039 114.272 121.815 114.272C104.591 114.272 90.6279 128.239 90.6279 145.469C90.6279 162.698 104.591 176.665 121.815 176.665Z" fill="url(#paint45_linear_427_3492)"/>
<path d="M120.408 178.889C137.632 178.889 151.595 164.922 151.595 147.692C151.595 130.463 137.632 116.496 120.408 116.496C103.184 116.496 89.2212 130.463 89.2212 147.692C89.2212 164.922 103.184 178.889 120.408 178.889Z" fill="url(#paint46_linear_427_3492)"/>
<path d="M118.955 181.079C136.179 181.079 150.142 167.112 150.142 149.883C150.142 132.653 136.179 118.686 118.955 118.686C101.731 118.686 87.7681 132.653 87.7681 149.883C87.7681 167.112 101.731 181.079 118.955 181.079Z" fill="url(#paint47_linear_427_3492)"/>
<path d="M117.455 183.25C134.679 183.25 148.642 169.282 148.642 152.053C148.642 134.824 134.679 120.857 117.455 120.857C100.231 120.857 86.2683 134.824 86.2683 152.053C86.2683 169.282 100.231 183.25 117.455 183.25Z" fill="url(#paint48_linear_427_3492)"/>
<path d="M115.909 185.387C133.133 185.387 147.096 171.42 147.096 154.19C147.096 136.961 133.133 122.994 115.909 122.994C98.685 122.994 84.7222 136.961 84.7222 154.19C84.7222 171.42 98.685 185.387 115.909 185.387Z" fill="url(#paint49_linear_427_3492)"/>
<path d="M114.317 187.498C131.541 187.498 145.504 173.53 145.504 156.301C145.504 139.072 131.541 125.105 114.317 125.105C97.0927 125.105 83.1299 139.072 83.1299 156.301C83.1299 173.53 97.0927 187.498 114.317 187.498Z" fill="url(#paint50_linear_427_3492)"/>
<path d="M112.684 189.582C129.908 189.582 143.871 175.615 143.871 158.385C143.871 141.156 129.908 127.189 112.684 127.189C95.4602 127.189 81.4973 141.156 81.4973 158.385C81.4973 175.615 95.4602 189.582 112.684 189.582Z" fill="url(#paint51_linear_427_3492)"/>
<path d="M110.992 191.626C128.216 191.626 142.179 177.659 142.179 160.43C142.179 143.2 128.216 129.233 110.992 129.233C93.7683 129.233 79.8054 143.2 79.8054 160.43C79.8054 177.659 93.7683 191.626 110.992 191.626Z" fill="url(#paint52_linear_427_3492)"/>
<path d="M109.26 193.644C126.484 193.644 140.447 179.677 140.447 162.448C140.447 145.218 126.484 131.251 109.26 131.251C92.0364 131.251 78.0735 145.218 78.0735 162.448C78.0735 179.677 92.0364 193.644 109.26 193.644Z" fill="url(#paint53_linear_427_3492)"/>
<path d="M107.548 195.602C124.773 195.602 138.735 181.635 138.735 164.406C138.735 147.176 124.773 133.209 107.548 133.209C90.3244 133.209 76.3616 147.176 76.3616 164.406C76.3616 181.635 90.3244 195.602 107.548 195.602Z" fill="url(#paint54_linear_427_3492)"/>
<path d="M105.764 197.534C122.988 197.534 136.951 183.566 136.951 166.337C136.951 149.108 122.988 135.141 105.764 135.141C88.5395 135.141 74.5767 149.108 74.5767 166.337C74.5767 183.566 88.5395 197.534 105.764 197.534Z" fill="url(#paint55_linear_427_3492)"/>
<path d="M103.879 199.445C121.103 199.445 135.066 185.478 135.066 168.249C135.066 151.019 121.103 137.052 103.879 137.052C86.655 137.052 72.6921 151.019 72.6921 168.249C72.6921 185.478 86.655 199.445 103.879 199.445Z" fill="url(#paint56_linear_427_3492)"/>
<path d="M101.908 201.33C119.132 201.33 133.095 187.363 133.095 170.134C133.095 152.904 119.132 138.937 101.908 138.937C84.6843 138.937 70.7214 152.904 70.7214 170.134C70.7214 187.363 84.6843 201.33 101.908 201.33Z" fill="url(#paint57_linear_427_3492)"/>
<path d="M99.8644 203.195C117.088 203.195 131.051 189.228 131.051 171.999C131.051 154.77 117.088 140.802 99.8644 140.802C82.6404 140.802 68.6775 154.77 68.6775 171.999C68.6775 189.228 82.6404 203.195 99.8644 203.195Z" fill="url(#paint58_linear_427_3492)"/>
<path d="M97.7477 205.021C114.972 205.021 128.935 191.054 128.935 173.824C128.935 156.595 114.972 142.628 97.7477 142.628C80.5237 142.628 66.5608 156.595 66.5608 173.824C66.5608 191.054 80.5237 205.021 97.7477 205.021Z" fill="url(#paint59_linear_427_3492)"/>
<path d="M95.5646 206.813C112.789 206.813 126.752 192.846 126.752 175.616C126.752 158.387 112.789 144.42 95.5646 144.42C78.3406 144.42 64.3777 158.387 64.3777 175.616C64.3777 192.846 78.3406 206.813 95.5646 206.813Z" fill="url(#paint60_linear_427_3492)"/>
<path d="M93.3351 208.559C110.559 208.559 124.522 194.591 124.522 177.362C124.522 160.133 110.559 146.166 93.3351 146.166C76.1111 146.166 62.1482 160.133 62.1482 177.362C62.1482 194.591 76.1111 208.559 93.3351 208.559Z" fill="url(#paint61_linear_427_3492)"/>
<path d="M91.0527 210.264C108.277 210.264 122.24 196.297 122.24 179.068C122.24 161.839 108.277 147.871 91.0527 147.871C73.8286 147.871 59.8657 161.839 59.8657 179.068C59.8657 196.297 73.8286 210.264 91.0527 210.264Z" fill="url(#paint62_linear_427_3492)"/>
<path d="M88.7367 211.917C105.961 211.917 119.924 197.95 119.924 180.721C119.924 163.491 105.961 149.524 88.7367 149.524C71.5127 149.524 57.5498 163.491 57.5498 180.721C57.5498 197.95 71.5127 211.917 88.7367 211.917Z" fill="url(#paint63_linear_427_3492)"/>
<path d="M86.3879 213.51C103.612 213.51 117.575 199.543 117.575 182.314C117.575 165.084 103.612 151.117 86.3879 151.117C69.1638 151.117 55.2009 165.084 55.2009 182.314C55.2009 199.543 69.1638 213.51 86.3879 213.51Z" fill="url(#paint64_linear_427_3492)"/>
<path d="M84.0124 215.05C101.236 215.05 115.199 201.083 115.199 183.854C115.199 166.624 101.236 152.657 84.0124 152.657C66.7883 152.657 52.8254 166.624 52.8254 183.854C52.8254 201.083 66.7883 215.05 84.0124 215.05Z" fill="url(#paint65_linear_427_3492)"/>
<path d="M81.6235 216.524C98.8475 216.524 112.81 202.557 112.81 185.327C112.81 168.098 98.8475 154.131 81.6235 154.131C64.3994 154.131 50.4365 168.098 50.4365 185.327C50.4365 202.557 64.3994 216.524 81.6235 216.524Z" fill="url(#paint66_linear_427_3492)"/>
<path d="M79.2282 217.931C96.4523 217.931 110.415 203.964 110.415 186.734C110.415 169.505 96.4523 155.538 79.2282 155.538C62.0041 155.538 48.0413 169.505 48.0413 186.734C48.0413 203.964 62.0041 217.931 79.2282 217.931Z" fill="url(#paint67_linear_427_3492)"/>
<path d="M76.8393 219.265C94.0633 219.265 108.026 205.298 108.026 188.068C108.026 170.839 94.0633 156.872 76.8393 156.872C59.6152 156.872 45.6523 170.839 45.6523 188.068C45.6523 205.298 59.6152 219.265 76.8393 219.265Z" fill="url(#paint68_linear_427_3492)"/>
<path d="M74.4506 220.519C91.6747 220.519 105.638 206.552 105.638 189.323C105.638 172.094 91.6747 158.126 74.4506 158.126C57.2265 158.126 43.2637 172.094 43.2637 189.323C43.2637 206.552 57.2265 220.519 74.4506 220.519Z" fill="url(#paint69_linear_427_3492)"/>
<path d="M72.0817 221.694C89.3058 221.694 103.269 207.727 103.269 190.498C103.269 173.268 89.3058 159.301 72.0817 159.301C54.8576 159.301 40.8948 173.268 40.8948 190.498C40.8948 207.727 54.8576 221.694 72.0817 221.694Z" fill="url(#paint70_linear_427_3492)"/>
<path d="M69.7392 222.783C86.9632 222.783 100.926 208.816 100.926 191.586C100.926 174.357 86.9632 160.39 69.7392 160.39C52.5151 160.39 38.5522 174.357 38.5522 191.586C38.5522 208.816 52.5151 222.783 69.7392 222.783Z" fill="url(#paint71_linear_427_3492)"/>
<path d="M67.4301 223.785C84.6542 223.785 98.617 209.818 98.617 192.589C98.617 175.359 84.6542 161.392 67.4301 161.392C50.206 161.392 36.2432 175.359 36.2432 192.589C36.2432 209.818 50.206 223.785 67.4301 223.785Z" fill="url(#paint72_linear_427_3492)"/>
<path d="M65.1542 224.688C82.3783 224.688 96.3411 210.721 96.3411 193.491C96.3411 176.262 82.3783 162.295 65.1542 162.295C47.9302 162.295 33.9673 176.262 33.9673 193.491C33.9673 210.721 47.9302 224.688 65.1542 224.688Z" fill="url(#paint73_linear_427_3492)"/>
<path d="M62.9313 225.498C80.1554 225.498 94.1182 211.53 94.1182 194.301C94.1182 177.072 80.1554 163.105 62.9313 163.105C45.7072 163.105 31.7444 177.072 31.7444 194.301C31.7444 211.53 45.7072 225.498 62.9313 225.498Z" fill="url(#paint74_linear_427_3492)"/>
<path d="M60.7614 226.195C77.9855 226.195 91.9483 212.227 91.9483 194.998C91.9483 177.769 77.9855 163.802 60.7614 163.802C43.5373 163.802 29.5745 177.769 29.5745 194.998C29.5745 212.227 43.5373 226.195 60.7614 226.195Z" fill="url(#paint75_linear_427_3492)"/>
<path d="M58.6579 226.792C75.8819 226.792 89.8448 212.825 89.8448 195.595C89.8448 178.366 75.8819 164.399 58.6579 164.399C41.4338 164.399 27.4709 178.366 27.4709 195.595C27.4709 212.825 41.4338 226.792 58.6579 226.792Z" fill="url(#paint76_linear_427_3492)"/>
<path d="M55.4662 227.622C72.6903 227.622 86.6532 213.655 86.6532 196.425C86.6532 179.196 72.6903 165.229 55.4662 165.229C38.2422 165.229 24.2793 179.196 24.2793 196.425C24.2793 213.655 38.2422 227.622 55.4662 227.622Z" fill="url(#paint77_linear_427_3492)"/>
<path d="M52.1286 228.339C69.3526 228.339 83.3155 214.371 83.3155 197.142C83.3155 179.913 69.3526 165.945 52.1286 165.945C34.9045 165.945 20.9417 179.913 20.9417 197.142C20.9417 214.371 34.9045 228.339 52.1286 228.339Z" fill="url(#paint78_linear_427_3492)"/>
<path d="M48.9767 228.843C66.2008 228.843 80.1637 214.876 80.1637 197.646C80.1637 180.417 66.2008 166.45 48.9767 166.45C31.7527 166.45 17.7898 180.417 17.7898 197.646C17.7898 214.876 31.7527 228.843 48.9767 228.843Z" fill="url(#paint79_linear_427_3492)"/>
<path d="M46.0373 229.128C63.2613 229.128 77.2242 215.161 77.2242 197.932C77.2242 180.703 63.2613 166.735 46.0373 166.735C28.8132 166.735 14.8503 180.703 14.8503 197.932C14.8503 215.161 28.8132 229.128 46.0373 229.128Z" fill="url(#paint80_linear_427_3492)"/>
<path d="M43.33 229.221C60.5541 229.221 74.5169 215.254 74.5169 198.025C74.5169 180.795 60.5541 166.828 43.33 166.828C26.1059 166.828 12.1431 180.795 12.1431 198.025C12.1431 215.254 26.1059 229.221 43.33 229.221Z" fill="url(#paint81_linear_427_3492)"/>
<path d="M40.8549 229.122C58.079 229.122 72.0418 215.155 72.0418 197.925C72.0418 180.696 58.079 166.729 40.8549 166.729C23.6308 166.729 9.66797 180.696 9.66797 197.925C9.66797 215.155 23.6308 229.122 40.8549 229.122Z" fill="url(#paint82_linear_427_3492)"/>
<path d="M38.632 228.843C55.8561 228.843 69.8189 214.876 69.8189 197.646C69.8189 180.417 55.8561 166.45 38.632 166.45C21.4079 166.45 7.44507 180.417 7.44507 197.646C7.44507 214.876 21.4079 228.843 38.632 228.843Z" fill="url(#paint83_linear_427_3492)"/>
<path d="M36.6811 228.385C53.9051 228.385 67.868 214.418 67.868 197.188C67.868 179.959 53.9051 165.992 36.6811 165.992C19.457 165.992 5.49414 179.959 5.49414 197.188C5.49414 214.418 19.457 228.385 36.6811 228.385Z" fill="url(#paint84_linear_427_3492)"/>
<path d="M35.0155 227.768C52.2396 227.768 66.2025 213.801 66.2025 196.571C66.2025 179.342 52.2396 165.375 35.0155 165.375C17.7915 165.375 3.82861 179.342 3.82861 196.571C3.82861 213.801 17.7915 227.768 35.0155 227.768Z" fill="url(#paint85_linear_427_3492)"/>
<path d="M32.8988 226.427C50.1229 226.427 64.0858 212.46 64.0858 195.23C64.0858 178.001 50.1229 164.034 32.8988 164.034C15.6748 164.034 1.71191 178.001 1.71191 195.23C1.71191 212.46 15.6748 226.427 32.8988 226.427Z" fill="url(#paint86_linear_427_3492)"/>
<path d="M31.4921 224.462C48.7162 224.462 62.679 210.495 62.679 193.266C62.679 176.036 48.7162 162.069 31.4921 162.069C14.268 162.069 0.305176 176.036 0.305176 193.266C0.305176 210.495 14.268 224.462 31.4921 224.462Z" fill="url(#paint87_linear_427_3492)"/>
<path d="M31.1869 222.112C48.411 222.112 62.3739 208.145 62.3739 190.916C62.3739 173.687 48.411 159.719 31.1869 159.719C13.9629 159.719 0 173.687 0 190.916C0 208.145 13.9629 222.112 31.1869 222.112Z" fill="url(#paint88_linear_427_3492)"/>
<path d="M32.0097 219.464C49.2338 219.464 63.1966 205.497 63.1966 188.268C63.1966 171.038 49.2338 157.071 32.0097 157.071C14.7856 157.071 0.822754 171.038 0.822754 188.268C0.822754 205.497 14.7856 219.464 32.0097 219.464Z" fill="url(#paint89_linear_427_3492)"/>
<path d="M33.496 217.214C50.7201 217.214 64.683 203.247 64.683 186.017C64.683 168.788 50.7201 154.821 33.496 154.821C16.2719 154.821 2.30908 168.788 2.30908 186.017C2.30908 203.247 16.2719 217.214 33.496 217.214Z" fill="url(#paint90_linear_427_3492)"/>
<path d="M35.1152 215.428C52.3392 215.428 66.3021 201.461 66.3021 184.232C66.3021 167.003 52.3392 153.035 35.1152 153.035C17.8911 153.035 3.92822 167.003 3.92822 184.232C3.92822 201.461 17.8911 215.428 35.1152 215.428Z" fill="url(#paint91_linear_427_3492)"/>
<path d="M36.9997 213.743C54.2237 213.743 68.1866 199.775 68.1866 182.546C68.1866 165.317 54.2237 151.35 36.9997 151.35C19.7756 151.35 5.81274 165.317 5.81274 182.546C5.81274 199.775 19.7756 213.743 36.9997 213.743Z" fill="url(#paint92_linear_427_3492)"/>
<path d="M39.0964 212.169C56.3204 212.169 70.2833 198.202 70.2833 180.973C70.2833 163.744 56.3204 149.776 39.0964 149.776C21.8723 149.776 7.90942 163.744 7.90942 180.973C7.90942 198.202 21.8723 212.169 39.0964 212.169Z" fill="url(#paint93_linear_427_3492)"/>
<path d="M41.3725 210.709C58.5965 210.709 72.5594 196.742 72.5594 179.513C72.5594 162.283 58.5965 148.316 41.3725 148.316C24.1484 148.316 10.1855 162.283 10.1855 179.513C10.1855 196.742 24.1484 210.709 41.3725 210.709Z" fill="url(#paint94_linear_427_3492)"/>
<path d="M43.7878 209.355C61.0118 209.355 74.9747 195.388 74.9747 178.159C74.9747 160.929 61.0118 146.962 43.7878 146.962C26.5637 146.962 12.6008 160.929 12.6008 178.159C12.6008 195.388 26.5637 209.355 43.7878 209.355Z" fill="url(#paint95_linear_427_3492)"/>
<path d="M46.3027 208.121C63.5267 208.121 77.4896 194.153 77.4896 176.924C77.4896 159.695 63.5267 145.728 46.3027 145.728C29.0786 145.728 15.1157 159.695 15.1157 176.924C15.1157 194.153 29.0786 208.121 46.3027 208.121Z" fill="url(#paint96_linear_427_3492)"/>
<path d="M48.8771 206.999C66.1012 206.999 80.064 193.032 80.064 175.802C80.064 158.573 66.1012 144.606 48.8771 144.606C31.6531 144.606 17.6902 158.573 17.6902 175.802C17.6902 193.032 31.6531 206.999 48.8771 206.999Z" fill="url(#paint97_linear_427_3492)"/>
<path d="M51.465 205.99C68.6891 205.99 82.6519 192.023 82.6519 174.793C82.6519 157.564 68.6891 143.597 51.465 143.597C34.2409 143.597 20.2781 157.564 20.2781 174.793C20.2781 192.023 34.2409 205.99 51.465 205.99Z" fill="url(#paint98_linear_427_3492)"/>
<path d="M53.9865 205.114C71.2106 205.114 85.1734 191.147 85.1734 173.917C85.1734 156.688 71.2106 142.721 53.9865 142.721C36.7624 142.721 22.7996 156.688 22.7996 173.917C22.7996 191.147 36.7624 205.114 53.9865 205.114Z" fill="url(#paint99_linear_427_3492)"/>
<path d="M56.4682 204.344C73.6922 204.344 87.6551 190.377 87.6551 173.147C87.6551 155.918 73.6922 141.951 56.4682 141.951C39.2441 141.951 25.2812 155.918 25.2812 173.147C25.2812 190.377 39.2441 204.344 56.4682 204.344Z" fill="url(#paint100_linear_427_3492)"/>
<path d="M58.9897 203.64C76.2137 203.64 90.1766 189.673 90.1766 172.444C90.1766 155.214 76.2137 141.247 58.9897 141.247C41.7656 141.247 27.8027 155.214 27.8027 172.444C27.8027 189.673 41.7656 203.64 58.9897 203.64Z" fill="url(#paint101_linear_427_3492)"/>
<path d="M61.5509 203.003C78.775 203.003 92.7379 189.036 92.7379 171.806C92.7379 154.577 78.775 140.61 61.5509 140.61C44.3269 140.61 30.364 154.577 30.364 171.806C30.364 189.036 44.3269 203.003 61.5509 203.003Z" fill="url(#paint102_linear_427_3492)"/>
<path d="M64.1388 202.432C81.3629 202.432 95.3258 188.465 95.3258 171.236C95.3258 154.006 81.3629 140.039 64.1388 140.039C46.9148 140.039 32.9519 154.006 32.9519 171.236C32.9519 188.465 46.9148 202.432 64.1388 202.432Z" fill="url(#paint103_linear_427_3492)"/>
<path d="M66.7599 201.928C83.984 201.928 97.9469 187.961 97.9469 170.731C97.9469 153.502 83.984 139.535 66.7599 139.535C49.5359 139.535 35.573 153.502 35.573 170.731C35.573 187.961 49.5359 201.928 66.7599 201.928Z" fill="url(#paint104_linear_427_3492)"/>
<path d="M69.4008 201.483C86.6249 201.483 100.588 187.516 100.588 170.286C100.588 153.057 86.6249 139.09 69.4008 139.09C52.1767 139.09 38.2139 153.057 38.2139 170.286C38.2139 187.516 52.1767 201.483 69.4008 201.483Z" fill="url(#paint105_linear_427_3492)"/>
<path d="M72.0551 201.105C89.2792 201.105 103.242 187.137 103.242 169.908C103.242 152.679 89.2792 138.712 72.0551 138.712C54.831 138.712 40.8682 152.679 40.8682 169.908C40.8682 187.137 54.831 201.105 72.0551 201.105Z" fill="url(#paint106_linear_427_3492)"/>
<path d="M74.7292 200.779C91.9532 200.779 105.916 186.812 105.916 169.583C105.916 152.354 91.9532 138.386 74.7292 138.386C57.5051 138.386 43.5422 152.354 43.5422 169.583C43.5422 186.812 57.5051 200.779 74.7292 200.779Z" fill="url(#paint107_linear_427_3492)"/>
<path d="M77.4032 200.514C94.6273 200.514 108.59 186.547 108.59 169.317C108.59 152.088 94.6273 138.121 77.4032 138.121C60.1792 138.121 46.2163 152.088 46.2163 169.317C46.2163 186.547 60.1792 200.514 77.4032 200.514Z" fill="url(#paint108_linear_427_3492)"/>
<path d="M80.0773 200.308C97.3014 200.308 111.264 186.341 111.264 169.112C111.264 151.882 97.3014 137.915 80.0773 137.915C62.8532 137.915 48.8904 151.882 48.8904 169.112C48.8904 186.341 62.8532 200.308 80.0773 200.308Z" fill="url(#paint109_linear_427_3492)"/>
<path d="M82.7516 200.155C99.9757 200.155 113.939 186.188 113.939 168.959C113.939 151.73 99.9757 137.762 82.7516 137.762C65.5276 137.762 51.5647 151.73 51.5647 168.959C51.5647 186.188 65.5276 200.155 82.7516 200.155Z" fill="url(#paint110_linear_427_3492)"/>
<path d="M85.4191 200.049C102.643 200.049 116.606 186.082 116.606 168.853C116.606 151.623 102.643 137.656 85.4191 137.656C68.195 137.656 54.2322 151.623 54.2322 168.853C54.2322 186.082 68.195 200.049 85.4191 200.049Z" fill="url(#paint111_linear_427_3492)"/>
<path d="M88.0666 199.996C105.291 199.996 119.254 186.029 119.254 168.8C119.254 151.57 105.291 137.603 88.0666 137.603C70.8425 137.603 56.8796 151.57 56.8796 168.8C56.8796 186.029 70.8425 199.996 88.0666 199.996Z" fill="url(#paint112_linear_427_3492)"/>
<path d="M90.7472 200.009C107.971 200.009 121.934 186.042 121.934 168.813C121.934 151.584 107.971 137.616 90.7472 137.616C73.5232 137.616 59.5603 151.584 59.5603 168.813C59.5603 186.042 73.5232 200.009 90.7472 200.009Z" fill="url(#paint113_linear_427_3492)"/>
<path d="M93.4347 200.063C110.659 200.063 124.622 186.095 124.622 168.866C124.622 151.637 110.659 137.67 93.4347 137.67C76.2107 137.67 62.2478 151.637 62.2478 168.866C62.2478 186.095 76.2107 200.063 93.4347 200.063Z" fill="url(#paint114_linear_427_3492)"/>
<path d="M96.1088 200.155C113.333 200.155 127.296 186.188 127.296 168.959C127.296 151.73 113.333 137.762 96.1088 137.762C78.8847 137.762 64.9219 151.73 64.9219 168.959C64.9219 186.188 78.8847 200.155 96.1088 200.155Z" fill="url(#paint115_linear_427_3492)"/>
<path d="M98.7829 200.282C116.007 200.282 129.97 186.314 129.97 169.085C129.97 151.856 116.007 137.889 98.7829 137.889C81.5588 137.889 67.5959 151.856 67.5959 169.085C67.5959 186.314 81.5588 200.282 98.7829 200.282Z" fill="url(#paint116_linear_427_3492)"/>
<path d="M101.444 200.441C118.668 200.441 132.631 186.474 132.631 169.244C132.631 152.015 118.668 138.048 101.444 138.048C84.2197 138.048 70.2568 152.015 70.2568 169.244C70.2568 186.474 84.2197 200.441 101.444 200.441Z" fill="url(#paint117_linear_427_3492)"/>
<path d="M104.105 200.633C121.329 200.633 135.292 186.666 135.292 169.437C135.292 152.208 121.329 138.24 104.105 138.24C86.8806 138.24 72.9177 152.208 72.9177 169.437C72.9177 186.666 86.8806 200.633 104.105 200.633Z" fill="url(#paint118_linear_427_3492)"/>
<path d="M106.752 200.859C123.976 200.859 137.939 186.892 137.939 169.663C137.939 152.433 123.976 138.466 106.752 138.466C89.5281 138.466 75.5652 152.433 75.5652 169.663C75.5652 186.892 89.5281 200.859 106.752 200.859Z" fill="url(#paint119_linear_427_3492)"/>
<path d="M109.393 201.125C126.617 201.125 140.58 187.157 140.58 169.928C140.58 152.699 126.617 138.732 109.393 138.732C92.1692 138.732 78.2063 152.699 78.2063 169.928C78.2063 187.157 92.1692 201.125 109.393 201.125Z" fill="url(#paint120_linear_427_3492)"/>
<path d="M112.028 201.417C129.252 201.417 143.214 187.449 143.214 170.22C143.214 152.991 129.252 139.024 112.028 139.024C94.8034 139.024 80.8406 152.991 80.8406 170.22C80.8406 187.449 94.8034 201.417 112.028 201.417Z" fill="url(#paint121_linear_427_3492)"/>
<path d="M114.648 201.748C131.872 201.748 145.835 187.781 145.835 170.552C145.835 153.323 131.872 139.355 114.648 139.355C97.4243 139.355 83.4614 153.323 83.4614 170.552C83.4614 187.781 97.4243 201.748 114.648 201.748Z" fill="url(#paint122_linear_427_3492)"/>
<path d="M117.269 202.107C134.494 202.107 148.456 188.14 148.456 170.91C148.456 153.681 134.494 139.714 117.269 139.714C100.045 139.714 86.0825 153.681 86.0825 170.91C86.0825 188.14 100.045 202.107 117.269 202.107Z" fill="url(#paint123_linear_427_3492)"/>
<path d="M119.877 202.499C137.101 202.499 151.064 188.531 151.064 171.302C151.064 154.073 137.101 140.105 119.877 140.105C102.653 140.105 88.6904 154.073 88.6904 171.302C88.6904 188.531 102.653 202.499 119.877 202.499Z" fill="url(#paint124_linear_427_3492)"/>
<path d="M122.478 202.923C139.703 202.923 153.665 188.956 153.665 171.727C153.665 154.497 139.703 140.53 122.478 140.53C105.254 140.53 91.2915 154.497 91.2915 171.727C91.2915 188.956 105.254 202.923 122.478 202.923Z" fill="url(#paint125_linear_427_3492)"/>
<path d="M125.073 203.375C142.297 203.375 156.26 189.408 156.26 172.178C156.26 154.949 142.297 140.982 125.073 140.982C107.849 140.982 93.886 154.949 93.886 172.178C93.886 189.408 107.849 203.375 125.073 203.375Z" fill="url(#paint126_linear_427_3492)"/>
<path d="M127.661 203.866C144.885 203.866 158.848 189.899 158.848 172.669C158.848 155.44 144.885 141.473 127.661 141.473C110.437 141.473 96.4739 155.44 96.4739 172.669C96.4739 189.899 110.437 203.866 127.661 203.866Z" fill="url(#paint127_linear_427_3492)"/>
<path d="M130.242 204.377C147.466 204.377 161.429 190.41 161.429 173.18C161.429 155.951 147.466 141.984 130.242 141.984C113.018 141.984 99.0549 155.951 99.0549 173.18C99.0549 190.41 113.018 204.377 130.242 204.377Z" fill="url(#paint128_linear_427_3492)"/>
<path d="M132.817 204.928C150.041 204.928 164.003 190.961 164.003 173.731C164.003 156.502 150.041 142.535 132.817 142.535C115.593 142.535 101.63 156.502 101.63 173.731C101.63 190.961 115.593 204.928 132.817 204.928Z" fill="url(#paint129_linear_427_3492)"/>
<path d="M135.378 205.499C152.602 205.499 166.565 191.532 166.565 174.302C166.565 157.073 152.602 143.106 135.378 143.106C118.154 143.106 104.191 157.073 104.191 174.302C104.191 191.532 118.154 205.499 135.378 205.499Z" fill="url(#paint130_linear_427_3492)"/>
<path d="M137.939 206.109C155.163 206.109 169.126 192.142 169.126 174.913C169.126 157.683 155.163 143.716 137.939 143.716C120.715 143.716 106.752 157.683 106.752 174.913C106.752 192.142 120.715 206.109 137.939 206.109Z" fill="url(#paint131_linear_427_3492)"/>
<path d="M140.487 206.74C157.711 206.74 171.674 192.773 171.674 175.543C171.674 158.314 157.711 144.347 140.487 144.347C123.263 144.347 109.3 158.314 109.3 175.543C109.3 192.773 123.263 206.74 140.487 206.74Z" fill="url(#paint132_linear_427_3492)"/>
<path d="M143.028 207.404C160.253 207.404 174.215 193.437 174.215 176.207C174.215 158.978 160.253 145.011 143.028 145.011C125.804 145.011 111.842 158.978 111.842 176.207C111.842 193.437 125.804 207.404 143.028 207.404Z" fill="url(#paint133_linear_427_3492)"/>
<path d="M145.563 208.094C162.787 208.094 176.75 194.127 176.75 176.897C176.75 159.668 162.787 145.701 145.563 145.701C128.339 145.701 114.376 159.668 114.376 176.897C114.376 194.127 128.339 208.094 145.563 208.094Z" fill="url(#paint134_linear_427_3492)"/>
<path d="M148.091 208.811C165.316 208.811 179.278 194.844 179.278 177.614C179.278 160.385 165.316 146.418 148.091 146.418C130.867 146.418 116.905 160.385 116.905 177.614C116.905 194.844 130.867 208.811 148.091 208.811Z" fill="url(#paint135_linear_427_3492)"/>
<path d="M150.606 209.554C167.83 209.554 181.793 195.587 181.793 178.358C181.793 161.128 167.83 147.161 150.606 147.161C133.382 147.161 119.419 161.128 119.419 178.358C119.419 195.587 133.382 209.554 150.606 209.554Z" fill="url(#paint136_linear_427_3492)"/>
<path d="M153.121 210.324C170.345 210.324 184.308 196.357 184.308 179.128C184.308 161.898 170.345 147.931 153.121 147.931C135.897 147.931 121.934 161.898 121.934 179.128C121.934 196.357 135.897 210.324 153.121 210.324Z" fill="url(#paint137_linear_427_3492)"/>
<path d="M155.623 211.127C172.847 211.127 186.81 197.16 186.81 179.931C186.81 162.701 172.847 148.734 155.623 148.734C138.399 148.734 124.436 162.701 124.436 179.931C124.436 197.16 138.399 211.127 155.623 211.127Z" fill="url(#paint138_linear_427_3492)"/>
<path d="M158.124 211.95C175.348 211.95 189.311 197.983 189.311 180.754C189.311 163.525 175.348 149.557 158.124 149.557C140.9 149.557 126.938 163.525 126.938 180.754C126.938 197.983 140.9 211.95 158.124 211.95Z" fill="url(#paint139_linear_427_3492)"/>
<path d="M160.613 212.8C177.837 212.8 191.8 198.833 191.8 181.603C191.8 164.374 177.837 150.407 160.613 150.407C143.389 150.407 129.426 164.374 129.426 181.603C129.426 198.833 143.389 212.8 160.613 212.8Z" fill="url(#paint140_linear_427_3492)"/>
<path d="M163.094 213.676C180.318 213.676 194.281 199.709 194.281 182.48C194.281 165.25 180.318 151.283 163.094 151.283C145.87 151.283 131.907 165.25 131.907 182.48C131.907 199.709 145.87 213.676 163.094 213.676Z" fill="url(#paint141_linear_427_3492)"/>
<path d="M165.569 214.572C182.794 214.572 196.756 200.605 196.756 183.376C196.756 166.146 182.794 152.179 165.569 152.179C148.345 152.179 134.383 166.146 134.383 183.376C134.383 200.605 148.345 214.572 165.569 214.572Z" fill="url(#paint142_linear_427_3492)"/>
<path d="M168.038 215.501C185.262 215.501 199.225 201.534 199.225 184.305C199.225 167.076 185.262 153.108 168.038 153.108C150.814 153.108 136.851 167.076 136.851 184.305C136.851 201.534 150.814 215.501 168.038 215.501Z" fill="url(#paint143_linear_427_3492)"/>
<path d="M170.493 216.451C187.717 216.451 201.68 202.484 201.68 185.254C201.68 168.025 187.717 154.058 170.493 154.058C153.269 154.058 139.306 168.025 139.306 185.254C139.306 202.484 153.269 216.451 170.493 216.451Z" fill="url(#paint144_linear_427_3492)"/>
<path d="M172.948 217.42C190.172 217.42 204.135 203.453 204.135 186.223C204.135 168.994 190.172 155.027 172.948 155.027C155.724 155.027 141.761 168.994 141.761 186.223C141.761 203.453 155.724 217.42 172.948 217.42Z" fill="url(#paint145_linear_427_3492)"/>
<path d="M175.39 218.415C192.614 218.415 206.577 204.448 206.577 187.219C206.577 169.989 192.614 156.022 175.39 156.022C158.166 156.022 144.203 169.989 144.203 187.219C144.203 204.448 158.166 218.415 175.39 218.415Z" fill="url(#paint146_linear_427_3492)"/>
<path d="M177.832 219.431C195.056 219.431 209.019 205.464 209.019 188.234C209.019 171.005 195.056 157.038 177.832 157.038C160.608 157.038 146.645 171.005 146.645 188.234C146.645 205.464 160.608 219.431 177.832 219.431Z" fill="url(#paint147_linear_427_3492)"/>
<path d="M180.26 220.473C197.484 220.473 211.447 206.506 211.447 189.277C211.447 172.047 197.484 158.08 180.26 158.08C163.036 158.08 149.073 172.047 149.073 189.277C149.073 206.506 163.036 220.473 180.26 220.473Z" fill="url(#paint148_linear_427_3492)"/>
<path d="M182.683 221.535C199.907 221.535 213.869 207.568 213.869 190.339C213.869 173.109 199.907 159.142 182.683 159.142C165.458 159.142 151.496 173.109 151.496 190.339C151.496 207.568 165.458 221.535 182.683 221.535Z" fill="url(#paint149_linear_427_3492)"/>
<path d="M185.098 222.624C202.322 222.624 216.285 208.656 216.285 191.427C216.285 174.198 202.322 160.231 185.098 160.231C167.874 160.231 153.911 174.198 153.911 191.427C153.911 208.656 167.874 222.624 185.098 222.624Z" fill="url(#paint150_linear_427_3492)"/>
<path d="M187.506 223.725C204.73 223.725 218.693 209.758 218.693 192.529C218.693 175.3 204.73 161.332 187.506 161.332C170.282 161.332 156.319 175.3 156.319 192.529C156.319 209.758 170.282 223.725 187.506 223.725Z" fill="url(#paint151_linear_427_3492)"/>
<path d="M189.909 224.854C207.133 224.854 221.096 210.887 221.096 193.657C221.096 176.428 207.133 162.461 189.909 162.461C172.685 162.461 158.722 176.428 158.722 193.657C158.722 210.887 172.685 224.854 189.909 224.854Z" fill="url(#paint152_linear_427_3492)"/>
<path d="M192.297 226.002C209.521 226.002 223.484 212.035 223.484 194.806C223.484 177.576 209.521 163.609 192.297 163.609C175.073 163.609 161.11 177.576 161.11 194.806C161.11 212.035 175.073 226.002 192.297 226.002Z" fill="url(#paint153_linear_427_3492)"/>
<path d="M194.686 227.164C211.91 227.164 225.873 213.197 225.873 195.967C225.873 178.738 211.91 164.771 194.686 164.771C177.462 164.771 163.499 178.738 163.499 195.967C163.499 213.197 177.462 227.164 194.686 227.164Z" fill="url(#paint154_linear_427_3492)"/>
<path d="M197.061 228.352C214.286 228.352 228.248 214.385 228.248 197.155C228.248 179.926 214.286 165.959 197.061 165.959C179.837 165.959 165.875 179.926 165.875 197.155C165.875 214.385 179.837 228.352 197.061 228.352Z" fill="url(#paint155_linear_427_3492)"/>
<path d="M199.437 229.56C216.661 229.56 230.624 215.593 230.624 198.363C230.624 181.134 216.661 167.167 199.437 167.167C182.213 167.167 168.25 181.134 168.25 198.363C168.25 215.593 182.213 229.56 199.437 229.56Z" fill="url(#paint156_linear_427_3492)"/>
<path d="M201.799 230.788C219.023 230.788 232.986 216.821 232.986 199.591C232.986 182.362 219.023 168.395 201.799 168.395C184.575 168.395 170.612 182.362 170.612 199.591C170.612 216.821 184.575 230.788 201.799 230.788Z" fill="url(#paint157_linear_427_3492)"/>
<path d="M204.155 232.029C221.379 232.029 235.342 218.062 235.342 200.832C235.342 183.603 221.379 169.636 204.155 169.636C186.931 169.636 172.968 183.603 172.968 200.832C172.968 218.062 186.931 232.029 204.155 232.029Z" fill="url(#paint158_linear_427_3492)"/>
<path d="M206.504 233.29C223.728 233.29 237.691 219.323 237.691 202.094C237.691 184.864 223.728 170.897 206.504 170.897C189.28 170.897 175.317 184.864 175.317 202.094C175.317 219.323 189.28 233.29 206.504 233.29Z" fill="url(#paint159_linear_427_3492)"/>
<path d="M208.846 234.571C226.07 234.571 240.033 220.604 240.033 203.375C240.033 186.145 226.07 172.178 208.846 172.178C191.622 172.178 177.659 186.145 177.659 203.375C177.659 220.604 191.622 234.571 208.846 234.571Z" fill="url(#paint160_linear_427_3492)"/>
<path d="M211.182 235.865C228.406 235.865 242.369 221.898 242.369 204.669C242.369 187.44 228.406 173.472 211.182 173.472C193.958 173.472 179.995 187.44 179.995 204.669C179.995 221.898 193.958 235.865 211.182 235.865Z" fill="url(#paint161_linear_427_3492)"/>
<path d="M213.504 237.18C230.728 237.18 244.691 223.213 244.691 205.983C244.691 188.754 230.728 174.787 213.504 174.787C196.28 174.787 182.317 188.754 182.317 205.983C182.317 223.213 196.28 237.18 213.504 237.18Z" fill="url(#paint162_linear_427_3492)"/>
<path d="M215.827 238.507C233.051 238.507 247.014 224.54 247.014 207.311C247.014 190.081 233.051 176.114 215.827 176.114C198.603 176.114 184.64 190.081 184.64 207.311C184.64 224.54 198.603 238.507 215.827 238.507Z" fill="url(#paint163_linear_427_3492)"/>
<path d="M218.143 239.855C235.367 239.855 249.329 225.888 249.329 208.658C249.329 191.429 235.367 177.462 218.143 177.462C200.918 177.462 186.956 191.429 186.956 208.658C186.956 225.888 200.918 239.855 218.143 239.855Z" fill="url(#paint164_linear_427_3492)"/>
<path d="M220.445 241.215C237.669 241.215 251.632 227.248 251.632 210.019C251.632 192.79 237.669 178.822 220.445 178.822C203.221 178.822 189.258 192.79 189.258 210.019C189.258 227.248 203.221 241.215 220.445 241.215Z" fill="url(#paint165_linear_427_3492)"/>
<path d="M222.741 242.589C239.965 242.589 253.928 228.622 253.928 211.393C253.928 194.164 239.965 180.196 222.741 180.196C205.517 180.196 191.554 194.164 191.554 211.393C191.554 228.622 205.517 242.589 222.741 242.589Z" fill="url(#paint166_linear_427_3492)"/>
<path d="M225.037 243.983C242.261 243.983 256.224 230.016 256.224 212.787C256.224 195.557 242.261 181.59 225.037 181.59C207.813 181.59 193.85 195.557 193.85 212.787C193.85 230.016 207.813 243.983 225.037 243.983Z" fill="url(#paint167_linear_427_3492)"/>
<path d="M227.32 245.39C244.544 245.39 258.507 231.423 258.507 214.194C258.507 196.965 244.544 182.997 227.32 182.997C210.096 182.997 196.133 196.965 196.133 214.194C196.133 231.423 210.096 245.39 227.32 245.39Z" fill="url(#paint168_linear_427_3492)"/>
<path d="M229.596 246.811C246.82 246.811 260.783 232.844 260.783 215.614C260.783 198.385 246.82 184.418 229.596 184.418C212.372 184.418 198.409 198.385 198.409 215.614C198.409 232.844 212.372 246.811 229.596 246.811Z" fill="url(#paint169_linear_427_3492)"/>
<path d="M231.865 248.245C249.089 248.245 263.052 234.277 263.052 217.048C263.052 199.819 249.089 185.852 231.865 185.852C214.641 185.852 200.678 199.819 200.678 217.048C200.678 234.277 214.641 248.245 231.865 248.245Z" fill="url(#paint170_linear_427_3492)"/>
<path d="M234.127 249.692C251.351 249.692 265.314 235.724 265.314 218.495C265.314 201.266 251.351 187.299 234.127 187.299C216.903 187.299 202.94 201.266 202.94 218.495C202.94 235.724 216.903 249.692 234.127 249.692Z" fill="url(#paint171_linear_427_3492)"/>
<path d="M236.384 251.152C253.608 251.152 267.571 237.185 267.571 219.955C267.571 202.726 253.608 188.759 236.384 188.759C219.16 188.759 205.197 202.726 205.197 219.955C205.197 237.185 219.16 251.152 236.384 251.152Z" fill="url(#paint172_linear_427_3492)"/>
<path d="M238.626 252.625C255.85 252.625 269.813 238.658 269.813 221.429C269.813 204.199 255.85 190.232 238.626 190.232C221.402 190.232 207.439 204.199 207.439 221.429C207.439 238.658 221.402 252.625 238.626 252.625Z" fill="url(#paint173_linear_427_3492)"/>
<path d="M240.869 254.112C258.093 254.112 272.056 240.145 272.056 222.916C272.056 205.686 258.093 191.719 240.869 191.719C223.645 191.719 209.682 205.686 209.682 222.916C209.682 240.145 223.645 254.112 240.869 254.112Z" fill="url(#paint174_linear_427_3492)"/>
<path d="M243.105 255.606C260.329 255.606 274.292 241.638 274.292 224.409C274.292 207.18 260.329 193.213 243.105 193.213C225.881 193.213 211.918 207.18 211.918 224.409C211.918 241.638 225.881 255.606 243.105 255.606Z" fill="url(#paint175_linear_427_3492)"/>
<path d="M245.329 257.119C262.553 257.119 276.515 243.152 276.515 225.922C276.515 208.693 262.553 194.726 245.329 194.726C228.104 194.726 214.142 208.693 214.142 225.922C214.142 243.152 228.104 257.119 245.329 257.119Z" fill="url(#paint176_linear_427_3492)"/>
<path d="M247.545 258.632C264.769 258.632 278.732 244.665 278.732 227.436C278.732 210.206 264.769 196.239 247.545 196.239C230.321 196.239 216.358 210.206 216.358 227.436C216.358 244.665 230.321 258.632 247.545 258.632Z" fill="url(#paint177_linear_427_3492)"/>
<path d="M249.761 260.166C266.985 260.166 280.948 246.198 280.948 228.969C280.948 211.74 266.985 197.773 249.761 197.773C232.537 197.773 218.574 211.74 218.574 228.969C218.574 246.198 232.537 260.166 249.761 260.166Z" fill="url(#paint178_linear_427_3492)"/>
<path d="M251.964 261.706C269.188 261.706 283.151 247.738 283.151 230.509C283.151 213.28 269.188 199.312 251.964 199.312C234.74 199.312 220.777 213.28 220.777 230.509C220.777 247.738 234.74 261.706 251.964 261.706Z" fill="url(#paint179_linear_427_3492)"/>
<path d="M254.16 263.252C271.384 263.252 285.347 249.285 285.347 232.056C285.347 214.826 271.384 200.859 254.16 200.859C236.936 200.859 222.973 214.826 222.973 232.056C222.973 249.285 236.936 263.252 254.16 263.252Z" fill="url(#paint180_linear_427_3492)"/>
<path d="M256.35 264.812C273.574 264.812 287.537 250.845 287.537 233.615C287.537 216.386 273.574 202.419 256.35 202.419C239.126 202.419 225.163 216.386 225.163 233.615C225.163 250.845 239.126 264.812 256.35 264.812Z" fill="url(#paint181_linear_427_3492)"/>
<path d="M258.533 266.378C275.757 266.378 289.72 252.411 289.72 235.182C289.72 217.953 275.757 203.985 258.533 203.985C241.309 203.985 227.346 217.953 227.346 235.182C227.346 252.411 241.309 266.378 258.533 266.378Z" fill="url(#paint182_linear_427_3492)"/>
<path d="M260.709 267.958C277.933 267.958 291.896 253.991 291.896 236.762C291.896 219.532 277.933 205.565 260.709 205.565C243.485 205.565 229.522 219.532 229.522 236.762C229.522 253.991 243.485 267.958 260.709 267.958Z" fill="url(#paint183_linear_427_3492)"/>
<path d="M262.879 269.544C280.103 269.544 294.066 255.577 294.066 238.348C294.066 221.119 280.103 207.151 262.879 207.151C245.655 207.151 231.692 221.119 231.692 238.348C231.692 255.577 245.655 269.544 262.879 269.544Z" fill="url(#paint184_linear_427_3492)"/>
<path d="M265.042 271.131C282.266 271.131 296.229 257.164 296.229 239.934C296.229 222.705 282.266 208.738 265.042 208.738C247.818 208.738 233.855 222.705 233.855 239.934C233.855 257.164 247.818 271.131 265.042 271.131Z" fill="url(#paint185_linear_427_3492)"/>
<path d="M267.199 272.73C284.423 272.73 298.386 258.763 298.386 241.534C298.386 224.305 284.423 210.337 267.199 210.337C249.975 210.337 236.012 224.305 236.012 241.534C236.012 258.763 249.975 272.73 267.199 272.73Z" fill="url(#paint186_linear_427_3492)"/>
<path d="M269.349 274.343C286.573 274.343 300.536 260.376 300.536 243.147C300.536 225.918 286.573 211.95 269.349 211.95C252.125 211.95 238.162 225.918 238.162 243.147C238.162 260.376 252.125 274.343 269.349 274.343Z" fill="url(#paint187_linear_427_3492)"/>
<path d="M271.486 275.956C288.71 275.956 302.673 261.989 302.673 244.76C302.673 227.53 288.71 213.563 271.486 213.563C254.262 213.563 240.299 227.53 240.299 244.76C240.299 261.989 254.262 275.956 271.486 275.956Z" fill="url(#paint188_linear_427_3492)"/>
<path d="M273.622 277.576C290.846 277.576 304.809 263.609 304.809 246.379C304.809 229.15 290.846 215.183 273.622 215.183C256.398 215.183 242.435 229.15 242.435 246.379C242.435 263.609 256.398 277.576 273.622 277.576Z" fill="url(#paint189_linear_427_3492)"/>
<path d="M275.746 279.195C292.97 279.195 306.932 265.228 306.932 247.999C306.932 230.77 292.97 216.802 275.746 216.802C258.521 216.802 244.559 230.77 244.559 247.999C244.559 265.228 258.521 279.195 275.746 279.195Z" fill="url(#paint190_linear_427_3492)"/>
<path d="M277.869 280.828C295.093 280.828 309.056 266.861 309.056 249.632C309.056 232.402 295.093 218.435 277.869 218.435C260.645 218.435 246.682 232.402 246.682 249.632C246.682 266.861 260.645 280.828 277.869 280.828Z" fill="url(#paint191_linear_427_3492)"/>
<path d="M279.979 282.461C297.203 282.461 311.166 268.494 311.166 251.265C311.166 234.035 297.203 220.068 279.979 220.068C262.755 220.068 248.792 234.035 248.792 251.265C248.792 268.494 262.755 282.461 279.979 282.461Z" fill="url(#paint192_linear_427_3492)"/>
<path d="M282.089 284.107C299.313 284.107 313.276 270.14 313.276 252.911C313.276 235.681 299.313 221.714 282.089 221.714C264.865 221.714 250.902 235.681 250.902 252.911C250.902 270.14 264.865 284.107 282.089 284.107Z" fill="url(#paint193_linear_427_3492)"/>
<path d="M284.186 285.747C301.41 285.747 315.373 271.78 315.373 254.55C315.373 237.321 301.41 223.354 284.186 223.354C266.962 223.354 252.999 237.321 252.999 254.55C252.999 271.78 266.962 285.747 284.186 285.747Z" fill="url(#paint194_linear_427_3492)"/>
<path d="M286.276 287.399C303.5 287.399 317.463 273.432 317.463 256.203C317.463 238.974 303.5 225.006 286.276 225.006C269.052 225.006 255.089 238.974 255.089 256.203C255.089 273.432 269.052 287.399 286.276 287.399Z" fill="url(#paint195_linear_427_3492)"/>
<path d="M288.36 289.046C305.584 289.046 319.547 275.078 319.547 257.849C319.547 240.62 305.584 226.653 288.36 226.653C271.136 226.653 257.173 240.62 257.173 257.849C257.173 275.078 271.136 289.046 288.36 289.046Z" fill="url(#paint196_linear_427_3492)"/>
<path d="M290.436 290.705C307.66 290.705 321.623 276.738 321.623 259.508C321.623 242.279 307.66 228.312 290.436 228.312C273.212 228.312 259.25 242.279 259.25 259.508C259.25 276.738 273.212 290.705 290.436 290.705Z" fill="url(#paint197_linear_427_3492)"/>
<path d="M292.514 292.358C309.738 292.358 323.701 278.391 323.701 261.161C323.701 243.932 309.738 229.965 292.514 229.965C275.29 229.965 261.327 243.932 261.327 261.161C261.327 278.391 275.29 292.358 292.514 292.358Z" fill="url(#paint198_linear_427_3492)"/>
<path d="M294.577 294.017C311.801 294.017 325.764 280.05 325.764 262.821C325.764 245.591 311.801 231.624 294.577 231.624C277.353 231.624 263.39 245.591 263.39 262.821C263.39 280.05 277.353 294.017 294.577 294.017Z" fill="url(#paint199_linear_427_3492)"/>
<path d="M296.634 295.683C313.858 295.683 327.821 281.716 327.821 264.487C327.821 247.257 313.858 233.29 296.634 233.29C279.41 233.29 265.447 247.257 265.447 264.487C265.447 281.716 279.41 295.683 296.634 295.683Z" fill="url(#paint200_linear_427_3492)"/>
<path d="M298.684 297.343C315.909 297.343 329.871 283.375 329.871 266.146C329.871 248.917 315.909 234.95 298.684 234.95C281.46 234.95 267.498 248.917 267.498 266.146C267.498 283.375 281.46 297.343 298.684 297.343Z" fill="url(#paint201_linear_427_3492)"/>
<path d="M300.722 299.009C317.946 299.009 331.909 285.041 331.909 267.812C331.909 250.583 317.946 236.616 300.722 236.616C283.498 236.616 269.535 250.583 269.535 267.812C269.535 285.041 283.498 299.009 300.722 299.009Z" fill="url(#paint202_linear_427_3492)"/>
<path d="M302.759 300.668C319.983 300.668 333.946 286.701 333.946 269.471C333.946 252.242 319.983 238.275 302.759 238.275C285.535 238.275 271.572 252.242 271.572 269.471C271.572 286.701 285.535 300.668 302.759 300.668Z" fill="url(#paint203_linear_427_3492)"/>
<path d="M304.789 302.334C322.014 302.334 335.976 288.367 335.976 271.137C335.976 253.908 322.014 239.941 304.789 239.941C287.565 239.941 273.603 253.908 273.603 271.137C273.603 288.367 287.565 302.334 304.789 302.334Z" fill="url(#paint204_linear_427_3492)"/>
<path d="M306.813 304C324.037 304 338 290.033 338 272.804C338 255.574 324.037 241.607 306.813 241.607C289.589 241.607 275.626 255.574 275.626 272.804C275.626 290.033 289.589 304 306.813 304Z" fill="url(#paint205_linear_427_3492)"/>
</g>
<defs>
<linearGradient id="paint0_linear_427_3492" x1="154.86" y1="0" x2="154.86" y2="62.393" gradientUnits="userSpaceOnUse">
<stop stop-color="#96E072"/>
<stop offset="1" stop-color="#3DA35D"/>
</linearGradient>
<linearGradient id="paint1_linear_427_3492" x1="154.462" y1="2.5621" x2="154.462" y2="64.9551" gradientUnits="userSpaceOnUse">
<stop stop-color="#96E072"/>
<stop offset="1" stop-color="#3DA35D"/>
</linearGradient>
<linearGradient id="paint2_linear_427_3492" x1="154.063" y1="5.13747" x2="154.063" y2="67.5305" gradientUnits="userSpaceOnUse">
<stop stop-color="#96E072"/>
<stop offset="1" stop-color="#3DA35D"/>
</linearGradient>
<linearGradient id="paint3_linear_427_3492" x1="153.659" y1="7.71948" x2="153.659" y2="70.1125" gradientUnits="userSpaceOnUse">
<stop stop-color="#96E072"/>
<stop offset="1" stop-color="#3DA35D"/>
</linearGradient>
<linearGradient id="paint4_linear_427_3492" x1="153.254" y1="10.3148" x2="153.254" y2="72.7078" gradientUnits="userSpaceOnUse">
<stop stop-color="#96E072"/>
<stop offset="1" stop-color="#3DA35D"/>
</linearGradient>
<linearGradient id="paint5_linear_427_3492" x1="152.842" y1="12.9167" x2="152.842" y2="75.3097" gradientUnits="userSpaceOnUse">
<stop stop-color="#96E072"/>
<stop offset="1" stop-color="#3DA35D"/>
</linearGradient>
<linearGradient id="paint6_linear_427_3492" x1="152.424" y1="15.5252" x2="152.424" y2="77.9183" gradientUnits="userSpaceOnUse">
<stop stop-color="#96E072"/>
<stop offset="1" stop-color="#3DA35D"/>
</linearGradient>
<linearGradient id="paint7_linear_427_3492" x1="152.007" y1="18.1404" x2="152.007" y2="80.5335" gradientUnits="userSpaceOnUse">
<stop stop-color="#96E072"/>
<stop offset="1" stop-color="#3DA35D"/>
</linearGradient>
<linearGradient id="paint8_linear_427_3492" x1="151.575" y1="20.7623" x2="151.575" y2="83.1553" gradientUnits="userSpaceOnUse">
<stop stop-color="#96E072"/>
<stop offset="1" stop-color="#3DA35D"/>
</linearGradient>
<linearGradient id="paint9_linear_427_3492" x1="151.131" y1="23.3907" x2="151.131" y2="85.7838" gradientUnits="userSpaceOnUse">
<stop stop-color="#96E072"/>
<stop offset="1" stop-color="#3DA35D"/>
</linearGradient>
<linearGradient id="paint10_linear_427_3492" x1="150.686" y1="26.0192" x2="150.686" y2="88.4122" gradientUnits="userSpaceOnUse">
<stop stop-color="#96E072"/>
<stop offset="1" stop-color="#3DA35D"/>
</linearGradient>
<linearGradient id="paint11_linear_427_3492" x1="150.228" y1="28.6543" x2="150.228" y2="91.0473" gradientUnits="userSpaceOnUse">
<stop stop-color="#96E072"/>
<stop offset="1" stop-color="#3DA35D"/>
</linearGradient>
<linearGradient id="paint12_linear_427_3492" x1="149.757" y1="31.2961" x2="149.757" y2="93.6891" gradientUnits="userSpaceOnUse">
<stop stop-color="#96E072"/>
<stop offset="1" stop-color="#3DA35D"/>
</linearGradient>
<linearGradient id="paint13_linear_427_3492" x1="149.273" y1="33.9312" x2="149.273" y2="96.3242" gradientUnits="userSpaceOnUse">
<stop stop-color="#96E072"/>
<stop offset="1" stop-color="#3DA35D"/>
</linearGradient>
<linearGradient id="paint14_linear_427_3492" x1="148.782" y1="36.5729" x2="148.782" y2="98.966" gradientUnits="userSpaceOnUse">
<stop stop-color="#96E072"/>
<stop offset="1" stop-color="#3DA35D"/>
</linearGradient>
<linearGradient id="paint15_linear_427_3492" x1="148.271" y1="39.2147" x2="148.271" y2="101.608" gradientUnits="userSpaceOnUse">
<stop stop-color="#96E072"/>
<stop offset="1" stop-color="#3DA35D"/>
</linearGradient>
<linearGradient id="paint16_linear_427_3492" x1="147.747" y1="41.8564" x2="147.747" y2="104.249" gradientUnits="userSpaceOnUse">
<stop stop-color="#96E072"/>
<stop offset="1" stop-color="#3DA35D"/>
</linearGradient>
<linearGradient id="paint17_linear_427_3492" x1="147.209" y1="44.4915" x2="147.209" y2="106.885" gradientUnits="userSpaceOnUse">
<stop stop-color="#96E072"/>
<stop offset="1" stop-color="#3DA35D"/>
</linearGradient>
<linearGradient id="paint18_linear_427_3492" x1="146.652" y1="47.1266" x2="146.652" y2="109.52" gradientUnits="userSpaceOnUse">
<stop stop-color="#96E072"/>
<stop offset="1" stop-color="#3DA35D"/>
</linearGradient>
<linearGradient id="paint19_linear_427_3492" x1="146.074" y1="49.7617" x2="146.074" y2="112.155" gradientUnits="userSpaceOnUse">
<stop stop-color="#96E072"/>
<stop offset="1" stop-color="#3DA35D"/>
</linearGradient>
<linearGradient id="paint20_linear_427_3492" x1="145.477" y1="52.3902" x2="145.477" y2="114.783" gradientUnits="userSpaceOnUse">
<stop stop-color="#96E072"/>
<stop offset="1" stop-color="#3DA35D"/>
</linearGradient>
<linearGradient id="paint21_linear_427_3492" x1="144.867" y1="55.0121" x2="144.867" y2="117.405" gradientUnits="userSpaceOnUse">
<stop stop-color="#96E072"/>
<stop offset="1" stop-color="#3DA35D"/>
</linearGradient>
<linearGradient id="paint22_linear_427_3492" x1="144.23" y1="57.6273" x2="144.23" y2="120.02" gradientUnits="userSpaceOnUse">
<stop stop-color="#96E072"/>
<stop offset="1" stop-color="#3DA35D"/>
</linearGradient>
<linearGradient id="paint23_linear_427_3492" x1="143.579" y1="60.2424" x2="143.579" y2="122.635" gradientUnits="userSpaceOnUse">
<stop stop-color="#96E072"/>
<stop offset="1" stop-color="#3DA35D"/>
</linearGradient>
<linearGradient id="paint24_linear_427_3492" x1="142.903" y1="62.8444" x2="142.903" y2="125.237" gradientUnits="userSpaceOnUse">
<stop stop-color="#96E072"/>
<stop offset="1" stop-color="#3DA35D"/>
</linearGradient>
<linearGradient id="paint25_linear_427_3492" x1="142.199" y1="65.4396" x2="142.199" y2="127.833" gradientUnits="userSpaceOnUse">
<stop stop-color="#96E072"/>
<stop offset="1" stop-color="#3DA35D"/>
</linearGradient>
<linearGradient id="paint26_linear_427_3492" x1="141.469" y1="68.0217" x2="141.469" y2="130.415" gradientUnits="userSpaceOnUse">
<stop stop-color="#96E072"/>
<stop offset="1" stop-color="#3DA35D"/>
</linearGradient>
<linearGradient id="paint27_linear_427_3492" x1="140.719" y1="70.597" x2="140.719" y2="132.99" gradientUnits="userSpaceOnUse">
<stop stop-color="#96E072"/>
<stop offset="1" stop-color="#3DA35D"/>
</linearGradient>
<linearGradient id="paint28_linear_427_3492" x1="139.943" y1="73.1658" x2="139.943" y2="135.559" gradientUnits="userSpaceOnUse">
<stop stop-color="#96E072"/>
<stop offset="1" stop-color="#3DA35D"/>
</linearGradient>
<linearGradient id="paint29_linear_427_3492" x1="139.14" y1="75.7146" x2="139.14" y2="138.108" gradientUnits="userSpaceOnUse">
<stop stop-color="#96E072"/>
<stop offset="1" stop-color="#3DA35D"/>
</linearGradient>
<linearGradient id="paint30_linear_427_3492" x1="138.304" y1="78.2568" x2="138.304" y2="140.65" gradientUnits="userSpaceOnUse">
<stop stop-color="#96E072"/>
<stop offset="1" stop-color="#3DA35D"/>
</linearGradient>
<linearGradient id="paint31_linear_427_3492" x1="137.448" y1="80.7857" x2="137.448" y2="143.179" gradientUnits="userSpaceOnUse">
<stop stop-color="#96E072"/>
<stop offset="1" stop-color="#3DA35D"/>
</linearGradient>
<linearGradient id="paint32_linear_427_3492" x1="136.552" y1="83.2947" x2="136.552" y2="145.688" gradientUnits="userSpaceOnUse">
<stop stop-color="#96E072"/>
<stop offset="1" stop-color="#3DA35D"/>
</linearGradient>
<linearGradient id="paint33_linear_427_3492" x1="135.63" y1="85.7904" x2="135.63" y2="148.183" gradientUnits="userSpaceOnUse">
<stop stop-color="#96E072"/>
<stop offset="1" stop-color="#3DA35D"/>
</linearGradient>
<linearGradient id="paint34_linear_427_3492" x1="134.681" y1="88.2728" x2="134.681" y2="150.666" gradientUnits="userSpaceOnUse">
<stop stop-color="#96E072"/>
<stop offset="1" stop-color="#3DA35D"/>
</linearGradient>
<linearGradient id="paint35_linear_427_3492" x1="133.692" y1="90.7354" x2="133.692" y2="153.128" gradientUnits="userSpaceOnUse">
<stop stop-color="#96E072"/>
<stop offset="1" stop-color="#3DA35D"/>
</linearGradient>
<linearGradient id="paint36_linear_427_3492" x1="132.671" y1="93.1846" x2="132.671" y2="155.578" gradientUnits="userSpaceOnUse">
<stop stop-color="#96E072"/>
<stop offset="1" stop-color="#3DA35D"/>
</linearGradient>
<linearGradient id="paint37_linear_427_3492" x1="131.615" y1="95.614" x2="131.615" y2="158.007" gradientUnits="userSpaceOnUse">
<stop stop-color="#96E072"/>
<stop offset="1" stop-color="#3DA35D"/>
</linearGradient>
<linearGradient id="paint38_linear_427_3492" x1="130.527" y1="98.0234" x2="130.527" y2="160.416" gradientUnits="userSpaceOnUse">
<stop stop-color="#96E072"/>
<stop offset="1" stop-color="#3DA35D"/>
</linearGradient>
<linearGradient id="paint39_linear_427_3492" x1="129.399" y1="100.413" x2="129.399" y2="162.806" gradientUnits="userSpaceOnUse">
<stop stop-color="#96E072"/>
<stop offset="1" stop-color="#3DA35D"/>
</linearGradient>
<linearGradient id="paint40_linear_427_3492" x1="128.231" y1="102.776" x2="128.231" y2="165.169" gradientUnits="userSpaceOnUse">
<stop stop-color="#96E072"/>
<stop offset="1" stop-color="#3DA35D"/>
</linearGradient>
<linearGradient id="paint41_linear_427_3492" x1="127.03" y1="105.126" x2="127.03" y2="167.519" gradientUnits="userSpaceOnUse">
<stop stop-color="#96E072"/>
<stop offset="1" stop-color="#3DA35D"/>
</linearGradient>
<linearGradient id="paint42_linear_427_3492" x1="125.789" y1="107.449" x2="125.789" y2="169.842" gradientUnits="userSpaceOnUse">
<stop stop-color="#96E072"/>
<stop offset="1" stop-color="#3DA35D"/>
</linearGradient>
<linearGradient id="paint43_linear_427_3492" x1="124.502" y1="109.745" x2="124.502" y2="172.138" gradientUnits="userSpaceOnUse">
<stop stop-color="#96E072"/>
<stop offset="1" stop-color="#3DA35D"/>
</linearGradient>
<linearGradient id="paint44_linear_427_3492" x1="123.182" y1="112.022" x2="123.182" y2="174.415" gradientUnits="userSpaceOnUse">
<stop stop-color="#96E072"/>
<stop offset="1" stop-color="#3DA35D"/>
</linearGradient>
<linearGradient id="paint45_linear_427_3492" x1="121.815" y1="114.272" x2="121.815" y2="176.665" gradientUnits="userSpaceOnUse">
<stop stop-color="#96E072"/>
<stop offset="1" stop-color="#3DA35D"/>
</linearGradient>
<linearGradient id="paint46_linear_427_3492" x1="120.408" y1="116.496" x2="120.408" y2="178.889" gradientUnits="userSpaceOnUse">
<stop stop-color="#96E072"/>
<stop offset="1" stop-color="#3DA35D"/>
</linearGradient>
<linearGradient id="paint47_linear_427_3492" x1="118.955" y1="118.686" x2="118.955" y2="181.079" gradientUnits="userSpaceOnUse">
<stop stop-color="#96E072"/>
<stop offset="1" stop-color="#3DA35D"/>
</linearGradient>
<linearGradient id="paint48_linear_427_3492" x1="117.455" y1="120.857" x2="117.455" y2="183.25" gradientUnits="userSpaceOnUse">
<stop stop-color="#96E072"/>
<stop offset="1" stop-color="#3DA35D"/>
</linearGradient>
<linearGradient id="paint49_linear_427_3492" x1="115.909" y1="122.994" x2="115.909" y2="185.387" gradientUnits="userSpaceOnUse">
<stop stop-color="#96E072"/>
<stop offset="1" stop-color="#3DA35D"/>
</linearGradient>
<linearGradient id="paint50_linear_427_3492" x1="114.317" y1="125.105" x2="114.317" y2="187.498" gradientUnits="userSpaceOnUse">
<stop stop-color="#96E072"/>
<stop offset="1" stop-color="#3DA35D"/>
</linearGradient>
<linearGradient id="paint51_linear_427_3492" x1="112.684" y1="127.189" x2="112.684" y2="189.582" gradientUnits="userSpaceOnUse">
<stop stop-color="#96E072"/>
<stop offset="1" stop-color="#3DA35D"/>
</linearGradient>
<linearGradient id="paint52_linear_427_3492" x1="110.992" y1="129.233" x2="110.992" y2="191.626" gradientUnits="userSpaceOnUse">
<stop stop-color="#96E072"/>
<stop offset="1" stop-color="#3DA35D"/>
</linearGradient>
<linearGradient id="paint53_linear_427_3492" x1="109.26" y1="131.251" x2="109.26" y2="193.644" gradientUnits="userSpaceOnUse">
<stop stop-color="#96E072"/>
<stop offset="1" stop-color="#3DA35D"/>
</linearGradient>
<linearGradient id="paint54_linear_427_3492" x1="107.549" y1="133.209" x2="107.549" y2="195.602" gradientUnits="userSpaceOnUse">
<stop stop-color="#96E072"/>
<stop offset="1" stop-color="#3DA35D"/>
</linearGradient>
<linearGradient id="paint55_linear_427_3492" x1="105.764" y1="135.141" x2="105.764" y2="197.534" gradientUnits="userSpaceOnUse">
<stop stop-color="#96E072"/>
<stop offset="1" stop-color="#3DA35D"/>
</linearGradient>
<linearGradient id="paint56_linear_427_3492" x1="103.879" y1="137.052" x2="103.879" y2="199.445" gradientUnits="userSpaceOnUse">
<stop stop-color="#96E072"/>
<stop offset="1" stop-color="#3DA35D"/>
</linearGradient>
<linearGradient id="paint57_linear_427_3492" x1="101.908" y1="138.937" x2="101.908" y2="201.33" gradientUnits="userSpaceOnUse">
<stop stop-color="#96E072"/>
<stop offset="1" stop-color="#3DA35D"/>
</linearGradient>
<linearGradient id="paint58_linear_427_3492" x1="99.8644" y1="140.802" x2="99.8644" y2="203.195" gradientUnits="userSpaceOnUse">
<stop stop-color="#96E072"/>
<stop offset="1" stop-color="#3DA35D"/>
</linearGradient>
<linearGradient id="paint59_linear_427_3492" x1="97.7477" y1="142.628" x2="97.7477" y2="205.021" gradientUnits="userSpaceOnUse">
<stop stop-color="#96E072"/>
<stop offset="1" stop-color="#3DA35D"/>
</linearGradient>
<linearGradient id="paint60_linear_427_3492" x1="95.5646" y1="144.42" x2="95.5646" y2="206.813" gradientUnits="userSpaceOnUse">
<stop stop-color="#96E072"/>
<stop offset="1" stop-color="#3DA35D"/>
</linearGradient>
<linearGradient id="paint61_linear_427_3492" x1="93.3351" y1="146.166" x2="93.3351" y2="208.559" gradientUnits="userSpaceOnUse">
<stop stop-color="#96E072"/>
<stop offset="1" stop-color="#3DA35D"/>
</linearGradient>
<linearGradient id="paint62_linear_427_3492" x1="91.0527" y1="147.871" x2="91.0527" y2="210.264" gradientUnits="userSpaceOnUse">
<stop stop-color="#96E072"/>
<stop offset="1" stop-color="#3DA35D"/>
</linearGradient>
<linearGradient id="paint63_linear_427_3492" x1="88.7367" y1="149.524" x2="88.7367" y2="211.917" gradientUnits="userSpaceOnUse">
<stop stop-color="#96E072"/>
<stop offset="1" stop-color="#3DA35D"/>
</linearGradient>
<linearGradient id="paint64_linear_427_3492" x1="86.3879" y1="151.117" x2="86.3879" y2="213.51" gradientUnits="userSpaceOnUse">
<stop stop-color="#96E072"/>
<stop offset="1" stop-color="#3DA35D"/>
</linearGradient>
<linearGradient id="paint65_linear_427_3492" x1="84.0124" y1="152.657" x2="84.0124" y2="215.05" gradientUnits="userSpaceOnUse">
<stop stop-color="#96E072"/>
<stop offset="1" stop-color="#3DA35D"/>
</linearGradient>
<linearGradient id="paint66_linear_427_3492" x1="81.6235" y1="154.131" x2="81.6235" y2="216.524" gradientUnits="userSpaceOnUse">
<stop stop-color="#96E072"/>
<stop offset="1" stop-color="#3DA35D"/>
</linearGradient>
<linearGradient id="paint67_linear_427_3492" x1="79.2282" y1="155.538" x2="79.2282" y2="217.931" gradientUnits="userSpaceOnUse">
<stop stop-color="#96E072"/>
<stop offset="1" stop-color="#3DA35D"/>
</linearGradient>
<linearGradient id="paint68_linear_427_3492" x1="76.8393" y1="156.872" x2="76.8393" y2="219.265" gradientUnits="userSpaceOnUse">
<stop stop-color="#96E072"/>
<stop offset="1" stop-color="#3DA35D"/>
</linearGradient>
<linearGradient id="paint69_linear_427_3492" x1="74.4506" y1="158.126" x2="74.4506" y2="220.519" gradientUnits="userSpaceOnUse">
<stop stop-color="#96E072"/>
<stop offset="1" stop-color="#3DA35D"/>
</linearGradient>
<linearGradient id="paint70_linear_427_3492" x1="72.0817" y1="159.301" x2="72.0817" y2="221.694" gradientUnits="userSpaceOnUse">
<stop stop-color="#96E072"/>
<stop offset="1" stop-color="#3DA35D"/>
</linearGradient>
<linearGradient id="paint71_linear_427_3492" x1="69.7392" y1="160.39" x2="69.7392" y2="222.783" gradientUnits="userSpaceOnUse">
<stop stop-color="#96E072"/>
<stop offset="1" stop-color="#3DA35D"/>
</linearGradient>
<linearGradient id="paint72_linear_427_3492" x1="67.4301" y1="161.392" x2="67.4301" y2="223.785" gradientUnits="userSpaceOnUse">
<stop stop-color="#96E072"/>
<stop offset="1" stop-color="#3DA35D"/>
</linearGradient>
<linearGradient id="paint73_linear_427_3492" x1="65.1542" y1="162.295" x2="65.1542" y2="224.688" gradientUnits="userSpaceOnUse">
<stop stop-color="#96E072"/>
<stop offset="1" stop-color="#3DA35D"/>
</linearGradient>
<linearGradient id="paint74_linear_427_3492" x1="62.9313" y1="163.105" x2="62.9313" y2="225.498" gradientUnits="userSpaceOnUse">
<stop stop-color="#96E072"/>
<stop offset="1" stop-color="#3DA35D"/>
</linearGradient>
<linearGradient id="paint75_linear_427_3492" x1="60.7614" y1="163.802" x2="60.7614" y2="226.195" gradientUnits="userSpaceOnUse">
<stop stop-color="#96E072"/>
<stop offset="1" stop-color="#3DA35D"/>
</linearGradient>
<linearGradient id="paint76_linear_427_3492" x1="58.6579" y1="164.399" x2="58.6579" y2="226.792" gradientUnits="userSpaceOnUse">
<stop stop-color="#96E072"/>
<stop offset="1" stop-color="#3DA35D"/>
</linearGradient>
<linearGradient id="paint77_linear_427_3492" x1="55.4662" y1="165.229" x2="55.4662" y2="227.622" gradientUnits="userSpaceOnUse">
<stop stop-color="#96E072"/>
<stop offset="1" stop-color="#3DA35D"/>
</linearGradient>
<linearGradient id="paint78_linear_427_3492" x1="52.1286" y1="165.945" x2="52.1286" y2="228.339" gradientUnits="userSpaceOnUse">
<stop stop-color="#96E072"/>
<stop offset="1" stop-color="#3DA35D"/>
</linearGradient>
<linearGradient id="paint79_linear_427_3492" x1="48.9767" y1="166.45" x2="48.9767" y2="228.843" gradientUnits="userSpaceOnUse">
<stop stop-color="#96E072"/>
<stop offset="1" stop-color="#3DA35D"/>
</linearGradient>
<linearGradient id="paint80_linear_427_3492" x1="46.0373" y1="166.735" x2="46.0373" y2="229.128" gradientUnits="userSpaceOnUse">
<stop stop-color="#96E072"/>
<stop offset="1" stop-color="#3DA35D"/>
</linearGradient>
<linearGradient id="paint81_linear_427_3492" x1="43.33" y1="166.828" x2="43.33" y2="229.221" gradientUnits="userSpaceOnUse">
<stop stop-color="#96E072"/>
<stop offset="1" stop-color="#3DA35D"/>
</linearGradient>
<linearGradient id="paint82_linear_427_3492" x1="40.8549" y1="166.729" x2="40.8549" y2="229.122" gradientUnits="userSpaceOnUse">
<stop stop-color="#96E072"/>
<stop offset="1" stop-color="#3DA35D"/>
</linearGradient>
<linearGradient id="paint83_linear_427_3492" x1="38.632" y1="166.45" x2="38.632" y2="228.843" gradientUnits="userSpaceOnUse">
<stop stop-color="#96E072"/>
<stop offset="1" stop-color="#3DA35D"/>
</linearGradient>
<linearGradient id="paint84_linear_427_3492" x1="36.6811" y1="165.992" x2="36.6811" y2="228.385" gradientUnits="userSpaceOnUse">
<stop stop-color="#96E072"/>
<stop offset="1" stop-color="#3DA35D"/>
</linearGradient>
<linearGradient id="paint85_linear_427_3492" x1="35.0155" y1="165.375" x2="35.0155" y2="227.768" gradientUnits="userSpaceOnUse">
<stop stop-color="#96E072"/>
<stop offset="1" stop-color="#3DA35D"/>
</linearGradient>
<linearGradient id="paint86_linear_427_3492" x1="32.8988" y1="164.034" x2="32.8988" y2="226.427" gradientUnits="userSpaceOnUse">
<stop stop-color="#96E072"/>
<stop offset="1" stop-color="#3DA35D"/>
</linearGradient>
<linearGradient id="paint87_linear_427_3492" x1="31.4921" y1="162.069" x2="31.4921" y2="224.462" gradientUnits="userSpaceOnUse">
<stop stop-color="#96E072"/>
<stop offset="1" stop-color="#3DA35D"/>
</linearGradient>
<linearGradient id="paint88_linear_427_3492" x1="31.1869" y1="159.719" x2="31.1869" y2="222.112" gradientUnits="userSpaceOnUse">
<stop stop-color="#96E072"/>
<stop offset="1" stop-color="#3DA35D"/>
</linearGradient>
<linearGradient id="paint89_linear_427_3492" x1="32.0097" y1="157.071" x2="32.0097" y2="219.464" gradientUnits="userSpaceOnUse">
<stop stop-color="#96E072"/>
<stop offset="1" stop-color="#3DA35D"/>
</linearGradient>
<linearGradient id="paint90_linear_427_3492" x1="33.496" y1="154.821" x2="33.496" y2="217.214" gradientUnits="userSpaceOnUse">
<stop stop-color="#96E072"/>
<stop offset="1" stop-color="#3DA35D"/>
</linearGradient>
<linearGradient id="paint91_linear_427_3492" x1="35.1152" y1="153.035" x2="35.1152" y2="215.428" gradientUnits="userSpaceOnUse">
<stop stop-color="#96E072"/>
<stop offset="1" stop-color="#3DA35D"/>
</linearGradient>
<linearGradient id="paint92_linear_427_3492" x1="36.9997" y1="151.35" x2="36.9997" y2="213.743" gradientUnits="userSpaceOnUse">
<stop stop-color="#96E072"/>
<stop offset="1" stop-color="#3DA35D"/>
</linearGradient>
<linearGradient id="paint93_linear_427_3492" x1="39.0964" y1="149.776" x2="39.0964" y2="212.169" gradientUnits="userSpaceOnUse">
<stop stop-color="#96E072"/>
<stop offset="1" stop-color="#3DA35D"/>
</linearGradient>
<linearGradient id="paint94_linear_427_3492" x1="41.3725" y1="148.316" x2="41.3725" y2="210.709" gradientUnits="userSpaceOnUse">
<stop stop-color="#96E072"/>
<stop offset="1" stop-color="#3DA35D"/>
</linearGradient>
<linearGradient id="paint95_linear_427_3492" x1="43.7878" y1="146.962" x2="43.7878" y2="209.355" gradientUnits="userSpaceOnUse">
<stop stop-color="#96E072"/>
<stop offset="1" stop-color="#3DA35D"/>
</linearGradient>
<linearGradient id="paint96_linear_427_3492" x1="46.3027" y1="145.728" x2="46.3027" y2="208.121" gradientUnits="userSpaceOnUse">
<stop stop-color="#96E072"/>
<stop offset="1" stop-color="#3DA35D"/>
</linearGradient>
<linearGradient id="paint97_linear_427_3492" x1="48.8771" y1="144.606" x2="48.8771" y2="206.999" gradientUnits="userSpaceOnUse">
<stop stop-color="#96E072"/>
<stop offset="1" stop-color="#3DA35D"/>
</linearGradient>
<linearGradient id="paint98_linear_427_3492" x1="51.465" y1="143.597" x2="51.465" y2="205.99" gradientUnits="userSpaceOnUse">
<stop stop-color="#96E072"/>
<stop offset="1" stop-color="#3DA35D"/>
</linearGradient>
<linearGradient id="paint99_linear_427_3492" x1="53.9865" y1="142.721" x2="53.9865" y2="205.114" gradientUnits="userSpaceOnUse">
<stop stop-color="#96E072"/>
<stop offset="1" stop-color="#3DA35D"/>
</linearGradient>
<linearGradient id="paint100_linear_427_3492" x1="56.4682" y1="141.951" x2="56.4682" y2="204.344" gradientUnits="userSpaceOnUse">
<stop stop-color="#96E072"/>
<stop offset="1" stop-color="#3DA35D"/>
</linearGradient>
<linearGradient id="paint101_linear_427_3492" x1="58.9897" y1="141.247" x2="58.9897" y2="203.64" gradientUnits="userSpaceOnUse">
<stop stop-color="#96E072"/>
<stop offset="1" stop-color="#3DA35D"/>
</linearGradient>
<linearGradient id="paint102_linear_427_3492" x1="61.5509" y1="140.61" x2="61.5509" y2="203.003" gradientUnits="userSpaceOnUse">
<stop stop-color="#96E072"/>
<stop offset="1" stop-color="#3DA35D"/>
</linearGradient>
<linearGradient id="paint103_linear_427_3492" x1="64.1388" y1="140.039" x2="64.1388" y2="202.432" gradientUnits="userSpaceOnUse">
<stop stop-color="#96E072"/>
<stop offset="1" stop-color="#3DA35D"/>
</linearGradient>
<linearGradient id="paint104_linear_427_3492" x1="66.7599" y1="139.535" x2="66.7599" y2="201.928" gradientUnits="userSpaceOnUse">
<stop stop-color="#96E072"/>
<stop offset="1" stop-color="#3DA35D"/>
</linearGradient>
<linearGradient id="paint105_linear_427_3492" x1="69.4008" y1="139.09" x2="69.4008" y2="201.483" gradientUnits="userSpaceOnUse">
<stop stop-color="#96E072"/>
<stop offset="1" stop-color="#3DA35D"/>
</linearGradient>
<linearGradient id="paint106_linear_427_3492" x1="72.0551" y1="138.712" x2="72.0551" y2="201.105" gradientUnits="userSpaceOnUse">
<stop stop-color="#96E072"/>
<stop offset="1" stop-color="#3DA35D"/>
</linearGradient>
<linearGradient id="paint107_linear_427_3492" x1="74.7292" y1="138.386" x2="74.7292" y2="200.779" gradientUnits="userSpaceOnUse">
<stop stop-color="#96E072"/>
<stop offset="1" stop-color="#3DA35D"/>
</linearGradient>
<linearGradient id="paint108_linear_427_3492" x1="77.4032" y1="138.121" x2="77.4032" y2="200.514" gradientUnits="userSpaceOnUse">
<stop stop-color="#96E072"/>
<stop offset="1" stop-color="#3DA35D"/>
</linearGradient>
<linearGradient id="paint109_linear_427_3492" x1="80.0773" y1="137.915" x2="80.0773" y2="200.308" gradientUnits="userSpaceOnUse">
<stop stop-color="#96E072"/>
<stop offset="1" stop-color="#3DA35D"/>
</linearGradient>
<linearGradient id="paint110_linear_427_3492" x1="82.7516" y1="137.762" x2="82.7516" y2="200.155" gradientUnits="userSpaceOnUse">
<stop stop-color="#96E072"/>
<stop offset="1" stop-color="#3DA35D"/>
</linearGradient>
<linearGradient id="paint111_linear_427_3492" x1="85.4191" y1="137.656" x2="85.4191" y2="200.049" gradientUnits="userSpaceOnUse">
<stop stop-color="#96E072"/>
<stop offset="1" stop-color="#3DA35D"/>
</linearGradient>
<linearGradient id="paint112_linear_427_3492" x1="88.0666" y1="137.603" x2="88.0666" y2="199.996" gradientUnits="userSpaceOnUse">
<stop stop-color="#96E072"/>
<stop offset="1" stop-color="#3DA35D"/>
</linearGradient>
<linearGradient id="paint113_linear_427_3492" x1="90.7472" y1="137.616" x2="90.7472" y2="200.009" gradientUnits="userSpaceOnUse">
<stop stop-color="#96E072"/>
<stop offset="1" stop-color="#3DA35D"/>
</linearGradient>
<linearGradient id="paint114_linear_427_3492" x1="93.4347" y1="137.67" x2="93.4347" y2="200.063" gradientUnits="userSpaceOnUse">
<stop stop-color="#96E072"/>
<stop offset="1" stop-color="#3DA35D"/>
</linearGradient>
<linearGradient id="paint115_linear_427_3492" x1="96.1088" y1="137.762" x2="96.1088" y2="200.155" gradientUnits="userSpaceOnUse">
<stop stop-color="#96E072"/>
<stop offset="1" stop-color="#3DA35D"/>
</linearGradient>
<linearGradient id="paint116_linear_427_3492" x1="98.7829" y1="137.889" x2="98.7829" y2="200.282" gradientUnits="userSpaceOnUse">
<stop stop-color="#96E072"/>
<stop offset="1" stop-color="#3DA35D"/>
</linearGradient>
<linearGradient id="paint117_linear_427_3492" x1="101.444" y1="138.048" x2="101.444" y2="200.441" gradientUnits="userSpaceOnUse">
<stop stop-color="#96E072"/>
<stop offset="1" stop-color="#3DA35D"/>
</linearGradient>
<linearGradient id="paint118_linear_427_3492" x1="104.105" y1="138.24" x2="104.105" y2="200.633" gradientUnits="userSpaceOnUse">
<stop stop-color="#96E072"/>
<stop offset="1" stop-color="#3DA35D"/>
</linearGradient>
<linearGradient id="paint119_linear_427_3492" x1="106.752" y1="138.466" x2="106.752" y2="200.859" gradientUnits="userSpaceOnUse">
<stop stop-color="#96E072"/>
<stop offset="1" stop-color="#3DA35D"/>
</linearGradient>
<linearGradient id="paint120_linear_427_3492" x1="109.393" y1="138.732" x2="109.393" y2="201.125" gradientUnits="userSpaceOnUse">
<stop stop-color="#96E072"/>
<stop offset="1" stop-color="#3DA35D"/>
</linearGradient>
<linearGradient id="paint121_linear_427_3492" x1="112.028" y1="139.024" x2="112.028" y2="201.417" gradientUnits="userSpaceOnUse">
<stop stop-color="#96E072"/>
<stop offset="1" stop-color="#3DA35D"/>
</linearGradient>
<linearGradient id="paint122_linear_427_3492" x1="114.648" y1="139.355" x2="114.648" y2="201.748" gradientUnits="userSpaceOnUse">
<stop stop-color="#96E072"/>
<stop offset="1" stop-color="#3DA35D"/>
</linearGradient>
<linearGradient id="paint123_linear_427_3492" x1="117.269" y1="139.714" x2="117.269" y2="202.107" gradientUnits="userSpaceOnUse">
<stop stop-color="#96E072"/>
<stop offset="1" stop-color="#3DA35D"/>
</linearGradient>
<linearGradient id="paint124_linear_427_3492" x1="119.877" y1="140.105" x2="119.877" y2="202.499" gradientUnits="userSpaceOnUse">
<stop stop-color="#96E072"/>
<stop offset="1" stop-color="#3DA35D"/>
</linearGradient>
<linearGradient id="paint125_linear_427_3492" x1="122.478" y1="140.53" x2="122.478" y2="202.923" gradientUnits="userSpaceOnUse">
<stop stop-color="#96E072"/>
<stop offset="1" stop-color="#3DA35D"/>
</linearGradient>
<linearGradient id="paint126_linear_427_3492" x1="125.073" y1="140.982" x2="125.073" y2="203.375" gradientUnits="userSpaceOnUse">
<stop stop-color="#96E072"/>
<stop offset="1" stop-color="#3DA35D"/>
</linearGradient>
<linearGradient id="paint127_linear_427_3492" x1="127.661" y1="141.473" x2="127.661" y2="203.866" gradientUnits="userSpaceOnUse">
<stop stop-color="#96E072"/>
<stop offset="1" stop-color="#3DA35D"/>
</linearGradient>
<linearGradient id="paint128_linear_427_3492" x1="130.242" y1="141.984" x2="130.242" y2="204.377" gradientUnits="userSpaceOnUse">
<stop stop-color="#96E072"/>
<stop offset="1" stop-color="#3DA35D"/>
</linearGradient>
<linearGradient id="paint129_linear_427_3492" x1="132.817" y1="142.535" x2="132.817" y2="204.928" gradientUnits="userSpaceOnUse">
<stop stop-color="#96E072"/>
<stop offset="1" stop-color="#3DA35D"/>
</linearGradient>
<linearGradient id="paint130_linear_427_3492" x1="135.378" y1="143.106" x2="135.378" y2="205.499" gradientUnits="userSpaceOnUse">
<stop stop-color="#96E072"/>
<stop offset="1" stop-color="#3DA35D"/>
</linearGradient>
<linearGradient id="paint131_linear_427_3492" x1="137.939" y1="143.716" x2="137.939" y2="206.109" gradientUnits="userSpaceOnUse">
<stop stop-color="#96E072"/>
<stop offset="1" stop-color="#3DA35D"/>
</linearGradient>
<linearGradient id="paint132_linear_427_3492" x1="140.487" y1="144.347" x2="140.487" y2="206.74" gradientUnits="userSpaceOnUse">
<stop stop-color="#96E072"/>
<stop offset="1" stop-color="#3DA35D"/>
</linearGradient>
<linearGradient id="paint133_linear_427_3492" x1="143.028" y1="145.011" x2="143.028" y2="207.404" gradientUnits="userSpaceOnUse">
<stop stop-color="#96E072"/>
<stop offset="1" stop-color="#3DA35D"/>
</linearGradient>
<linearGradient id="paint134_linear_427_3492" x1="145.563" y1="145.701" x2="145.563" y2="208.094" gradientUnits="userSpaceOnUse">
<stop stop-color="#96E072"/>
<stop offset="1" stop-color="#3DA35D"/>
</linearGradient>
<linearGradient id="paint135_linear_427_3492" x1="148.091" y1="146.418" x2="148.091" y2="208.811" gradientUnits="userSpaceOnUse">
<stop stop-color="#96E072"/>
<stop offset="1" stop-color="#3DA35D"/>
</linearGradient>
<linearGradient id="paint136_linear_427_3492" x1="150.606" y1="147.161" x2="150.606" y2="209.554" gradientUnits="userSpaceOnUse">
<stop stop-color="#96E072"/>
<stop offset="1" stop-color="#3DA35D"/>
</linearGradient>
<linearGradient id="paint137_linear_427_3492" x1="153.121" y1="147.931" x2="153.121" y2="210.324" gradientUnits="userSpaceOnUse">
<stop stop-color="#96E072"/>
<stop offset="1" stop-color="#3DA35D"/>
</linearGradient>
<linearGradient id="paint138_linear_427_3492" x1="155.623" y1="148.734" x2="155.623" y2="211.127" gradientUnits="userSpaceOnUse">
<stop stop-color="#96E072"/>
<stop offset="1" stop-color="#3DA35D"/>
</linearGradient>
<linearGradient id="paint139_linear_427_3492" x1="158.124" y1="149.557" x2="158.124" y2="211.95" gradientUnits="userSpaceOnUse">
<stop stop-color="#96E072"/>
<stop offset="1" stop-color="#3DA35D"/>
</linearGradient>
<linearGradient id="paint140_linear_427_3492" x1="160.613" y1="150.407" x2="160.613" y2="212.8" gradientUnits="userSpaceOnUse">
<stop stop-color="#96E072"/>
<stop offset="1" stop-color="#3DA35D"/>
</linearGradient>
<linearGradient id="paint141_linear_427_3492" x1="163.094" y1="151.283" x2="163.094" y2="213.676" gradientUnits="userSpaceOnUse">
<stop stop-color="#96E072"/>
<stop offset="1" stop-color="#3DA35D"/>
</linearGradient>
<linearGradient id="paint142_linear_427_3492" x1="165.569" y1="152.179" x2="165.569" y2="214.572" gradientUnits="userSpaceOnUse">
<stop stop-color="#96E072"/>
<stop offset="1" stop-color="#3DA35D"/>
</linearGradient>
<linearGradient id="paint143_linear_427_3492" x1="168.038" y1="153.108" x2="168.038" y2="215.501" gradientUnits="userSpaceOnUse">
<stop stop-color="#96E072"/>
<stop offset="1" stop-color="#3DA35D"/>
</linearGradient>
<linearGradient id="paint144_linear_427_3492" x1="170.493" y1="154.058" x2="170.493" y2="216.451" gradientUnits="userSpaceOnUse">
<stop stop-color="#96E072"/>
<stop offset="1" stop-color="#3DA35D"/>
</linearGradient>
<linearGradient id="paint145_linear_427_3492" x1="172.948" y1="155.027" x2="172.948" y2="217.42" gradientUnits="userSpaceOnUse">
<stop stop-color="#96E072"/>
<stop offset="1" stop-color="#3DA35D"/>
</linearGradient>
<linearGradient id="paint146_linear_427_3492" x1="175.39" y1="156.022" x2="175.39" y2="218.415" gradientUnits="userSpaceOnUse">
<stop stop-color="#96E072"/>
<stop offset="1" stop-color="#3DA35D"/>
</linearGradient>
<linearGradient id="paint147_linear_427_3492" x1="177.832" y1="157.038" x2="177.832" y2="219.431" gradientUnits="userSpaceOnUse">
<stop stop-color="#96E072"/>
<stop offset="1" stop-color="#3DA35D"/>
</linearGradient>
<linearGradient id="paint148_linear_427_3492" x1="180.26" y1="158.08" x2="180.26" y2="220.473" gradientUnits="userSpaceOnUse">
<stop stop-color="#96E072"/>
<stop offset="1" stop-color="#3DA35D"/>
</linearGradient>
<linearGradient id="paint149_linear_427_3492" x1="182.683" y1="159.142" x2="182.683" y2="221.535" gradientUnits="userSpaceOnUse">
<stop stop-color="#96E072"/>
<stop offset="1" stop-color="#3DA35D"/>
</linearGradient>
<linearGradient id="paint150_linear_427_3492" x1="185.098" y1="160.231" x2="185.098" y2="222.624" gradientUnits="userSpaceOnUse">
<stop stop-color="#96E072"/>
<stop offset="1" stop-color="#3DA35D"/>
</linearGradient>
<linearGradient id="paint151_linear_427_3492" x1="187.506" y1="161.332" x2="187.506" y2="223.725" gradientUnits="userSpaceOnUse">
<stop stop-color="#96E072"/>
<stop offset="1" stop-color="#3DA35D"/>
</linearGradient>
<linearGradient id="paint152_linear_427_3492" x1="189.909" y1="162.461" x2="189.909" y2="224.854" gradientUnits="userSpaceOnUse">
<stop stop-color="#96E072"/>
<stop offset="1" stop-color="#3DA35D"/>
</linearGradient>
<linearGradient id="paint153_linear_427_3492" x1="192.297" y1="163.609" x2="192.297" y2="226.002" gradientUnits="userSpaceOnUse">
<stop stop-color="#96E072"/>
<stop offset="1" stop-color="#3DA35D"/>
</linearGradient>
<linearGradient id="paint154_linear_427_3492" x1="194.686" y1="164.771" x2="194.686" y2="227.164" gradientUnits="userSpaceOnUse">
<stop stop-color="#96E072"/>
<stop offset="1" stop-color="#3DA35D"/>
</linearGradient>
<linearGradient id="paint155_linear_427_3492" x1="197.061" y1="165.959" x2="197.061" y2="228.352" gradientUnits="userSpaceOnUse">
<stop stop-color="#96E072"/>
<stop offset="1" stop-color="#3DA35D"/>
</linearGradient>
<linearGradient id="paint156_linear_427_3492" x1="199.437" y1="167.167" x2="199.437" y2="229.56" gradientUnits="userSpaceOnUse">
<stop stop-color="#96E072"/>
<stop offset="1" stop-color="#3DA35D"/>
</linearGradient>
<linearGradient id="paint157_linear_427_3492" x1="201.799" y1="168.395" x2="201.799" y2="230.788" gradientUnits="userSpaceOnUse">
<stop stop-color="#96E072"/>
<stop offset="1" stop-color="#3DA35D"/>
</linearGradient>
<linearGradient id="paint158_linear_427_3492" x1="204.155" y1="169.636" x2="204.155" y2="232.029" gradientUnits="userSpaceOnUse">
<stop stop-color="#96E072"/>
<stop offset="1" stop-color="#3DA35D"/>
</linearGradient>
<linearGradient id="paint159_linear_427_3492" x1="206.504" y1="170.897" x2="206.504" y2="233.29" gradientUnits="userSpaceOnUse">
<stop stop-color="#96E072"/>
<stop offset="1" stop-color="#3DA35D"/>
</linearGradient>
<linearGradient id="paint160_linear_427_3492" x1="208.846" y1="172.178" x2="208.846" y2="234.571" gradientUnits="userSpaceOnUse">
<stop stop-color="#96E072"/>
<stop offset="1" stop-color="#3DA35D"/>
</linearGradient>
<linearGradient id="paint161_linear_427_3492" x1="211.182" y1="173.472" x2="211.182" y2="235.865" gradientUnits="userSpaceOnUse">
<stop stop-color="#96E072"/>
<stop offset="1" stop-color="#3DA35D"/>
</linearGradient>
<linearGradient id="paint162_linear_427_3492" x1="213.504" y1="174.787" x2="213.504" y2="237.18" gradientUnits="userSpaceOnUse">
<stop stop-color="#96E072"/>
<stop offset="1" stop-color="#3DA35D"/>
</linearGradient>
<linearGradient id="paint163_linear_427_3492" x1="215.827" y1="176.114" x2="215.827" y2="238.507" gradientUnits="userSpaceOnUse">
<stop stop-color="#96E072"/>
<stop offset="1" stop-color="#3DA35D"/>
</linearGradient>
<linearGradient id="paint164_linear_427_3492" x1="218.143" y1="177.462" x2="218.143" y2="239.855" gradientUnits="userSpaceOnUse">
<stop stop-color="#96E072"/>
<stop offset="1" stop-color="#3DA35D"/>
</linearGradient>
<linearGradient id="paint165_linear_427_3492" x1="220.445" y1="178.822" x2="220.445" y2="241.215" gradientUnits="userSpaceOnUse">
<stop stop-color="#96E072"/>
<stop offset="1" stop-color="#3DA35D"/>
</linearGradient>
<linearGradient id="paint166_linear_427_3492" x1="222.741" y1="180.196" x2="222.741" y2="242.589" gradientUnits="userSpaceOnUse">
<stop stop-color="#96E072"/>
<stop offset="1" stop-color="#3DA35D"/>
</linearGradient>
<linearGradient id="paint167_linear_427_3492" x1="225.037" y1="181.59" x2="225.037" y2="243.983" gradientUnits="userSpaceOnUse">
<stop stop-color="#96E072"/>
<stop offset="1" stop-color="#3DA35D"/>
</linearGradient>
<linearGradient id="paint168_linear_427_3492" x1="227.32" y1="182.997" x2="227.32" y2="245.39" gradientUnits="userSpaceOnUse">
<stop stop-color="#96E072"/>
<stop offset="1" stop-color="#3DA35D"/>
</linearGradient>
<linearGradient id="paint169_linear_427_3492" x1="229.596" y1="184.418" x2="229.596" y2="246.811" gradientUnits="userSpaceOnUse">
<stop stop-color="#96E072"/>
<stop offset="1" stop-color="#3DA35D"/>
</linearGradient>
<linearGradient id="paint170_linear_427_3492" x1="231.865" y1="185.852" x2="231.865" y2="248.245" gradientUnits="userSpaceOnUse">
<stop stop-color="#96E072"/>
<stop offset="1" stop-color="#3DA35D"/>
</linearGradient>
<linearGradient id="paint171_linear_427_3492" x1="234.127" y1="187.299" x2="234.127" y2="249.692" gradientUnits="userSpaceOnUse">
<stop stop-color="#96E072"/>
<stop offset="1" stop-color="#3DA35D"/>
</linearGradient>
<linearGradient id="paint172_linear_427_3492" x1="236.384" y1="188.759" x2="236.384" y2="251.152" gradientUnits="userSpaceOnUse">
<stop stop-color="#96E072"/>
<stop offset="1" stop-color="#3DA35D"/>
</linearGradient>
<linearGradient id="paint173_linear_427_3492" x1="238.626" y1="190.232" x2="238.626" y2="252.625" gradientUnits="userSpaceOnUse">
<stop stop-color="#96E072"/>
<stop offset="1" stop-color="#3DA35D"/>
</linearGradient>
<linearGradient id="paint174_linear_427_3492" x1="240.869" y1="191.719" x2="240.869" y2="254.112" gradientUnits="userSpaceOnUse">
<stop stop-color="#96E072"/>
<stop offset="1" stop-color="#3DA35D"/>
</linearGradient>
<linearGradient id="paint175_linear_427_3492" x1="243.105" y1="193.213" x2="243.105" y2="255.606" gradientUnits="userSpaceOnUse">
<stop stop-color="#96E072"/>
<stop offset="1" stop-color="#3DA35D"/>
</linearGradient>
<linearGradient id="paint176_linear_427_3492" x1="245.329" y1="194.726" x2="245.329" y2="257.119" gradientUnits="userSpaceOnUse">
<stop stop-color="#96E072"/>
<stop offset="1" stop-color="#3DA35D"/>
</linearGradient>
<linearGradient id="paint177_linear_427_3492" x1="247.545" y1="196.239" x2="247.545" y2="258.632" gradientUnits="userSpaceOnUse">
<stop stop-color="#96E072"/>
<stop offset="1" stop-color="#3DA35D"/>
</linearGradient>
<linearGradient id="paint178_linear_427_3492" x1="249.761" y1="197.773" x2="249.761" y2="260.166" gradientUnits="userSpaceOnUse">
<stop stop-color="#96E072"/>
<stop offset="1" stop-color="#3DA35D"/>
</linearGradient>
<linearGradient id="paint179_linear_427_3492" x1="251.964" y1="199.312" x2="251.964" y2="261.706" gradientUnits="userSpaceOnUse">
<stop stop-color="#96E072"/>
<stop offset="1" stop-color="#3DA35D"/>
</linearGradient>
<linearGradient id="paint180_linear_427_3492" x1="254.16" y1="200.859" x2="254.16" y2="263.252" gradientUnits="userSpaceOnUse">
<stop stop-color="#96E072"/>
<stop offset="1" stop-color="#3DA35D"/>
</linearGradient>
<linearGradient id="paint181_linear_427_3492" x1="256.35" y1="202.419" x2="256.35" y2="264.812" gradientUnits="userSpaceOnUse">
<stop stop-color="#96E072"/>
<stop offset="1" stop-color="#3DA35D"/>
</linearGradient>
<linearGradient id="paint182_linear_427_3492" x1="258.533" y1="203.985" x2="258.533" y2="266.378" gradientUnits="userSpaceOnUse">
<stop stop-color="#96E072"/>
<stop offset="1" stop-color="#3DA35D"/>
</linearGradient>
<linearGradient id="paint183_linear_427_3492" x1="260.709" y1="205.565" x2="260.709" y2="267.958" gradientUnits="userSpaceOnUse">
<stop stop-color="#96E072"/>
<stop offset="1" stop-color="#3DA35D"/>
</linearGradient>
<linearGradient id="paint184_linear_427_3492" x1="262.879" y1="207.151" x2="262.879" y2="269.544" gradientUnits="userSpaceOnUse">
<stop stop-color="#96E072"/>
<stop offset="1" stop-color="#3DA35D"/>
</linearGradient>
<linearGradient id="paint185_linear_427_3492" x1="265.042" y1="208.738" x2="265.042" y2="271.131" gradientUnits="userSpaceOnUse">
<stop stop-color="#96E072"/>
<stop offset="1" stop-color="#3DA35D"/>
</linearGradient>
<linearGradient id="paint186_linear_427_3492" x1="267.199" y1="210.337" x2="267.199" y2="272.73" gradientUnits="userSpaceOnUse">
<stop stop-color="#96E072"/>
<stop offset="1" stop-color="#3DA35D"/>
</linearGradient>
<linearGradient id="paint187_linear_427_3492" x1="269.349" y1="211.95" x2="269.349" y2="274.343" gradientUnits="userSpaceOnUse">
<stop stop-color="#96E072"/>
<stop offset="1" stop-color="#3DA35D"/>
</linearGradient>
<linearGradient id="paint188_linear_427_3492" x1="271.486" y1="213.563" x2="271.486" y2="275.956" gradientUnits="userSpaceOnUse">
<stop stop-color="#96E072"/>
<stop offset="1" stop-color="#3DA35D"/>
</linearGradient>
<linearGradient id="paint189_linear_427_3492" x1="273.622" y1="215.183" x2="273.622" y2="277.576" gradientUnits="userSpaceOnUse">
<stop stop-color="#96E072"/>
<stop offset="1" stop-color="#3DA35D"/>
</linearGradient>
<linearGradient id="paint190_linear_427_3492" x1="275.746" y1="216.802" x2="275.746" y2="279.195" gradientUnits="userSpaceOnUse">
<stop stop-color="#96E072"/>
<stop offset="1" stop-color="#3DA35D"/>
</linearGradient>
<linearGradient id="paint191_linear_427_3492" x1="277.869" y1="218.435" x2="277.869" y2="280.828" gradientUnits="userSpaceOnUse">
<stop stop-color="#96E072"/>
<stop offset="1" stop-color="#3DA35D"/>
</linearGradient>
<linearGradient id="paint192_linear_427_3492" x1="279.979" y1="220.068" x2="279.979" y2="282.461" gradientUnits="userSpaceOnUse">
<stop stop-color="#96E072"/>
<stop offset="1" stop-color="#3DA35D"/>
</linearGradient>
<linearGradient id="paint193_linear_427_3492" x1="282.089" y1="221.714" x2="282.089" y2="284.107" gradientUnits="userSpaceOnUse">
<stop stop-color="#96E072"/>
<stop offset="1" stop-color="#3DA35D"/>
</linearGradient>
<linearGradient id="paint194_linear_427_3492" x1="284.186" y1="223.354" x2="284.186" y2="285.747" gradientUnits="userSpaceOnUse">
<stop stop-color="#96E072"/>
<stop offset="1" stop-color="#3DA35D"/>
</linearGradient>
<linearGradient id="paint195_linear_427_3492" x1="286.276" y1="225.006" x2="286.276" y2="287.399" gradientUnits="userSpaceOnUse">
<stop stop-color="#96E072"/>
<stop offset="1" stop-color="#3DA35D"/>
</linearGradient>
<linearGradient id="paint196_linear_427_3492" x1="288.36" y1="226.653" x2="288.36" y2="289.046" gradientUnits="userSpaceOnUse">
<stop stop-color="#96E072"/>
<stop offset="1" stop-color="#3DA35D"/>
</linearGradient>
<linearGradient id="paint197_linear_427_3492" x1="290.436" y1="228.312" x2="290.436" y2="290.705" gradientUnits="userSpaceOnUse">
<stop stop-color="#96E072"/>
<stop offset="1" stop-color="#3DA35D"/>
</linearGradient>
<linearGradient id="paint198_linear_427_3492" x1="292.514" y1="229.965" x2="292.514" y2="292.358" gradientUnits="userSpaceOnUse">
<stop stop-color="#96E072"/>
<stop offset="1" stop-color="#3DA35D"/>
</linearGradient>
<linearGradient id="paint199_linear_427_3492" x1="294.577" y1="231.624" x2="294.577" y2="294.017" gradientUnits="userSpaceOnUse">
<stop stop-color="#96E072"/>
<stop offset="1" stop-color="#3DA35D"/>
</linearGradient>
<linearGradient id="paint200_linear_427_3492" x1="296.634" y1="233.29" x2="296.634" y2="295.683" gradientUnits="userSpaceOnUse">
<stop stop-color="#96E072"/>
<stop offset="1" stop-color="#3DA35D"/>
</linearGradient>
<linearGradient id="paint201_linear_427_3492" x1="298.684" y1="234.95" x2="298.684" y2="297.343" gradientUnits="userSpaceOnUse">
<stop stop-color="#96E072"/>
<stop offset="1" stop-color="#3DA35D"/>
</linearGradient>
<linearGradient id="paint202_linear_427_3492" x1="300.722" y1="236.616" x2="300.722" y2="299.009" gradientUnits="userSpaceOnUse">
<stop stop-color="#96E072"/>
<stop offset="1" stop-color="#3DA35D"/>
</linearGradient>
<linearGradient id="paint203_linear_427_3492" x1="302.759" y1="238.275" x2="302.759" y2="300.668" gradientUnits="userSpaceOnUse">
<stop stop-color="#96E072"/>
<stop offset="1" stop-color="#3DA35D"/>
</linearGradient>
<linearGradient id="paint204_linear_427_3492" x1="304.789" y1="239.941" x2="304.789" y2="302.334" gradientUnits="userSpaceOnUse">
<stop stop-color="#96E072"/>
<stop offset="1" stop-color="#3DA35D"/>
</linearGradient>
<linearGradient id="paint205_linear_427_3492" x1="306.813" y1="241.607" x2="306.813" y2="304" gradientUnits="userSpaceOnUse">
<stop stop-color="#96E072"/>
<stop offset="1" stop-color="#3DA35D"/>
</linearGradient>
<clipPath id="clip0_427_3492">
<rect width="338" height="304" fill="white"/>
</clipPath>
</defs>
</svg>
